<svg width="62" height="59" viewBox="0 0 62 59" fill="none" xmlns="http://www.w3.org/2000/svg">
<path d="M2.00297 45.9243V9.21474C2.00297 3.69439 7.1619 2.3144 9.74137 2.31445C20.8409 2.68247 43.7435 2.3143 50.3094 2.31445C56.1731 2.31459 58.7513 4.52255 59.6893 9.21474C59.9237 19.5192 60.252 41.8945 59.6893 48.9604C59.1265 56.0263 53.2015 57.2408 50.3094 56.9647C39.4443 56.7807 16.1197 56.5231 9.74137 56.9647C3.36305 57.4064 1.9248 49.7884 2.00297 45.9243Z" stroke="white" stroke-width="2.7619"/>
<path d="M2 14.4668H60" stroke="white" stroke-width="2.7619"/>
<rect x="12" y="24" width="38" height="3" fill="white" stroke="white" stroke-width="2.7619" stroke-linecap="round" stroke-linejoin="round"/>
<rect x="12" y="34" width="38" height="3" fill="white" stroke="white" stroke-width="2.7619" stroke-linecap="round" stroke-linejoin="round"/>
<rect x="12" y="44" width="38" height="3" fill="white" stroke="white" stroke-width="2.7619" stroke-linecap="round" stroke-linejoin="round"/>
</svg>
