<svg width="95" height="96" viewBox="0 0 95 96" fill="none" xmlns="http://www.w3.org/2000/svg">
<path d="M0.003523 54.9283C2.79454 51.7535 5.47991 48.4708 8.3941 45.4181C15.5846 37.8867 23.6937 32.0038 34.3755 30.9228C34.995 30.8617 35.7024 30.3302 36.1283 29.8094C50.0446 12.7426 67.91 3.17847 89.4251 0.495623C89.8193 0.445342 90.1853 0.172392 90.5654 0C92.0436 0 93.5218 0 95 0C93.8984 5.42316 93.6591 11.2306 91.5262 16.1941C86.5918 27.6761 81.5236 39.2551 74.9737 49.7997C70.891 56.3757 67.5791 62.9051 65.1225 70.2102C62.0041 79.4906 56.3341 87.0471 47.7393 91.9675C46.8383 92.4846 45.8739 92.8797 44.5752 93.5082C42.643 88.5376 40.8023 83.7968 38.9756 79.0955C36.0368 79.2571 34.0482 82.7589 30.7715 81.3294C24.6193 92.6534 13.4659 93.7524 2.03079 95.6595C4.13549 85.8835 6.09937 76.5779 12.7302 69.2656C14.2225 67.6171 15.398 66.299 15.0918 63.8353C14.9194 62.4525 15.6726 60.9549 16.1196 59.0191C10.6608 58.0709 5.33214 57.1443 0 56.2213C0.00351956 55.7903 0.003523 55.3593 0.003523 54.9283ZM82.7097 26.4801C77.8809 22.2888 73.1084 18.3921 68.635 14.1613C66.4353 12.0782 64.7247 12.1824 62.2751 13.5902C51.9382 19.5485 43.0408 27.1625 36.1917 37.0714C30.7434 44.9548 25.559 53.0284 20.3114 61.0554C19.0795 62.941 19.0232 64.5787 21.0962 66.2739C24.6264 69.1579 27.9136 72.3615 31.2079 75.5328C32.3518 76.6353 33.2528 77.0089 34.7381 76.1038C40.8727 72.3615 47.0706 68.7269 53.2545 65.0707C68.086 56.3003 76.005 42.0349 82.7097 26.4801ZM7.34176 90.6745C13.6875 89.5935 19.1393 88.1281 23.5353 84.1559C24.8938 82.9277 25.8336 81.1247 26.6818 79.4367C27.0021 78.801 26.8401 77.4219 26.3615 76.937C23.9119 74.4733 21.2863 72.1891 18.5833 69.7145C11.6322 74.8935 9.81601 82.5541 7.34176 90.6745ZM62.8769 63.9143C56.313 68.0912 50.0834 72.0167 43.9206 76.0463C43.4314 76.366 43.0442 77.5584 43.2378 78.1258C44.2866 81.2289 45.5291 84.2673 46.8348 87.672C55.507 81.8071 60.093 73.7119 62.8769 63.9143ZM84.9728 22.8168C87.074 16.5281 88.9886 10.7996 90.9033 5.07119C90.576 4.81979 90.2486 4.57197 89.9213 4.32057C83.4171 5.9978 76.913 7.67502 69.6205 9.55338C75.104 14.2942 79.7427 18.3023 84.9728 22.8168ZM7.18692 53.0428C10.9106 53.7791 13.8706 54.4327 16.8587 54.896C17.5274 55.0002 18.622 54.6769 18.9704 54.1598C22.9581 48.2841 26.8402 42.333 31.0672 35.9257C20.9414 38.6768 14.0501 45.1774 7.18692 53.0428Z" fill="#141C5A"/>
<path d="M58.9488 43.9315C55.0737 43.8309 51.3501 39.8156 51.4099 35.8003C51.4732 31.512 55.753 27.5901 60.1489 27.7948C64.2597 27.9851 67.818 31.7706 67.6983 35.8254C67.5681 40.1173 63.3306 44.0464 58.9488 43.9315ZM58.3187 39.9808C61.6975 40.0562 63.7107 38.2533 63.6579 36.1235C63.6016 33.7567 62.1199 32.6433 60.0222 32.4278C57.8472 32.2016 55.4222 34.2847 55.9044 36.2708C56.288 37.8367 57.731 39.1296 58.3187 39.9808Z" fill="#141C5A"/>
<path d="M34.5978 52.8448C34.6153 48.5135 38.3496 45.001 42.9426 44.9903C47.3561 44.9795 50.7912 48.5099 50.6857 52.9489C50.5836 57.2192 46.7226 60.904 42.3126 60.9363C38.1138 60.9686 34.5766 57.2587 34.5978 52.8448ZM42.4745 56.957C44.8854 56.8708 46.6945 55.8831 46.7543 53.2614C46.8071 51.0095 45.3957 49.7884 43.1573 49.6843C40.683 49.5658 38.8493 51.0814 38.9373 53.3368C39.0253 55.5815 40.2114 56.8744 42.4745 56.957Z" fill="#141C5A"/>
</svg>
