<svg width="119" height="119" viewBox="0 0 119 119" fill="none" xmlns="http://www.w3.org/2000/svg">
<circle cx="59.5" cy="59.5" r="59.5" fill="#FED54E"/>
<path d="M35.1232 50.7091V60.2386C35.1232 61.0557 35.0857 61.7571 35.0108 62.3427C34.9427 62.9283 34.8168 63.4492 34.6329 63.9054C34.4491 64.3548 34.2175 64.7225 33.9384 65.0085C33.666 65.2877 33.3051 65.5192 32.8557 65.703C32.4131 65.8801 31.916 66.0026 31.3645 66.0707C30.8129 66.1388 30.1456 66.1729 29.3626 66.1729C28.6067 66.1729 27.9633 66.1422 27.4321 66.0809C26.901 66.0197 26.4108 65.9073 25.9613 65.7439C25.5119 65.5737 25.1476 65.3524 24.8685 65.08C24.5961 64.8008 24.3612 64.4399 24.1637 63.9973C23.9662 63.5479 23.8266 63.0202 23.7449 62.4142C23.67 61.8081 23.6326 61.083 23.6326 60.2386V50.7091H25.706V60.5042C25.706 61.0693 25.706 61.4779 25.706 61.7298C25.7128 61.9818 25.7332 62.2916 25.7673 62.6593C25.8013 63.0202 25.8456 63.2687 25.9001 63.4049C25.9545 63.5343 26.0431 63.6977 26.1656 63.8952C26.295 64.0926 26.438 64.2186 26.5946 64.2731C26.758 64.3208 26.9793 64.382 27.2585 64.4569C27.5377 64.5318 27.8373 64.5761 28.1573 64.5897C28.4842 64.5965 28.8893 64.5999 29.3728 64.5999C29.9447 64.5999 30.4214 64.5829 30.8027 64.5489C31.1908 64.5148 31.5279 64.4467 31.8139 64.3446C32.0999 64.2424 32.3178 64.1267 32.4676 63.9973C32.6242 63.8611 32.7467 63.6637 32.8353 63.4049C32.9306 63.1462 32.9919 62.8772 33.0191 62.598C33.0464 62.3188 33.06 61.9477 33.06 61.4847L33.0498 50.7091H35.1232ZM53.9269 50.7091L50.6993 65.9277H48.4829L45.5822 53.9469L42.7018 65.9277H40.4957L37.1455 50.7091H39.3313L41.7213 63.0781L44.6323 50.7091H46.6852L49.6779 63.0781L52.0067 50.7091H53.9269ZM71.4641 65.9277H69.3089L62.0571 53.906V65.9277H60.239V50.7091H62.3329L69.646 62.8942V50.7091H71.4641V65.9277ZM83.5266 60.1671C82.7095 60.2488 82.2022 60.2965 82.0047 60.3101H76.4382C76.445 61.2975 76.4722 62.3801 76.5199 63.5581C76.554 64.0143 76.748 64.3174 77.1021 64.4672C77.463 64.6101 78.1609 64.6816 79.1959 64.6816C79.5841 64.6816 79.9177 64.668 80.1969 64.6408C80.4761 64.6067 80.7008 64.5523 80.871 64.4774C81.048 64.3957 81.1842 64.3208 81.2796 64.2527C81.3817 64.1778 81.4566 64.0654 81.5043 63.9156C81.5519 63.759 81.5826 63.6296 81.5962 63.5275C81.6098 63.4185 81.6234 63.2585 81.637 63.0474C81.6507 62.8295 81.6677 62.6525 81.6881 62.5163L83.2508 62.8023C83.2372 63.2789 83.2032 63.6841 83.1487 64.0177C83.0942 64.3446 83.0023 64.634 82.8729 64.8859C82.7435 65.1379 82.5903 65.3387 82.4133 65.4885C82.2363 65.6315 81.9979 65.7507 81.6983 65.846C81.3987 65.9414 81.0685 66.0026 80.7076 66.0299C80.3467 66.0639 79.9007 66.0809 79.3696 66.0809C78.6887 66.0809 78.0962 66.0401 77.5924 65.9584C77.0885 65.8835 76.6561 65.7881 76.2952 65.6724C75.9411 65.5566 75.6483 65.3694 75.4168 65.1106C75.1853 64.8451 75.0014 64.5931 74.8653 64.3548C74.7359 64.1165 74.6406 63.7658 74.5793 63.3028C74.518 62.8397 74.4771 62.421 74.4567 62.0465C74.4431 61.6652 74.4363 61.1408 74.4363 60.4735C74.4363 59.5339 74.4465 58.8019 74.4669 58.2776C74.4942 57.7532 74.5623 57.2289 74.6712 56.7046C74.7801 56.1735 74.9265 55.7888 75.1104 55.5505C75.2942 55.3121 75.5666 55.0908 75.9275 54.8866C76.2884 54.6823 76.714 54.5529 77.2042 54.4984C77.6945 54.4372 78.3175 54.4065 79.0734 54.4065C79.5977 54.4065 80.0505 54.4235 80.4318 54.4576C80.8131 54.4848 81.1638 54.5461 81.4838 54.6414C81.8039 54.7368 82.066 54.8457 82.2703 54.9683C82.4814 55.0908 82.6652 55.2713 82.8219 55.5096C82.9853 55.7479 83.1078 55.9965 83.1896 56.2552C83.2781 56.5072 83.3496 56.8442 83.404 57.2664C83.4585 57.6886 83.4926 58.1175 83.5062 58.5533C83.5198 58.9823 83.5266 59.5202 83.5266 60.1671ZM76.4484 59.2377H81.5145C81.5009 58.3661 81.4668 57.5694 81.4123 56.8476C81.3851 56.4323 81.2047 56.1565 80.871 56.0203C80.5442 55.8773 79.9415 55.8058 79.0632 55.8058C78.0894 55.8058 77.4732 55.8603 77.2145 55.9692C77.0987 56.0033 76.9966 56.0646 76.908 56.1531C76.8263 56.2348 76.7582 56.354 76.7038 56.5106C76.6493 56.6672 76.605 56.8136 76.571 56.9498C76.5437 57.0859 76.5199 57.2766 76.4995 57.5217C76.4859 57.7601 76.4756 57.9473 76.4688 58.0835C76.462 58.2129 76.4552 58.4137 76.4484 58.6861C76.4484 58.9585 76.4484 59.1423 76.4484 59.2377ZM90.6865 64.508L90.6457 65.9379C90.0737 66.0333 89.5562 66.0809 89.0932 66.0809C88.5961 66.0809 88.1841 66.0265 87.8573 65.9175C87.5373 65.8086 87.2955 65.6349 87.1321 65.3966C86.9687 65.1583 86.8563 64.8961 86.795 64.6101C86.7338 64.3174 86.7031 63.9462 86.7031 63.4968V55.8671H85.1813V54.7231H86.7031V51.5364L88.705 51.373V54.7231H90.7682V55.8671H88.705V62.8125C88.705 63.5479 88.7391 64.0246 88.8072 64.2424C88.8821 64.4603 89.0795 64.5693 89.3996 64.5693C89.7128 64.5693 90.1418 64.5489 90.6865 64.508ZM95.7424 64.7327C95.7424 65.2162 95.6028 65.5907 95.3236 65.8562C95.0512 66.115 94.721 66.2444 94.3329 66.2444C93.9447 66.2444 93.6043 66.1116 93.3115 65.846C93.0187 65.5737 92.8723 65.2026 92.8723 64.7327C92.8723 64.2561 93.0085 63.8884 93.2808 63.6296C93.56 63.3641 93.8903 63.2313 94.2716 63.2313C94.6665 63.2313 95.0104 63.3675 95.3032 63.6398C95.596 63.9054 95.7424 64.2697 95.7424 64.7327Z" fill="black"/>
</svg>
