<svg width="751" height="837" viewBox="0 0 751 837" fill="none" xmlns="http://www.w3.org/2000/svg">
<g opacity="0.5" clip-path="url(#clip0)">
<path d="M127.069 825.815H225.304C227.315 825.815 228.96 824.169 228.96 822.157V697.461C228.96 695.449 227.315 693.804 225.304 693.804H144.243C142.232 693.804 140.587 692.158 140.587 690.147V639.538C140.587 637.526 142.232 635.881 144.243 635.881H180.832C182.843 635.881 184.489 637.526 184.489 639.538V717.679C184.489 719.691 182.843 721.336 180.832 721.336H122.566C120.555 721.336 118.91 719.691 118.91 717.679V639.538C118.91 637.526 117.264 635.881 115.253 635.881H102.858C100.847 635.881 99.2019 637.526 99.2019 639.538V718.264C99.2019 720.276 97.5566 721.922 95.5456 721.922H82.6961C80.6851 721.922 79.0398 720.276 79.0398 718.264V639.538C79.0398 637.526 77.3944 635.881 75.3834 635.881H67.5641C65.5531 635.881 63.9077 637.526 63.9077 639.538V717.387C63.9077 719.398 62.2624 721.044 60.2514 721.044H47.7676C45.7566 721.044 44.1112 719.398 44.1112 717.387V532.327C44.1112 530.316 45.7566 528.67 47.7676 528.67H98.455" stroke="#A4E1EA" stroke-width="5" stroke-miterlimit="10"/>
<path d="M203.873 592.988H29.5902C26.7174 592.988 24.3669 590.637 24.3669 587.764V430.221C24.3669 427.348 22.0164 424.997 19.1435 424.997H6.52914C3.6563 424.997 1.30579 427.348 1.30579 430.221V441.903C1.30579 444.776 3.6563 447.127 6.52914 447.127H211.541C214.413 447.127 216.764 449.478 216.764 452.352V471.463C216.764 474.336 214.413 476.687 211.541 476.687H137.776C134.904 476.687 132.553 474.336 132.553 471.463V441.798C132.553 438.925 134.904 436.574 137.776 436.574H153.713C156.586 436.574 158.936 438.925 158.936 441.798V500.85" stroke="#A4E1EA" stroke-width="5" stroke-miterlimit="10"/>
<path d="M209.096 579.274C206.223 579.274 203.836 581.625 203.794 584.498L203.094 632.375C203.053 635.249 205.367 637.641 208.239 637.699C208.239 637.699 267.383 638.817 267.383 637.6C267.383 636.382 267.383 584.498 267.383 584.498C267.383 581.625 265.033 579.274 262.16 579.274H209.096Z" stroke="#A4E1EA" stroke-width="5" stroke-miterlimit="10"/>
<path d="M237.417 509.58H275.187" stroke="#A4E1EA" stroke-width="5" stroke-miterlimit="10"/>
<path d="M237.417 524.997H275.187" stroke="#A4E1EA" stroke-width="5" stroke-miterlimit="10"/>
<path d="M237.417 539.166H275.187" stroke="#A4E1EA" stroke-width="5" stroke-miterlimit="10"/>
<path d="M280.411 484.341C277.538 484.341 275.187 486.692 275.187 489.565V544.046C275.187 546.919 277.538 549.27 280.411 549.27H282.667C285.54 549.27 290.241 549.27 293.114 549.27H295.658C298.53 549.27 300.881 546.919 300.881 544.046V489.565C300.881 486.692 298.53 484.341 295.658 484.341H280.411Z" stroke="#A4E1EA" stroke-width="5" stroke-miterlimit="10"/>
<path d="M287.89 549.27V654.991C287.89 657.865 287.89 662.494 287.89 665.273C287.89 668.053 290.241 670.33 293.114 670.33H361.456M228.955 749.36H392.274C395.147 749.36 397.497 747.009 397.497 744.136V691.714" stroke="#A4E1EA" stroke-width="5" stroke-miterlimit="10"/>
<path d="M530.609 807.132H234.179C231.306 807.132 228.955 809.19 228.955 811.703C228.955 814.216 228.955 816.275 228.955 816.275" stroke="#A4E1EA" stroke-width="5" stroke-miterlimit="10"/>
<path d="M300.886 507.61H324.981C327.854 507.61 330.205 505.259 330.205 502.386V480.929C330.205 478.056 332.555 475.705 335.428 475.705H386.314C389.187 475.705 391.537 478.056 391.537 480.929V481.755C391.537 484.628 389.187 486.979 386.314 486.979H360.74C357.868 486.979 355.517 489.33 355.517 492.204V541.898C355.517 544.772 357.868 547.123 360.74 547.123H385.447C388.32 547.123 390.67 549.401 390.67 552.18C390.67 554.959 388.32 557.237 385.447 557.237H334.702C331.829 557.237 329.479 559.16 329.479 561.506C329.479 563.851 331.829 565.774 334.702 565.774H410.906C413.778 565.774 416.129 568.125 416.129 570.998V573.569C416.129 576.442 413.778 578.793 410.906 578.793H362.125C359.252 578.793 356.901 580.59 356.901 582.779C356.901 584.974 359.252 586.766 362.125 586.766H435.053C437.926 586.766 440.276 589.117 440.276 591.99V619.638C440.276 622.511 437.926 624.862 435.053 624.862H321.685C318.813 624.862 316.462 622.511 316.462 619.638V615.265C316.462 612.391 318.813 610.04 321.685 610.04H329.395C332.268 610.04 334.618 612.391 334.618 615.265V717.094C334.618 719.968 332.268 722.319 329.395 722.319H325.237C322.364 722.319 320.014 724.67 320.014 727.543V820.371C320.014 823.244 322.364 825.595 325.237 825.595H331.808C334.681 825.595 337.032 823.244 337.032 820.371V783.052C337.032 780.179 339.382 777.828 342.255 777.828H418.986C421.859 777.828 424.209 780.179 424.209 783.052V819.164C424.209 822.037 426.56 824.388 429.433 824.388H437.618C440.491 824.388 442.841 822.037 442.841 819.164V756.727C442.841 753.853 445.192 751.502 448.064 751.502H454.74C457.613 751.502 459.963 753.853 459.963 756.727V819.164C459.963 822.037 462.314 824.388 465.187 824.388H473.931C476.803 824.388 479.154 822.037 479.154 819.164V704.446C479.154 701.572 476.803 699.221 473.931 699.221H468.587C465.714 699.221 463.364 701.572 463.364 704.446V726.681C463.364 729.554 465.714 731.905 468.587 731.905H521.714C524.587 731.905 526.937 729.554 526.937 726.681V724.852C526.937 721.979 524.587 719.628 521.714 719.628H402.898C400.025 719.628 397.675 721.833 397.675 724.523C397.675 727.214 397.675 729.419 397.675 729.419" stroke="#A4E1EA" stroke-width="5" stroke-miterlimit="10"/>
<path d="M111.148 329.875V407.625C111.148 410.499 113.498 412.85 116.371 412.85H265.482" stroke="#A4E1EA" stroke-width="5" stroke-miterlimit="10"/>
<path d="M265.482 394.01H99.1079C96.235 394.01 93.8845 391.66 93.8845 388.786V332.331" stroke="#A4E1EA" stroke-width="5" stroke-miterlimit="10"/>
<path d="M265.482 376.848H88.0554C85.1825 376.848 82.832 374.497 82.832 371.624V292.176C82.832 289.303 80.4815 286.952 77.6087 286.952H53.8215C50.9487 286.952 48.5981 289.303 48.5981 292.176V312.698C48.5981 315.571 50.9487 317.922 53.8215 317.922H244.803C247.676 317.922 250.026 315.571 250.026 312.698V286.016C250.026 283.143 247.676 280.792 244.803 280.792H235.652" stroke="#A4E1EA" stroke-width="5" stroke-miterlimit="10"/>
<path d="M140.143 262.386C140.064 263.943 140.137 335.711 140.137 335.711C140.143 338.585 142.493 340.936 145.366 340.936H174.575C177.448 340.936 179.798 338.585 179.798 335.711V317.922" stroke="#A4E1EA" stroke-width="5" stroke-miterlimit="10"/>
<path d="M260.092 174.255V216.349C260.092 219.222 262.442 221.573 265.315 221.573H295.762C298.635 221.573 300.985 223.924 300.985 226.798V292.892C300.985 295.765 298.635 298.116 295.762 298.116H250.037" stroke="#A4E1EA" stroke-width="5" stroke-miterlimit="10"/>
<path d="M248.992 167.798H127.936C125.063 167.798 122.712 165.447 122.712 162.574V63.9521" stroke="#A4E1EA" stroke-width="5" stroke-miterlimit="10"/>
<path d="M154.272 136.154V92.5403C154.272 89.6669 156.622 87.2584 159.495 87.1853C159.495 87.1853 186.312 86.527 186.312 87.3159C186.312 88.1048 186.312 150.61 186.312 150.61C186.312 153.483 183.961 155.834 181.088 155.834H62.0117C59.1388 155.834 56.7883 158.185 56.7883 161.059V176.309C56.7883 179.182 59.1388 181.533 62.0117 181.533H199.396C202.269 181.533 204.62 179.182 204.62 176.309V141.378C204.62 138.505 202.269 136.154 199.396 136.154H75.9058C73.033 136.154 70.6825 133.803 70.6825 130.929V113.579C70.6825 110.706 73.033 108.355 75.9058 108.355H122.712" stroke="#A4E1EA" stroke-width="5" stroke-miterlimit="10"/>
<path d="M259.815 160.677V78.9672C259.815 76.0938 262.165 73.7428 265.038 73.7428H340.312C343.185 73.7428 345.535 76.0938 345.535 78.9672V180.817" stroke="#A4E1EA" stroke-width="5" stroke-miterlimit="10"/>
<path d="M345.53 195.373V437.034C345.53 439.907 347.881 442.258 350.753 442.258H567.559" stroke="#A4E1EA" stroke-width="5" stroke-miterlimit="10"/>
<path d="M450.18 74.3645H430.43C427.558 74.3645 425.207 76.7155 425.207 79.5889V190.143C425.207 193.016 427.558 195.367 430.43 195.367H504.764C507.637 195.367 509.987 193.016 509.987 190.143V135.438C509.987 132.565 507.679 129.764 504.858 129.216C504.858 129.216 494.798 127.262 494.798 130.214C494.798 133.165 494.798 261.634 494.798 261.634C494.798 264.507 497.148 266.858 500.021 266.858H513.456C516.328 266.858 518.679 264.507 518.679 261.634V261.415C518.679 258.541 516.328 256.19 513.456 256.19H422.073C419.2 256.19 416.85 253.839 416.85 250.966V226.406C416.85 223.532 419.2 221.181 422.073 221.181H466.054C468.927 221.181 471.277 223.532 471.277 226.406V307.196C471.277 310.07 468.927 312.421 466.054 312.421H345.53" stroke="#A4E1EA" stroke-width="5" stroke-miterlimit="10"/>
<path d="M571.743 421.052C568.87 421.052 566.52 423.403 566.52 426.277V469.237C566.52 472.11 568.87 474.461 571.743 474.461H577.609C580.482 474.461 582.832 472.11 582.832 469.237V426.277C582.832 423.403 580.482 421.052 577.609 421.052H571.743Z" stroke="#A4E1EA" stroke-width="5" stroke-miterlimit="10"/>
<path d="M743.21 95.5599V125.757C743.21 128.631 740.86 130.982 737.987 130.982H665.602C662.729 130.982 660.378 133.333 660.378 136.206V232.894C660.378 235.768 662.729 238.119 665.602 238.119H683.471C686.344 238.119 688.694 235.768 688.694 232.894V177.583C688.694 174.71 686.344 172.359 683.471 172.359H633.849C630.976 172.359 628.625 174.71 628.625 177.583V276.127C628.625 279 626.275 281.351 623.402 281.351H585.585C582.712 281.351 580.362 279 580.362 276.127V109.87C580.362 106.996 582.712 104.645 585.585 104.645H604.353C607.225 104.645 609.576 106.996 609.576 109.87V340.956C609.576 343.83 611.926 346.181 614.799 346.181H638.602C641.475 346.181 643.825 343.83 643.825 340.956V332.921C643.825 330.048 641.475 327.697 638.602 327.697H504.383C501.51 327.697 499.159 325.346 499.159 322.472V292.934C499.159 290.06 501.51 287.709 504.383 287.709H550.547C553.42 287.709 555.77 290.06 555.77 292.934V381.832C555.77 384.706 558.121 387.057 560.993 387.057H615.625C618.497 387.057 620.848 384.706 620.848 381.832V374.116C620.848 371.242 618.497 368.891 615.625 368.891H579.902C577.029 368.891 574.679 371.242 574.679 374.116V419.527" stroke="#A4E1EA" stroke-width="5" stroke-miterlimit="10"/>
<path d="M715.396 393.645V405.212C715.396 408.085 713.045 410.436 710.172 410.436H641.115C638.242 410.436 635.891 412.369 635.891 414.731C635.891 417.092 638.242 419.025 641.115 419.025H747.159C750.032 419.025 752.382 421.376 752.382 424.249V424.265C752.382 427.139 750.032 429.49 747.159 429.49H583.041" stroke="#A4E1EA" stroke-width="5" stroke-miterlimit="10"/>
<path d="M778.718 95.5599V191.768C778.718 194.641 781.069 196.992 783.942 196.992H833.407C836.28 196.992 838.63 194.641 838.63 191.768V177.521C838.63 174.647 836.28 172.296 833.407 172.296H743.21C740.337 172.296 737.987 174.647 737.987 177.521V219.938C737.987 222.811 740.337 225.162 743.21 225.162H798.458C801.33 225.162 803.681 227.513 803.681 230.387V295.237" stroke="#A4E1EA" stroke-width="5" stroke-miterlimit="10"/>
<path d="M712.836 806.155H773.307C776.18 806.155 778.557 803.804 778.588 800.931L780.03 672.54C780.061 669.667 777.737 667.316 774.864 667.316H734.607C731.735 667.316 729.384 669.667 729.384 672.54V743.289C729.384 746.163 731.735 748.514 734.607 748.514H852.901" stroke="#A4E1EA" stroke-width="5" stroke-miterlimit="10"/>
<path d="M594.094 608.458V595.386C594.094 592.513 592.255 590.162 590.014 590.162C587.774 590.162 585.935 592.513 585.935 595.386V616.111C585.935 618.985 588.286 621.336 591.158 621.336H777.178" stroke="#A4E1EA" stroke-width="5" stroke-miterlimit="10"/>
<path d="M722.442 577.665H841.211C844.084 577.665 846.434 580.016 846.434 582.889V636.946C846.434 639.82 844.084 642.171 841.211 642.171H782.401C779.528 642.171 777.178 639.82 777.178 636.946V542.609C777.178 539.735 779.528 537.384 782.401 537.384H844.533" stroke="#A4E1EA" stroke-width="5" stroke-miterlimit="10"/>
<path d="M774.801 476.953V507.579C774.801 510.453 772.45 512.804 769.578 512.804H755.762C752.889 512.804 750.538 515.154 750.538 518.028V572.44C750.538 575.314 748.188 577.665 745.315 577.665H738.321" stroke="#A4E1EA" stroke-width="5" stroke-miterlimit="10"/>
<path d="M538.016 645.42L638.189 679.99" stroke="#A4E1EA" stroke-width="5" stroke-miterlimit="10"/>
<path d="M515.195 670.022L620.597 732.647" stroke="#A4E1EA" stroke-width="5" stroke-miterlimit="10"/>
<path d="M533.116 573.214L499.133 631.184" stroke="#A4E1EA" stroke-width="5" stroke-miterlimit="10"/>
<path d="M550.839 577.973C550.959 577.968 538.016 645.42 538.016 645.42" stroke="#A4E1EA" stroke-width="5" stroke-miterlimit="10"/>
<path d="M558.246 565.852C558.037 565.497 604.201 509.308 604.201 509.308" stroke="#A4E1EA" stroke-width="5" stroke-miterlimit="10"/>
<path d="M380.224 508.88L531.293 567.973" stroke="#A4E1EA" stroke-width="5" stroke-miterlimit="10"/>
<path d="M569.539 475.078C569.539 475.078 569.539 475.872 569.539 476.849C569.539 477.826 571.675 478.62 574.282 478.62C576.888 478.62 579.024 477.685 579.024 476.546C579.024 475.402 579.024 474.472 579.024 474.472" stroke="#A4E1EA" stroke-width="5" stroke-miterlimit="10"/>
<path d="M367.217 502.605C367.207 498.917 370.487 495.897 374.509 495.897H605.099C609.121 495.897 612.412 498.917 612.412 502.605C612.412 506.294 609.121 509.314 605.099 509.314H374.551C370.529 509.308 367.228 506.294 367.217 502.605Z" stroke="#A4E1EA" stroke-width="5" stroke-miterlimit="10"/>
<path d="M413.428 689.256C412.048 689.256 410.928 690.375 410.928 691.756C410.928 693.137 412.048 694.256 413.428 694.256V689.256ZM366.575 634.196C362.321 634.196 358.852 637.666 358.852 641.92H363.852C363.852 640.427 365.083 639.196 366.575 639.196V634.196ZM358.852 641.92V686.531H363.852V641.92H358.852ZM358.852 686.531C358.852 690.785 362.321 694.256 366.575 694.256V689.256C365.083 689.256 363.852 688.025 363.852 686.531H358.852ZM432.988 641.92C432.988 637.666 429.519 634.196 425.265 634.196V639.196C426.756 639.196 427.988 640.427 427.988 641.92H432.988ZM425.265 634.196H366.575V639.196H425.265V634.196ZM366.575 694.256H413.243V689.256H366.575V694.256ZM432.988 667.421V641.92H427.988V667.421H432.988ZM413.428 694.256H425.265V689.256H413.428V694.256Z" fill="#A4E1EA"/>
<path d="M372.242 645.19C371.38 645.19 370.675 645.896 370.675 646.758V651.904C370.675 652.766 371.38 653.471 372.242 653.471H377.998C378.86 653.471 379.565 652.766 379.565 651.904V646.758C379.565 645.896 378.86 645.19 377.998 645.19H372.242Z" stroke="#A4E1EA" stroke-width="5" stroke-miterlimit="10"/>
<path d="M372.242 660.665C371.38 660.665 370.675 661.37 370.675 662.232V667.379C370.675 668.241 371.38 668.946 372.242 668.946H377.998C378.86 668.946 379.565 668.241 379.565 667.379V662.232C379.565 661.37 378.86 660.665 377.998 660.665H372.242Z" stroke="#A4E1EA" stroke-width="5" stroke-miterlimit="10"/>
<path d="M372.242 676.14C371.38 676.14 370.675 676.845 370.675 677.707V682.853C370.675 683.715 371.38 684.421 372.242 684.421H377.998C378.86 684.421 379.565 683.715 379.565 682.853V677.707C379.565 676.845 378.86 676.14 377.998 676.14H372.242Z" stroke="#A4E1EA" stroke-width="5" stroke-miterlimit="10"/>
<path d="M223.293 579.274V637.918" stroke="#A4E1EA" stroke-width="5" stroke-miterlimit="10"/>
<path d="M267.389 611.117H223.293" stroke="#A4E1EA" stroke-width="5" stroke-miterlimit="10"/>
<path d="M223.293 586.839H267.389" stroke="#A4E1EA" stroke-width="5" stroke-miterlimit="10"/>
<path d="M497.441 414.229H438.501M424.398 414.229H406.795C403.922 414.229 401.572 411.878 401.572 409.005V359.284C401.572 356.41 403.922 354.059 406.795 354.059H497.441C500.314 354.059 502.664 356.41 502.664 359.284V393.661" stroke="#A4E1EA" stroke-width="5" stroke-miterlimit="10"/>
<path d="M643.622 575.21V551.84C643.622 548.967 645.972 546.616 648.845 546.616H716.033C718.906 546.616 721.256 548.967 721.256 551.84V601.687C721.256 604.56 718.906 606.911 716.033 606.911H648.845C645.972 606.911 643.622 604.56 643.622 601.687V580.173" stroke="#A4E1EA" stroke-width="5" stroke-miterlimit="10"/>
<path d="M721.168 567.77C721.168 567.77 721.168 565.993 721.168 563.82C721.168 561.647 718.817 559.87 715.944 559.87H648.845C645.972 559.87 643.622 562.122 643.622 564.875C643.622 567.629 643.622 569.88 643.622 569.88" stroke="#A4E1EA" stroke-width="5" stroke-miterlimit="10"/>
<path d="M65.2919 817.862C50.6185 819.375 40.4915 822.592 40.4915 826.316C40.4915 831.495 60.0817 835.694 84.2475 835.694C108.413 835.694 128.004 831.495 128.004 826.316C128.004 822.7 118.455 819.562 104.467 817.997M79.9173 816.984C81.3418 816.954 82.7863 816.938 84.2475 816.938C85.7087 816.938 87.1532 816.954 88.5777 816.984M94.5427 817.199C95.7829 817.263 97.0025 817.339 98.1991 817.425" stroke="#A4E1EA" stroke-width="5" stroke-miterlimit="10"/>
<path d="M237.699 768.617H217.699C214.252 768.617 211.431 765.796 211.431 762.348V742.344C211.431 738.896 214.252 736.075 217.699 736.075H237.699C241.147 736.075 243.967 738.896 243.967 742.344V762.348C243.967 765.796 241.147 768.617 237.699 768.617Z" stroke="#A4E1EA" stroke-width="5" stroke-miterlimit="10"/>
<path d="M289.578 682.326C297.014 682.326 303.043 676.296 303.043 668.857C303.043 661.419 297.014 655.388 289.578 655.388C282.141 655.388 276.112 661.419 276.112 668.857C276.112 676.296 282.141 682.326 289.578 682.326Z" stroke="#A4E1EA" stroke-width="5" stroke-miterlimit="10"/>
<path d="M138.158 533.937C145.23 533.091 148.139 533.31 157.223 533.168M120.921 536.658C114.677 538.098 110.986 539.878 110.986 541.804C110.986 543.382 113.461 544.862 117.787 546.136M129.017 548.424C135.425 549.348 143.193 550.008 151.738 550.303M166.103 550.448C174.075 550.338 181.529 549.916 188.041 549.253M163.752 533.153C176.824 533.22 188.397 534.107 197.203 535.546M204.756 537.103C209.898 538.458 212.883 540.072 212.883 541.804C212.883 543.623 209.594 545.311 203.972 546.706" stroke="#A4E1EA" stroke-width="5" stroke-miterlimit="10"/>
<path d="M544.759 579.467C552.589 579.467 558.935 573.119 558.935 565.288C558.935 557.457 552.589 551.109 544.759 551.109C536.93 551.109 530.583 557.457 530.583 565.288C530.583 573.119 536.93 579.467 544.759 579.467Z" stroke="#A4E1EA" stroke-width="5" stroke-miterlimit="10"/>
<path d="M514.955 658.56C521.071 658.56 526.028 653.601 526.028 647.484C526.028 641.367 521.071 636.408 514.955 636.408C508.839 636.408 503.881 641.367 503.881 647.484C503.881 653.601 508.839 658.56 514.955 658.56Z" stroke="#A4E1EA" stroke-width="5" stroke-miterlimit="10"/>
<path d="M544.132 570.22C546.605 570.22 548.609 568.215 548.609 565.743C548.609 563.27 546.605 561.265 544.132 561.265C541.66 561.265 539.656 563.27 539.656 565.743C539.656 568.215 541.66 570.22 544.132 570.22Z" stroke="#A4E1EA" stroke-width="5" stroke-miterlimit="10"/>
<path d="M515.284 670.069C527.879 670.069 538.089 659.857 538.089 647.259C538.089 634.662 527.879 624.449 515.284 624.449C502.689 624.449 492.479 634.662 492.479 647.259C492.479 659.857 502.689 670.069 515.284 670.069Z" stroke="#A4E1EA" stroke-width="5" stroke-miterlimit="10"/>
<path d="M578.748 795.927C549.65 797.861 529.81 801.716 529.81 806.155C529.81 812.535 570.782 817.706 621.323 817.706C671.865 817.706 712.836 812.535 712.836 806.155C712.836 802.63 700.326 799.473 680.603 797.355M594.94 795.091C603.294 794.774 612.151 794.604 621.323 794.604C629.165 794.604 636.776 794.728 644.04 794.962M650.569 795.206C656.331 795.451 661.837 795.767 667.022 796.145M670.94 796.447C672.908 796.608 674.825 796.778 676.685 796.957M585.277 795.534C586.482 795.469 587.701 795.407 588.933 795.348L585.277 795.534Z" stroke="#A4E1EA" stroke-width="5" stroke-miterlimit="10"/>
<path d="M507.449 65.8208C504.621 65.7258 501.709 65.6763 498.736 65.6763C494.438 65.6763 490.269 65.7798 486.294 65.9744M522.335 66.807C537.627 68.3801 547.998 71.4344 547.998 74.9444C547.998 80.063 525.943 84.2125 498.736 84.2125C471.53 84.2125 449.475 80.063 449.475 74.9444C449.475 71.7918 457.841 69.0069 470.624 67.3326M476.631 66.6595C477.739 66.5546 478.872 66.4574 480.026 66.3682" stroke="#A4E1EA" stroke-width="5" stroke-miterlimit="10"/>
<path d="M698.362 66.2758C673.626 69.1926 657.693 73.7669 657.693 78.9098C657.693 87.7188 704.439 94.8599 762.103 94.8599C819.767 94.8599 866.513 87.7188 866.513 78.9098C866.513 73.1563 846.571 68.1143 816.671 65.3087M710.376 65.0515C716.304 64.5339 722.597 64.1026 729.18 63.7687M736.754 63.4329C739.752 63.3187 742.801 63.2243 745.895 63.1506M756.864 62.9793C758.599 62.9662 760.346 62.9596 762.103 62.9596C763.322 62.9596 764.535 62.9628 765.744 62.9691M777.496 63.1317C782.312 63.2404 787.021 63.3994 791.599 63.605M797.867 63.9199C802.093 64.1553 806.453 64.4697 810.403 64.783" stroke="#A4E1EA" stroke-width="5" stroke-miterlimit="10"/>
<path d="M285.686 484.341C285.686 484.341 282.213 472.905 295.146 460.136C308.079 447.368 293.203 436.516 288.037 431.12C283.033 425.89 280.296 420.66 295.146 403.044C309.99 385.427 288.674 369.033 287.896 357.972C287.112 346.912 291.97 337.075 297.569 342.304C303.169 347.534 303.231 359.623 291.291 377.951C279.35 396.278 285.582 398.739 295.872 419.537C295.872 419.537 299.434 426.12 286.214 447.477C280.661 456.448 291.589 466.061 294.185 474.268C296.274 480.872 294.456 481.906 294.185 483.839" stroke="#A4E1EA" stroke-width="5" stroke-miterlimit="10"/>
<path d="M294.905 354.002C296.904 354.002 298.525 352.381 298.525 350.381C298.525 348.382 296.904 346.761 294.905 346.761C292.906 346.761 291.286 348.382 291.286 350.381C291.286 352.381 292.906 354.002 294.905 354.002Z" stroke="#A4E1EA" stroke-width="5" stroke-miterlimit="10"/>
<path d="M376.014 506.236C378.065 506.236 379.727 504.573 379.727 502.522C379.727 500.47 378.065 498.807 376.014 498.807C373.963 498.807 372.3 500.47 372.3 502.522C372.3 504.573 373.963 506.236 376.014 506.236Z" stroke="#A4E1EA" stroke-width="4" stroke-miterlimit="10"/>
<path d="M396.62 506.263C398.677 506.263 400.344 504.595 400.344 502.538C400.344 500.48 398.677 498.812 396.62 498.812C394.563 498.812 392.896 500.48 392.896 502.538C392.896 504.595 394.563 506.263 396.62 506.263Z" stroke="#A4E1EA" stroke-width="4" stroke-miterlimit="10"/>
<path d="M417.226 506.294C419.289 506.294 420.961 504.622 420.961 502.558C420.961 500.495 419.289 498.823 417.226 498.823C415.163 498.823 413.491 500.495 413.491 502.558C413.491 504.622 415.163 506.294 417.226 506.294Z" stroke="#A4E1EA" stroke-width="4" stroke-miterlimit="10"/>
<path d="M437.837 506.32C439.903 506.32 441.577 504.645 441.577 502.579C441.577 500.513 439.903 498.839 437.837 498.839C435.772 498.839 434.097 500.513 434.097 502.579C434.097 504.645 435.772 506.32 437.837 506.32Z" stroke="#A4E1EA" stroke-width="4" stroke-miterlimit="10"/>
<path d="M458.443 506.346C460.515 506.346 462.194 504.667 462.194 502.595C462.194 500.523 460.515 498.844 458.443 498.844C456.372 498.844 454.693 500.523 454.693 502.595C454.693 504.667 456.372 506.346 458.443 506.346Z" stroke="#A4E1EA" stroke-width="4" stroke-miterlimit="10"/>
<path d="M479.05 506.377C481.127 506.377 482.81 504.693 482.81 502.616C482.81 500.538 481.127 498.854 479.05 498.854C476.972 498.854 475.289 500.538 475.289 502.616C475.289 504.693 476.972 506.377 479.05 506.377Z" stroke="#A4E1EA" stroke-width="4" stroke-miterlimit="10"/>
<path d="M499.656 506.404C501.738 506.404 503.427 504.715 503.427 502.632C503.427 500.548 501.738 498.859 499.656 498.859C497.573 498.859 495.884 500.548 495.884 502.632C495.884 504.715 497.573 506.404 499.656 506.404Z" stroke="#A4E1EA" stroke-width="4" stroke-miterlimit="10"/>
<path d="M520.262 506.43C522.347 506.43 524.038 504.738 524.038 502.652C524.038 500.566 522.347 498.875 520.262 498.875C518.176 498.875 516.485 500.566 516.485 502.652C516.485 504.738 518.176 506.43 520.262 506.43Z" stroke="#A4E1EA" stroke-width="4" stroke-miterlimit="10"/>
<path d="M540.873 506.461C542.965 506.461 544.66 504.765 544.66 502.673C544.66 500.581 542.965 498.886 540.873 498.886C538.782 498.886 537.086 500.581 537.086 502.673C537.086 504.765 538.782 506.461 540.873 506.461Z" stroke="#A4E1EA" stroke-width="4" stroke-miterlimit="10"/>
<path d="M561.479 506.487C563.576 506.487 565.277 504.787 565.277 502.689C565.277 500.591 563.576 498.891 561.479 498.891C559.382 498.891 557.682 500.591 557.682 502.689C557.682 504.787 559.382 506.487 561.479 506.487Z" stroke="#A4E1EA" stroke-width="4" stroke-miterlimit="10"/>
<path d="M582.085 506.519C584.188 506.519 585.893 504.813 585.893 502.71C585.893 500.607 584.188 498.901 582.085 498.901C579.982 498.901 578.278 500.607 578.278 502.71C578.278 504.813 579.982 506.519 582.085 506.519Z" stroke="#A4E1EA" stroke-width="4" stroke-miterlimit="10"/>
<path d="M602.692 506.539C604.797 506.539 606.505 504.832 606.505 502.726C606.505 500.619 604.797 498.912 602.692 498.912C600.586 498.912 598.879 500.619 598.879 502.726C598.879 504.832 600.586 506.539 602.692 506.539Z" stroke="#A4E1EA" stroke-width="4" stroke-miterlimit="10"/>
<path d="M230.308 274.575C229.133 274.575 228.015 274.982 227.012 275.635C226.004 276.288 225.142 277.485 223.852 277.485C223.105 277.485 222.092 277.103 221.946 276.273C221.726 275.019 221.956 273.457 221.956 272.166C221.956 270.636 221.956 269.11 221.956 267.579C221.956 265.678 221.956 263.776 221.956 261.88C221.956 259.868 220.311 258.217 218.294 258.217H208.892H208.229C206.552 258.217 204.306 258.578 204.306 256.148C204.306 254.983 205.231 254.356 205.842 253.494C206.578 252.449 206.975 251.19 206.975 249.916C206.975 246.473 204.186 243.683 200.744 243.683C197.302 243.683 194.512 246.473 194.512 249.916C194.512 251.034 194.815 252.136 195.385 253.092C196.038 254.184 197.422 254.994 197.422 256.373C197.422 256.859 197.27 257.491 196.91 257.872C196.45 258.353 195.891 258.222 195.28 258.222H193.254H191.828H183.183C181.172 258.222 179.521 259.868 179.521 261.885C179.521 266.08 179.553 270.275 179.521 274.47C179.516 275.458 179.777 275.965 180.806 276.2C181.256 276.304 181.736 276.278 182.175 276.127C182.269 276.095 183.371 275.453 183.282 275.369C184.421 274.157 186.035 273.389 187.827 273.389C191.269 273.389 194.058 276.179 194.058 279.622C194.058 283.065 191.269 285.854 187.827 285.854C186.688 285.854 185.513 285.51 184.52 284.893C183.533 284.277 182.864 283.185 181.595 283.185C178.743 283.185 179.521 286.941 179.521 288.822C179.521 291.424 179.521 294.031 179.521 296.632C179.521 297.233 179.521 297.839 179.521 298.44C179.521 300.451 181.167 302.102 183.183 302.102C185.1 302.102 187.012 302.102 188.929 302.102C190.386 302.102 191.838 302.102 193.295 302.102C194.304 302.102 196.142 302.238 196.685 301.899C197.845 301.162 197.417 299.265 196.633 298.403C195.395 297.035 194.512 295.682 194.512 293.748C194.512 290.306 197.302 287.516 200.744 287.516C204.186 287.516 206.975 290.306 206.975 293.748C206.975 294.981 206.573 296.204 205.894 297.228C205.283 298.153 204.306 298.764 204.306 299.981C204.306 300.77 204.719 301.569 205.429 301.951C206.093 302.306 206.845 302.102 207.56 302.108C209.013 302.123 210.47 302.108 211.922 302.108C214.048 302.108 216.174 302.108 218.3 302.108C220.311 302.108 221.961 300.462 221.961 298.445C221.961 294.37 221.987 290.285 221.94 286.215C221.93 285.097 223.037 284.376 224.082 284.376C225.283 284.376 226.015 285.389 226.913 286.016C227.89 286.706 229.128 287.04 230.313 287.04C233.756 287.04 236.545 284.25 236.545 280.808C236.545 277.365 233.75 274.575 230.308 274.575Z" stroke="#A4E1EA" stroke-width="5" stroke-miterlimit="10"/>
<path d="M146.108 255.804C146.108 254.628 145.7 253.51 145.047 252.507C144.394 251.499 143.198 250.637 143.198 249.346C143.198 248.599 143.58 247.586 144.41 247.439C145.664 247.22 147.225 247.45 148.516 247.45C150.046 247.45 151.571 247.45 153.102 247.45C155.003 247.45 156.904 247.45 158.8 247.45C160.811 247.45 162.462 245.804 162.462 243.787V234.383V233.72C162.462 232.043 162.102 229.796 164.53 229.796C165.695 229.796 166.322 230.721 167.184 231.332C168.229 232.069 169.487 232.466 170.762 232.466C174.204 232.466 176.993 229.676 176.993 226.233C176.993 222.79 174.204 220.001 170.762 220.001C169.644 220.001 168.542 220.304 167.586 220.873C166.494 221.526 165.685 222.911 164.306 222.911C163.82 222.911 163.188 222.759 162.807 222.399C162.326 221.939 162.457 221.38 162.457 220.769V218.741V217.315V208.669C162.457 206.657 160.811 205.006 158.795 205.006C154.601 205.006 150.406 205.038 146.212 205.006C145.225 205.001 144.718 205.262 144.483 206.292C144.379 206.741 144.405 207.222 144.556 207.66C144.588 207.755 145.23 208.857 145.314 208.768C146.525 209.907 147.293 211.521 147.293 213.313C147.293 216.756 144.504 219.546 141.062 219.546C137.62 219.546 134.83 216.756 134.83 213.313C134.83 212.174 135.175 210.999 135.791 210.006C136.408 209.019 137.5 208.35 137.5 207.081C137.5 204.228 133.744 205.006 131.864 205.006C129.262 205.006 126.656 205.006 124.055 205.006C123.454 205.006 122.848 205.006 122.247 205.006C120.236 205.006 118.586 206.652 118.586 208.669C118.586 210.586 118.586 212.498 118.586 214.416C118.586 215.873 118.586 217.326 118.586 218.783C118.586 219.792 118.45 221.631 118.789 222.174C119.526 223.334 121.422 222.905 122.284 222.122C123.652 220.884 125.005 220.001 126.938 220.001C130.38 220.001 133.169 222.79 133.169 226.233C133.169 229.676 130.38 232.466 126.938 232.466C125.705 232.466 124.483 232.064 123.459 231.385C122.535 230.773 121.923 229.796 120.706 229.796C119.918 229.796 119.119 230.209 118.737 230.92C118.382 231.583 118.586 232.335 118.581 233.051C118.565 234.504 118.581 235.961 118.581 237.414C118.581 239.54 118.581 241.666 118.581 243.793C118.581 245.804 120.226 247.455 122.242 247.455C126.316 247.455 130.401 247.481 134.47 247.434C135.588 247.424 136.309 248.531 136.309 249.576C136.309 250.778 135.295 251.509 134.668 252.408C133.979 253.385 133.645 254.623 133.645 255.809C133.645 259.252 136.434 262.042 139.876 262.042C143.318 262.036 146.108 259.246 146.108 255.804Z" stroke="#A4E1EA" stroke-width="5" stroke-miterlimit="10"/>
<path d="M663.032 784.996C662.906 785.336 662.765 785.66 662.614 785.978L663.559 789.808C663.648 790.242 663.711 790.471 663.423 790.706L658.701 794.614C658.414 794.855 658.216 794.787 657.793 794.583L654.33 792.99C653.525 793.219 652.695 793.371 651.854 793.439L649.017 796.166C648.688 796.453 648.521 796.626 648.171 796.495L642.426 794.358C642.076 794.228 642.034 794.024 641.997 793.554L641.642 789.756C641.041 789.165 640.498 788.523 640.023 787.833L636.236 786.741C635.818 786.6 635.588 786.543 635.525 786.172L634.502 780.127C634.439 779.756 634.596 779.62 634.982 779.354L638.095 777.149C638.215 776.689 638.357 776.23 638.529 775.77C638.654 775.43 638.795 775.106 638.947 774.788L638.001 770.958C637.913 770.53 637.85 770.3 638.137 770.06L642.859 766.152C643.146 765.911 643.345 765.979 643.768 766.183L647.231 767.776C648.035 767.547 648.866 767.395 649.707 767.327L652.543 764.6C652.872 764.313 653.039 764.14 653.389 764.271L659.135 766.408C659.485 766.538 659.527 766.742 659.563 767.212L659.919 771.01C660.519 771.601 661.062 772.243 661.538 772.933L665.325 774.025C665.743 774.166 665.972 774.223 666.035 774.594L666.5 778.178" stroke="#A4E1EA" stroke-width="5" stroke-miterlimit="10"/>
<path d="M709.117 319.453L708.172 315.623C708.323 315.305 708.464 314.981 708.59 314.641C708.762 314.181 708.903 313.722 709.023 313.262L712.136 311.057C712.523 310.791 712.68 310.655 712.617 310.284L711.593 304.239C711.53 303.868 711.301 303.811 710.883 303.67L707.096 302.578C706.621 301.888 706.077 301.246 705.477 300.655L705.121 296.857C705.085 296.387 705.043 296.183 704.693 296.053L698.947 293.916C698.597 293.785 698.43 293.958 698.101 294.245L695.265 296.972C694.424 297.04 693.593 297.191 692.789 297.421L689.326 295.828C688.903 295.624 688.704 295.556 688.417 295.797L683.695 299.704C683.408 299.945 683.471 300.175 683.559 300.603L684.505 304.433C684.353 304.751 684.212 305.075 684.087 305.415C683.915 305.874 683.774 306.334 683.653 306.794L680.54 308.999C680.154 309.265 679.997 309.401 680.06 309.772L681.084 315.817C681.146 316.187 681.376 316.245 681.794 316.386L685.581 317.478C686.056 318.168 686.599 318.81 687.2 319.401L687.555 323.199C687.592 323.669 687.634 323.873 687.984 324.003L693.729 326.14C694.079 326.271 694.246 326.098 694.575 325.811L697.412 323.084C698.253 323.016 699.083 322.864 699.888 322.634L703.351 324.228C703.774 324.432 703.972 324.5 704.26 324.259L708.981 320.351C709.269 320.116 709.206 319.886 709.117 319.453Z" stroke="#A4E1EA" stroke-width="5" stroke-miterlimit="10"/>
<path d="M779.027 375.396L777.904 371.619C778.039 371.295 778.165 370.96 778.274 370.621C778.426 370.156 778.546 369.691 778.645 369.221L781.654 366.875C782.03 366.593 782.181 366.447 782.103 366.081L780.803 360.088C780.724 359.723 780.489 359.67 780.066 359.55L776.237 358.631C775.731 357.967 775.161 357.346 774.529 356.787L774.002 353.009C773.944 352.544 773.897 352.341 773.537 352.226L767.697 350.355C767.342 350.24 767.18 350.418 766.867 350.726L764.161 353.584C763.325 353.694 762.5 353.882 761.706 354.148L758.17 352.717C757.736 352.534 757.538 352.476 757.261 352.727L752.722 356.849C752.445 357.1 752.518 357.33 752.628 357.753L753.751 361.53C753.615 361.854 753.49 362.189 753.38 362.528C753.229 362.993 753.108 363.458 753.009 363.928L750.001 366.274C749.624 366.556 749.473 366.702 749.551 367.068L750.852 373.061C750.93 373.426 751.165 373.479 751.588 373.599L755.417 374.518C755.924 375.182 756.493 375.803 757.125 376.362L757.653 380.14C757.71 380.605 757.757 380.808 758.118 380.923L763.957 382.794C764.312 382.909 764.474 382.731 764.788 382.423L767.493 379.565C768.329 379.455 769.155 379.267 769.948 379.001L773.485 380.432C773.918 380.615 774.117 380.673 774.394 380.422L778.933 376.3C779.204 376.049 779.131 375.824 779.027 375.396Z" stroke="#A4E1EA" stroke-width="5" stroke-miterlimit="10"/>
<path d="M599.145 772.651L600.414 768.931C599.84 767.855 599.369 766.716 599.014 765.53L595.567 763.9C595.18 763.696 594.961 763.602 594.956 763.226L594.909 757.092C594.909 756.716 595.086 756.612 595.509 756.408L599.035 754.674C599.396 753.488 599.871 752.349 600.451 751.278L599.166 747.688C599.035 747.271 598.952 747.046 599.213 746.779L603.512 742.412C603.773 742.145 603.976 742.198 604.42 742.354L608.139 743.624C609.215 743.049 610.354 742.579 611.54 742.224L613.17 738.776C613.373 738.389 613.467 738.17 613.843 738.164L619.976 738.117C620.352 738.117 620.456 738.295 620.66 738.718L622.394 742.245C623.58 742.605 624.718 743.081 625.789 743.66L629.378 742.375C629.795 742.245 630.02 742.161 630.286 742.422L634.653 746.722C634.92 746.983 634.867 747.187 634.711 747.631L633.441 751.351C634.016 752.427 634.486 753.566 634.841 754.752L638.289 756.382C638.675 756.586 638.895 756.68 638.9 757.056L638.947 763.189C638.947 763.566 638.769 763.67 638.346 763.874L634.82 765.608C634.46 766.794 633.985 767.933 633.405 769.004L634.69 772.593C634.82 773.011 634.904 773.236 634.643 773.502L630.344 777.87C630.083 778.136 629.879 778.084 629.435 777.927L625.716 776.658C624.64 777.233 623.501 777.703 622.316 778.058L620.686 781.506C620.482 781.893 620.388 782.112 620.012 782.117L613.88 782.164C613.504 782.164 613.399 781.987 613.196 781.564L611.462 778.037C610.276 777.677 609.137 777.201 608.066 776.621L604.478 777.907C604.06 778.037 603.835 778.121 603.569 777.86L600.414 774.753" stroke="#A4E1EA" stroke-width="5" stroke-miterlimit="10"/>
<path d="M753.485 326.871C753.479 326.495 753.26 326.401 752.873 326.197L749.426 324.567C749.071 323.381 748.601 322.243 748.026 321.166L749.295 317.447C749.452 317.002 749.504 316.799 749.238 316.538L744.871 312.238C744.605 311.977 744.38 312.06 743.962 312.191L740.374 313.476C739.303 312.896 738.164 312.421 736.979 312.06L735.245 308.534C735.041 308.111 734.936 307.933 734.56 307.933L728.428 307.98C728.052 307.985 727.958 308.205 727.754 308.591L726.125 312.039C724.939 312.395 723.8 312.865 722.724 313.439L719.005 312.17C718.561 312.013 718.357 311.961 718.096 312.227L713.797 316.595C713.536 316.861 713.62 317.086 713.75 317.504L715.035 321.093C714.456 322.164 713.98 323.303 713.62 324.489L710.094 326.224C709.671 326.427 709.493 326.532 709.493 326.908L709.54 333.041C709.546 333.418 709.765 333.512 710.151 333.715L713.599 335.345C713.954 336.531 714.424 337.67 714.999 338.747L713.73 342.466C713.573 342.91 713.521 343.114 713.787 343.375L718.154 347.675C718.42 347.936 718.645 347.853 719.063 347.722L722.651 346.437C723.722 347.017 724.861 347.492 726.046 347.853L727.78 351.379C727.984 351.802 728.089 351.98 728.465 351.98L734.597 351.933C734.973 351.928 735.067 351.708 735.271 351.322L736.9 347.874C738.086 347.518 739.225 347.048 740.301 346.473L744.02 347.743C744.464 347.9 744.668 347.952 744.929 347.686L749.228 343.318C749.489 343.051 749.405 342.827 749.274 342.409L747.99 338.82C748.569 337.749 749.045 336.61 749.405 335.424L752.931 333.689C753.354 333.486 753.532 333.381 753.532 333.005L753.485 326.871Z" stroke="#A4E1EA" stroke-width="5" stroke-miterlimit="10"/>
<path d="M775.501 285.243C775.496 284.867 775.276 284.773 774.89 284.569L771.442 282.939C771.087 281.753 770.617 280.614 770.043 279.538L771.312 275.818C771.469 275.374 771.521 275.171 771.254 274.909L766.888 270.61C766.621 270.348 766.397 270.432 765.979 270.563L762.39 271.848C761.32 271.268 760.181 270.792 758.995 270.432L757.261 266.905C757.057 266.482 756.953 266.305 756.577 266.305L750.444 266.352C750.068 266.357 749.974 266.576 749.771 266.963L748.141 270.411C746.955 270.766 745.817 271.237 744.741 271.811L741.022 270.542C740.578 270.385 740.374 270.333 740.113 270.599L735.814 274.967C735.553 275.233 735.636 275.458 735.767 275.876L737.052 279.465C736.472 280.536 735.997 281.675 735.636 282.861L732.11 284.595C731.687 284.799 731.51 284.904 731.51 285.28L731.557 291.413C731.562 291.789 731.781 291.883 732.168 292.087L735.615 293.717C735.971 294.903 736.441 296.042 737.015 297.118L735.746 300.838C735.589 301.282 735.537 301.486 735.803 301.747L740.17 306.047C740.437 306.308 740.661 306.225 741.079 306.094L744.667 304.809C745.738 305.389 746.877 305.864 748.063 306.225L749.797 309.751C750.001 310.174 750.105 310.352 750.481 310.352L756.613 310.305C756.989 310.3 757.083 310.08 757.287 309.694L758.917 306.245C760.103 305.89 761.241 305.42 762.317 304.845L766.036 306.115C766.48 306.272 766.684 306.324 766.945 306.057L771.244 301.69C771.505 301.423 771.422 301.199 771.291 300.781L770.006 297.191C770.586 296.12 771.061 294.982 771.422 293.796L774.947 292.061C775.37 291.857 775.548 291.753 775.548 291.377L775.501 285.243Z" stroke="#A4E1EA" stroke-width="5" stroke-miterlimit="10"/>
<path d="M673.41 714.21C673.583 712.915 673.677 711.598 673.677 710.255C673.677 708.908 673.578 707.581 673.405 706.28L676.241 703.558C676.586 703.239 676.722 703.077 676.607 702.722L674.706 696.891C674.591 696.536 674.351 696.51 673.917 696.432L670.052 695.914C668.777 693.569 667.2 691.416 665.377 689.499L666.072 685.628C666.16 685.168 666.176 684.959 665.873 684.739L660.906 681.145C660.603 680.926 660.394 681.046 660.002 681.234L656.57 683.088C654.209 681.955 651.671 681.129 649.012 680.643L647.304 677.107C647.106 676.683 646.996 676.5 646.625 676.5L640.493 676.511C640.117 676.511 640.018 676.73 639.814 677.117L638.121 680.643C635.468 681.129 632.929 681.955 630.568 683.094L627.116 681.244C626.703 681.014 626.51 680.936 626.212 681.155L621.26 684.766C620.957 684.985 621.005 685.22 621.067 685.654L621.772 689.509C619.949 691.427 618.372 693.579 617.097 695.925L613.216 696.458C612.752 696.515 612.548 696.562 612.433 696.918L610.547 702.753C610.432 703.108 610.61 703.27 610.913 703.584L613.744 706.285C613.572 707.581 613.478 708.897 613.478 710.24C613.478 711.588 613.577 712.915 613.749 714.216L610.913 716.938C610.568 717.256 610.432 717.418 610.547 717.773L612.449 723.604C612.564 723.959 612.804 723.985 613.237 724.064L617.103 724.581C618.377 726.927 619.955 729.079 621.778 730.996L621.083 734.868C620.994 735.328 620.978 735.537 621.281 735.756L626.249 739.35C626.552 739.57 626.761 739.45 627.152 739.262L630.584 737.407C632.945 738.541 635.484 739.366 638.142 739.852L639.85 743.389C640.049 743.812 640.159 743.995 640.529 743.995L646.662 743.984C647.038 743.984 647.137 743.765 647.341 743.378L649.033 739.852C651.687 739.366 654.225 738.541 656.586 737.402L660.039 739.251C660.451 739.481 660.645 739.559 660.942 739.34L665.894 735.73C666.197 735.51 666.15 735.275 666.087 734.842L665.382 730.986C667.205 729.069 668.783 726.916 670.057 724.57L673.938 724.038C674.403 723.98 674.607 723.933 674.721 723.578L676.607 717.742C676.722 717.387 676.544 717.225 676.241 716.911L673.41 714.21Z" stroke="#A4E1EA" stroke-width="5" stroke-miterlimit="10"/>
<path d="M208.804 587.45H215.824" stroke="#A4E1EA" stroke-width="5" stroke-miterlimit="10" stroke-linecap="round"/>
<path d="M230.982 595.417H238.002" stroke="#A4E1EA" stroke-width="5" stroke-miterlimit="10" stroke-linecap="round"/>
<path d="M230.982 600.49H260.05" stroke="#A4E1EA" stroke-width="5" stroke-miterlimit="10" stroke-linecap="round"/>
<path d="M230.982 605.401H260.05" stroke="#A4E1EA" stroke-width="5" stroke-miterlimit="10" stroke-linecap="round"/>
<path d="M230.982 619.047H238.002" stroke="#A4E1EA" stroke-width="5" stroke-miterlimit="10" stroke-linecap="round"/>
<path d="M230.982 624.115H260.05" stroke="#A4E1EA" stroke-width="5" stroke-miterlimit="10" stroke-linecap="round"/>
<path d="M230.982 629.031H260.05" stroke="#A4E1EA" stroke-width="5" stroke-miterlimit="10" stroke-linecap="round"/>
<path d="M208.804 592.988H215.824" stroke="#A4E1EA" stroke-width="5" stroke-miterlimit="10" stroke-linecap="round"/>
<path d="M208.804 598.531H215.824" stroke="#A4E1EA" stroke-width="5" stroke-miterlimit="10" stroke-linecap="round"/>
<path d="M208.804 604.116H215.824" stroke="#A4E1EA" stroke-width="5" stroke-miterlimit="10" stroke-linecap="round"/>
<path d="M208.804 609.957H215.824" stroke="#A4E1EA" stroke-width="5" stroke-miterlimit="10" stroke-linecap="round"/>
<path d="M208.804 616.749H215.824" stroke="#A4E1EA" stroke-width="5" stroke-miterlimit="10" stroke-linecap="round"/>
<path d="M208.804 622.386H215.824" stroke="#A4E1EA" stroke-width="5" stroke-miterlimit="10" stroke-linecap="round"/>
<path d="M208.804 628.702H215.824" stroke="#A4E1EA" stroke-width="5" stroke-miterlimit="10" stroke-linecap="round"/>
<path d="M651.054 554.379C651.669 554.379 652.167 553.881 652.167 553.267C652.167 552.652 651.669 552.154 651.054 552.154C650.44 552.154 649.942 552.652 649.942 553.267C649.942 553.881 650.44 554.379 651.054 554.379Z" fill="#A4E1EA" stroke="#A4E1EA" stroke-width="3" stroke-miterlimit="10"/>
<path d="M658.728 554.379C659.342 554.379 659.84 553.881 659.84 553.267C659.84 552.652 659.342 552.154 658.728 552.154C658.113 552.154 657.615 552.652 657.615 553.267C657.615 553.881 658.113 554.379 658.728 554.379Z" fill="#A4E1EA" stroke="#A4E1EA" stroke-width="3" stroke-miterlimit="10"/>
<path d="M666.521 554.379C667.135 554.379 667.633 553.881 667.633 553.267C667.633 552.652 667.135 552.154 666.521 552.154C665.907 552.154 665.408 552.652 665.408 553.267C665.408 553.881 665.907 554.379 666.521 554.379Z" fill="#A4E1EA" stroke="#A4E1EA" stroke-width="3" stroke-miterlimit="10"/>
<path d="M652.815 565.701L656.257 569.139L652.893 572.498" stroke="#A4E1EA" stroke-width="5" stroke-miterlimit="10" stroke-linecap="round" stroke-linejoin="round"/>
<path d="M658.764 565.701L662.201 569.139L658.843 572.498" stroke="#A4E1EA" stroke-width="5" stroke-miterlimit="10" stroke-linecap="round" stroke-linejoin="round"/>
<path d="M259.815 100.487H276.456C276.456 100.487 289.024 102.357 287.457 95.3301C285.885 88.3032 282.516 93.0679 282.28 95.3039C282.045 97.54 282.63 105.586 288.355 106.63C294.08 107.675 296.034 101.296 295.955 97.4668C295.877 93.6373 291.693 90.8475 291.432 97.1168C291.176 103.386 294.754 105.842 298.008 105.596C301.262 105.351 304.255 105.465 303.534 98.005C302.808 90.5497 298.504 94.4471 299.173 99.217C299.847 103.987 301.92 106.578 305.958 105.998C309.996 105.418 311.714 100.831 311.463 97.6863C311.213 94.5412 308.079 91.5423 306.971 97.2265C305.864 102.911 310.455 108.015 315.208 105.591C319.967 103.167 320.672 98.8409 320.113 96.2496C319.857 95.0741 316.964 89.7033 315.454 96.2496C313.944 102.796 319.831 106.813 321.576 105.591C323.32 104.368 324.323 102.033 324.83 99.2118H345.535" stroke="#A4E1EA" stroke-width="4" stroke-miterlimit="10" stroke-linecap="round"/>
<path d="M259.815 129.806H277.135C277.135 129.806 284.26 130.929 284.762 124.362C285.263 117.795 279.011 119.78 279.888 124.665C280.766 129.55 283.388 137.126 288.387 134.372C293.385 131.619 293.297 126.28 293.239 124.362C293.182 122.445 290.048 120.606 289.264 124.979C288.475 129.352 291.641 135.966 295.642 134.372C299.643 132.779 301.518 129.895 301.393 123.908C301.267 117.921 296.848 122.21 296.686 124.979C296.525 127.748 298.395 136.608 304.396 134.372C310.398 132.136 311.119 126.008 310.121 122.967C309.734 121.792 306.647 117.973 305.519 124.362C304.391 130.747 307.039 135.433 311.646 134.372C316.253 133.312 319.748 126.53 318.922 123.908C318.097 121.285 314.148 120.7 314.023 125.062C313.897 129.425 314.347 137.496 320.557 136.561C326.773 135.626 326.726 127.46 326.601 123.908C326.496 120.93 321.017 122.095 323.101 126.175C324.172 128.265 331.244 127.988 331.244 127.988H345.535" stroke="#A4E1EA" stroke-width="4" stroke-miterlimit="10" stroke-linecap="round"/>
<path d="M345.53 182.86C347.244 182.86 348.633 181.471 348.633 179.757C348.633 178.043 347.244 176.654 345.53 176.654C343.816 176.654 342.427 178.043 342.427 179.757C342.427 181.471 343.816 182.86 345.53 182.86Z" fill="#A4E1EA"/>
<path d="M259.815 163.357C261.517 163.357 262.897 162.036 262.897 160.406C262.897 158.775 261.517 157.454 259.815 157.454C258.113 157.454 256.733 158.775 256.733 160.406C256.733 162.036 258.113 163.357 259.815 163.357Z" fill="#A4E1EA"/>
<path d="M122.582 66.3764C124.284 66.3764 125.663 65.0548 125.663 63.4246C125.663 61.7943 124.284 60.4728 122.582 60.4728C120.88 60.4728 119.5 61.7943 119.5 63.4246C119.5 65.0548 120.88 66.3764 122.582 66.3764Z" fill="#A4E1EA"/>
<path d="M260.222 179.673C261.924 179.673 263.304 178.352 263.304 176.721C263.304 175.091 261.924 173.77 260.222 173.77C258.52 173.77 257.141 175.091 257.141 176.721C257.141 178.352 258.52 179.673 260.222 179.673Z" fill="#A4E1EA"/>
<path d="M249.279 170.75C250.981 170.75 252.361 169.428 252.361 167.798C252.361 166.168 250.981 164.846 249.279 164.846C247.577 164.846 246.198 166.168 246.198 167.798C246.198 169.428 247.577 170.75 249.279 170.75Z" fill="#A4E1EA"/>
<path d="M345.53 200.163C347.244 200.163 348.633 198.774 348.633 197.06C348.633 195.346 347.244 193.957 345.53 193.957C343.816 193.957 342.427 195.346 342.427 197.06C342.427 198.774 343.816 200.163 345.53 200.163Z" fill="#A4E1EA"/>
<path d="M116 35.7821C116 35.7821 111.628 29.6225 114.867 24.654C118.105 19.6856 122.3 18.2437 127.257 20.1088C132.213 21.9739 132.099 30.1762 129.727 34.4603C127.356 38.7443 126.107 38.6712 125.669 42.9291C125.47 44.836 125.71 47.4743 124.687 48.3729C123.731 49.2141 121.448 50.0865 120.21 46.1787C118.967 42.2708 119.996 43.2112 116 35.7821Z" stroke="#A4E1EA" stroke-width="5" stroke-miterlimit="10"/>
<path d="M118.967 41.8268C118.967 41.8268 122.044 45.0032 125.737 42.3388" stroke="#A4E1EA" stroke-width="5" stroke-miterlimit="10"/>
<path d="M122.493 43.3993C122.493 43.3993 125.293 31.5294 124.488 28.6821C123.684 25.8348 121.464 26.5505 120.853 28.144C119.824 30.8345 122.702 33.6662 122.953 35.2283C123.459 38.3786 123.057 39.3242 122.493 42.3857" stroke="#A4E1EA" stroke-width="5" stroke-miterlimit="10"/>
<path d="M389.213 649.281H411.099" stroke="#A4E1EA" stroke-width="5" stroke-miterlimit="10" stroke-linecap="round"/>
<path d="M389.213 662.583H411.099" stroke="#A4E1EA" stroke-width="5" stroke-miterlimit="10" stroke-linecap="round"/>
<path d="M372.618 648.592L375.068 651.956L384.016 643.639" stroke="#A4E1EA" stroke-width="4" stroke-miterlimit="10" stroke-linecap="round"/>
<path d="M111.148 333.167C112.85 333.167 114.229 331.845 114.229 330.215C114.229 328.585 112.85 327.263 111.148 327.263C109.446 327.263 108.066 328.585 108.066 330.215C108.066 331.845 109.446 333.167 111.148 333.167Z" fill="#A4E1EA"/>
<path d="M93.8845 333.522C95.5865 333.522 96.9663 332.201 96.9663 330.57C96.9663 328.94 95.5865 327.619 93.8845 327.619C92.1825 327.619 90.8027 328.94 90.8027 330.57C90.8027 332.201 92.1825 333.522 93.8845 333.522Z" fill="#A4E1EA"/>
<path d="M265.984 379.8C267.686 379.8 269.065 378.479 269.065 376.848C269.065 375.218 267.686 373.896 265.984 373.896C264.282 373.896 262.902 375.218 262.902 376.848C262.902 378.479 264.282 379.8 265.984 379.8Z" fill="#A4E1EA"/>
<path d="M265.984 396.962C267.686 396.962 269.065 395.641 269.065 394.01C269.065 392.38 267.686 391.059 265.984 391.059C264.282 391.059 262.902 392.38 262.902 394.01C262.902 395.641 264.282 396.962 265.984 396.962Z" fill="#A4E1EA"/>
<path d="M265.984 415.807C267.686 415.807 269.065 414.485 269.065 412.855C269.065 411.225 267.686 409.903 265.984 409.903C264.282 409.903 262.902 411.225 262.902 412.855C262.902 414.485 264.282 415.807 265.984 415.807Z" fill="#A4E1EA"/>
<path d="M422.564 367.455H418.803C417.921 367.455 417.2 366.734 417.2 365.851V362.089C417.2 361.206 417.921 360.485 418.803 360.485H422.564C423.447 360.485 424.168 361.206 424.168 362.089V365.851C424.168 366.734 423.447 367.455 422.564 367.455Z" stroke="#A4E1EA" stroke-width="4" stroke-miterlimit="10" stroke-linejoin="round"/>
<path d="M413.423 392.281H409.662C408.78 392.281 408.059 391.56 408.059 390.677V386.916C408.059 386.033 408.78 385.312 409.662 385.312H413.423C414.306 385.312 415.027 386.033 415.027 386.916V390.677C415.022 391.56 414.301 392.281 413.423 392.281Z" stroke="#A4E1EA" stroke-width="4" stroke-miterlimit="10" stroke-linejoin="round"/>
<path d="M445.223 371.425H441.462C440.579 371.425 439.859 370.704 439.859 369.821V366.06C439.859 365.177 440.579 364.456 441.462 364.456H445.223C446.106 364.456 446.827 365.177 446.827 366.06V369.821C446.827 370.704 446.106 371.425 445.223 371.425Z" stroke="#A4E1EA" stroke-width="4" stroke-miterlimit="10" stroke-linejoin="round"/>
<path d="M453.998 376.404H450.237C449.355 376.404 448.634 375.683 448.634 374.8V371.039C448.634 370.156 449.355 369.435 450.237 369.435H453.998C454.881 369.435 455.602 370.156 455.602 371.039V374.8C455.597 375.683 454.876 376.404 453.998 376.404Z" stroke="#A4E1EA" stroke-width="4" stroke-miterlimit="10" stroke-linejoin="round"/>
<path d="M459.128 385.866H455.367C454.484 385.866 453.763 385.145 453.763 384.262V380.5C453.763 379.617 454.484 378.896 455.367 378.896H459.128C460.01 378.896 460.731 379.617 460.731 380.5V384.262C460.726 385.145 460.005 385.866 459.128 385.866Z" stroke="#A4E1EA" stroke-width="4" stroke-miterlimit="10" stroke-linejoin="round"/>
<path d="M482.925 372.982H479.164C478.282 372.982 477.561 372.261 477.561 371.378V367.617C477.561 366.734 478.282 366.013 479.164 366.013H482.925C483.808 366.013 484.529 366.734 484.529 367.617V371.378C484.529 372.266 483.808 372.982 482.925 372.982Z" stroke="#A4E1EA" stroke-width="4" stroke-miterlimit="10" stroke-linejoin="round"/>
<path d="M494.067 374.847H490.306C489.423 374.847 488.702 374.126 488.702 373.243V369.482C488.702 368.599 489.423 367.878 490.306 367.878H494.067C494.949 367.878 495.67 368.599 495.67 369.482V373.243C495.67 374.126 494.949 374.847 494.067 374.847Z" stroke="#A4E1EA" stroke-width="4" stroke-miterlimit="10" stroke-linejoin="round"/>
<path d="M485.056 384.209H481.295C480.413 384.209 479.692 383.489 479.692 382.606V378.844C479.692 377.961 480.413 377.24 481.295 377.24H485.056C485.939 377.24 486.66 377.961 486.66 378.844V382.606C486.66 383.489 485.939 384.209 485.056 384.209Z" stroke="#A4E1EA" stroke-width="4" stroke-miterlimit="10" stroke-linejoin="round"/>
<path d="M483.03 399.465H479.269C478.386 399.465 477.665 398.744 477.665 397.861V394.099C477.665 393.216 478.386 392.495 479.269 392.495H483.03C483.912 392.495 484.633 393.216 484.633 394.099V397.861C484.633 398.744 483.912 399.465 483.03 399.465Z" stroke="#A4E1EA" stroke-width="4" stroke-miterlimit="10" stroke-linejoin="round"/>
<path d="M469.141 402.944H465.38C464.497 402.944 463.776 402.223 463.776 401.34V397.579C463.776 396.696 464.497 395.975 465.38 395.975H469.141C470.023 395.975 470.744 396.696 470.744 397.579V401.34C470.744 402.223 470.023 402.944 469.141 402.944Z" stroke="#A4E1EA" stroke-width="4" stroke-miterlimit="10" stroke-linejoin="round"/>
<path d="M473.152 407.474H469.392C468.509 407.474 467.788 406.753 467.788 405.87V402.108C467.788 401.225 468.509 400.504 469.392 400.504H473.152C474.035 400.504 474.756 401.225 474.756 402.108V405.87C474.756 406.753 474.035 407.474 473.152 407.474Z" stroke="#A4E1EA" stroke-width="4" stroke-miterlimit="10" stroke-linejoin="round"/>
<path d="M142.054 526.653C145.372 526.653 148.061 523.963 148.061 520.645C148.061 517.327 145.372 514.637 142.054 514.637C138.737 514.637 136.047 517.327 136.047 520.645C136.047 523.963 138.737 526.653 142.054 526.653Z" stroke="#A4E1EA" stroke-width="4" stroke-miterlimit="10"/>
<path d="M126.144 542.295C129.462 542.295 132.151 539.605 132.151 536.287C132.151 532.969 129.462 530.279 126.144 530.279C122.827 530.279 120.137 532.969 120.137 536.287C120.137 539.605 122.827 542.295 126.144 542.295Z" stroke="#A4E1EA" stroke-width="4" stroke-miterlimit="10"/>
<path d="M160.555 543.931C163.873 543.931 166.562 541.241 166.562 537.923C166.562 534.604 163.873 531.915 160.555 531.915C157.238 531.915 154.549 534.604 154.549 537.923C154.549 541.241 157.238 543.931 160.555 543.931Z" stroke="#A4E1EA" stroke-width="5" stroke-miterlimit="10"/>
<path d="M179.997 525.17C182.905 525.17 185.262 522.812 185.262 519.903C185.262 516.995 182.905 514.637 179.997 514.637C177.089 514.637 174.732 516.995 174.732 519.903C174.732 522.812 177.089 525.17 179.997 525.17Z" stroke="#A4E1EA" stroke-width="4" stroke-miterlimit="10"/>
<path d="M200.504 545.085C203.412 545.085 205.769 542.727 205.769 539.819C205.769 536.911 203.412 534.553 200.504 534.553C197.596 534.553 195.239 536.911 195.239 539.819C195.239 542.727 197.596 545.085 200.504 545.085Z" stroke="#A4E1EA" stroke-width="4" stroke-miterlimit="10"/>
<path d="M73.8269 789.526C77.2598 789.526 80.0427 786.742 80.0427 783.309C80.0427 779.875 77.2598 777.092 73.8269 777.092C70.394 777.092 67.6111 779.875 67.6111 783.309C67.6111 786.742 70.394 789.526 73.8269 789.526Z" stroke="#A4E1EA" stroke-width="4" stroke-miterlimit="10"/>
<path d="M95.4829 791.333C98.9158 791.333 101.699 788.55 101.699 785.116C101.699 781.683 98.9158 778.899 95.4829 778.899C92.05 778.899 89.2671 781.683 89.2671 785.116C89.2671 788.55 92.05 791.333 95.4829 791.333Z" stroke="#A4E1EA" stroke-width="4" stroke-miterlimit="10"/>
<path d="M80.6068 262.799C84.5878 262.799 87.815 259.571 87.815 255.589C87.815 251.608 84.5878 248.38 80.6068 248.38C76.6258 248.38 73.3986 251.608 73.3986 255.589C73.3986 259.571 76.6258 262.799 80.6068 262.799Z" stroke="#A4E1EA" stroke-width="4" stroke-miterlimit="10"/>
<path d="M381.973 397.662C385.75 397.662 388.811 394.601 388.811 390.824C388.811 387.047 385.75 383.985 381.973 383.985C378.197 383.985 375.136 387.047 375.136 390.824C375.136 394.601 378.197 397.662 381.973 397.662Z" stroke="#A4E1EA" stroke-width="4" stroke-miterlimit="10"/>
<path d="M705.325 59.8876C708.758 59.8876 711.541 57.1042 711.541 53.6706C711.541 50.237 708.758 47.4535 705.325 47.4535C701.892 47.4535 699.109 50.237 699.109 53.6706C699.109 57.1042 701.892 59.8876 705.325 59.8876Z" stroke="#A4E1EA" stroke-width="4" stroke-miterlimit="10"/>
<path d="M732.022 61.8625C735.455 61.8625 738.237 59.079 738.237 55.6454C738.237 52.2118 735.455 49.4283 732.022 49.4283C728.589 49.4283 725.806 52.2118 725.806 55.6454C725.806 59.079 728.589 61.8625 732.022 61.8625Z" stroke="#A4E1EA" stroke-width="4" stroke-miterlimit="10"/>
<path d="M704.343 379.706C707.487 379.706 710.037 377.156 710.037 374.011C710.037 370.866 707.487 368.317 704.343 368.317C701.199 368.317 698.65 370.866 698.65 374.011C698.65 377.156 701.199 379.706 704.343 379.706Z" stroke="#A4E1EA" stroke-width="4" stroke-miterlimit="10"/>
<path d="M715.396 395.045C716.841 395.045 718.013 393.873 718.013 392.428C718.013 390.982 716.841 389.81 715.396 389.81C713.95 389.81 712.779 390.982 712.779 392.428C712.779 393.873 713.95 395.045 715.396 395.045Z" fill="#A4E1EA"/>
<path d="M634.502 574.692C637.935 574.692 640.717 571.909 640.717 568.475C640.717 565.041 637.935 562.258 634.502 562.258C631.069 562.258 628.286 565.041 628.286 568.475C628.286 571.909 631.069 574.692 634.502 574.692Z" stroke="#A4E1EA" stroke-width="4" stroke-miterlimit="10"/>
<path d="M586.024 777.186C589.457 777.186 592.24 774.402 592.24 770.969C592.24 767.535 589.457 764.751 586.024 764.751C582.591 764.751 579.808 767.535 579.808 770.969C579.808 774.402 582.591 777.186 586.024 777.186Z" stroke="#A4E1EA" stroke-width="4" stroke-miterlimit="10"/>
<path d="M668.61 770.968C671.734 770.968 674.267 768.435 674.267 765.31C674.267 762.186 671.734 759.652 668.61 759.652C665.486 759.652 662.953 762.186 662.953 765.31C662.953 768.435 665.486 770.968 668.61 770.968Z" stroke="#A4E1EA" stroke-width="4" stroke-miterlimit="10"/>
<path d="M637.187 574.081C637.187 574.081 637.866 578.584 642.368 575.951C643.622 575.22 646.134 572.66 647.398 572.66C648.208 572.66 649.111 573.548 648.077 575.397C646.15 578.856 641.663 581.573 640.712 582.273C639.767 582.973 640.639 592.486 641.224 596.603C641.814 600.72 641.888 606.127 639.605 606.18C637.328 606.232 636.074 596.53 636.074 596.53C636.074 596.53 635.855 593.296 635.118 593.516C634.382 593.735 633.279 600.354 633.279 600.354C633.279 600.354 632.616 606.974 632.104 607.413C632.104 607.413 629.602 610.5 629.09 604.471C628.573 598.442 630.025 593.296 630.025 593.296L630.929 590.167" stroke="#A4E1EA" stroke-width="4" stroke-miterlimit="10" stroke-linejoin="round"/>
<path d="M632.209 574.253C632.209 574.253 628.986 579.195 627.774 582.487C626.938 584.765 626.714 590.595 632.548 590.684C635.781 590.736 634.439 588.056 633.723 587.68C632.564 587.063 631.441 587.607 630.892 586.379C630.344 585.146 631.733 583.145 632.47 582.017" stroke="#A4E1EA" stroke-width="4" stroke-miterlimit="10" stroke-linecap="round" stroke-linejoin="round"/>
<path d="M700.979 378.593C700.979 378.593 697.13 382.757 696.148 388.739C695.166 394.721 695.333 398.833 695.62 402.297C695.996 406.915 696.822 409.224 698.655 407.218C699.903 405.854 699.976 401.805 700.692 400.097C701.596 397.939 702.698 394.794 703.967 397.218C705.236 399.643 705.994 405.473 705.994 405.473C705.994 405.473 706.965 408.879 708.031 406.758C709.097 404.637 709.008 400.019 708.031 396.837C707.054 393.655 706.6 392.422 706.6 392.422" stroke="#A4E1EA" stroke-width="4" stroke-miterlimit="10" stroke-linejoin="round"/>
<path d="M705.215 379.633C705.215 379.633 703.063 385.573 707.206 388.18C711.348 390.792 713.615 390.515 714.043 391.414C714.445 392.255 713.171 392.616 711.969 392.814C709.321 393.248 704.923 393.441 701.731 389.199" stroke="#A4E1EA" stroke-width="4" stroke-miterlimit="10" stroke-linecap="round" stroke-linejoin="round"/>
<path d="M583.678 776.726C583.678 776.726 580.226 785.665 579.808 789.599C579.39 793.533 578.011 803.48 579.609 805.371C581.208 807.257 582.237 805.962 582.837 804.765C583.438 803.569 582.837 799.452 585.068 795.931C587.298 792.41 588.583 794.985 588.583 794.985C588.583 794.985 590.599 800.22 590.636 802.968C590.672 805.716 592.443 806.829 593.3 805.716C594.156 804.603 595.447 795.361 593.817 791.527C592.187 787.692 591.069 786.062 591.069 786.062" stroke="#A4E1EA" stroke-width="4" stroke-miterlimit="10"/>
<path d="M589.158 776.329C589.158 776.329 590.563 779.557 594.078 776.329C597.593 773.1 598.539 772.013 599.996 771.904C601.453 771.794 601.114 773.999 599.223 776.726C597.337 779.453 593.41 786.746 589.153 787.775" stroke="#A4E1EA" stroke-width="4" stroke-miterlimit="10" stroke-linecap="round"/>
<path d="M668.61 770.969C668.61 770.969 669.315 777.102 665.069 779.364C660.822 781.626 658.801 784.568 660.707 785.278C662.614 785.989 670.23 781.605 671.034 779.897" stroke="#A4E1EA" stroke-width="4" stroke-miterlimit="10" stroke-linecap="round"/>
<path d="M672.622 769.297C672.622 769.297 675.855 772.008 678.498 778.753C680.587 784.077 681.825 790.414 680.331 798.799C679.177 805.277 676.868 801.599 676.774 799.311C676.701 797.514 676.628 794.865 675.855 791.161C675.458 789.249 674.722 786.684 673.102 789.207C671.478 791.73 671.379 794.489 671.034 798.047C670.689 801.604 667.012 800.471 667.075 798.799C667.137 797.127 666.03 793.82 668.61 782.086" stroke="#A4E1EA" stroke-width="4" stroke-miterlimit="10" stroke-linecap="round"/>
<path d="M423.311 671.365C423.311 671.365 417.111 665.111 413.585 665.999C412.755 666.208 411.506 667.441 412.697 669.322C413.888 671.203 416.458 670.869 420.684 674.442C424.267 677.472 426.304 678.94 425.181 682.31C424.058 685.674 422.831 685.967 419.174 686.228C414.995 685.967 411.862 681.526 411.078 686.228C411.078 688.579 413.951 689.885 417.346 690.669C422.569 690.669 425.056 687.994 424.669 692.153C424.283 696.312 423.389 698.788 422.601 703.835C421.807 708.882 421.514 713.526 422.501 716.582C423.489 719.639 425.275 718.322 425.275 718.322C425.275 718.322 427.155 714.759 427.255 709.347C427.354 703.934 428.414 697.252 429.616 699.603C430.817 701.954 430.493 711.457 430.493 711.457C430.493 711.457 430.916 719.294 432.301 719.236C433.685 719.179 435.126 718.385 435.445 712.345C435.764 706.306 436.547 697.56 431.998 680.351" stroke="#A4E1EA" stroke-width="4" stroke-miterlimit="10" stroke-linecap="round"/>
<path d="M67.6111 808.365C67.6111 808.365 64.8688 818.521 65.1248 823.673C65.3807 828.824 68.0498 824.409 69.737 820.877C71.4241 817.346 72.4114 810.241 73.3777 815.366C74.3492 820.491 74.6052 826.112 76.0155 826.316C77.4258 826.52 78.0683 823.699 78.5801 822.032C79.092 820.365 82.435 807.095 75.8274 789.181" stroke="#A4E1EA" stroke-width="4" stroke-miterlimit="10" stroke-linecap="round"/>
<path d="M92.1399 790.351C92.1399 790.351 90.4998 800.836 84.9944 802.55C79.489 804.264 78.2458 804.222 78.2458 804.222C78.2458 804.222 76.5012 807.466 80.4292 807.827C84.3571 808.192 89.8626 807.419 91.534 802.806" stroke="#A4E1EA" stroke-width="4" stroke-miterlimit="10" stroke-linecap="round"/>
<path d="M89.2671 805.894C89.1104 806.009 88.1075 822.617 89.2671 824.728C90.4267 826.838 93.0018 824.44 93.6129 822.042C94.2188 819.644 95.6135 807.67 96.9141 812.55C98.2147 817.429 100.205 824.216 101.699 824.728C103.193 825.24 104.859 824.728 104.603 821.008C104.347 817.288 104.629 811.008 104.629 811.008" stroke="#A4E1EA" stroke-width="4" stroke-miterlimit="10" stroke-linecap="round"/>
<path d="M99.8654 789.52C99.8654 789.52 105.392 801.145 105.627 805.894C105.862 810.638 103.919 815.167 101.699 809.948C99.4788 804.729 98.3245 797.294 98.3245 797.294" stroke="#A4E1EA" stroke-width="4" stroke-miterlimit="10" stroke-linecap="round"/>
<path d="M428.963 391.78C428.963 391.78 424.794 395.62 419.911 391.268C415.022 386.916 414.196 387.6 412.87 388.201C411.543 388.802 416.207 394.684 418.756 395.985C421.305 397.286 426.252 398.263 426.153 404.553C426.053 410.844 422.789 422.306 422.606 423.283C422.423 424.26 421.556 432.645 425.202 430.132C428.848 427.614 431.355 408.607 432.765 415.598C434.176 422.588 432.478 430.581 435.696 429.521C438.913 428.46 439.331 423.058 437.79 408.848C436.255 394.637 440.209 392.25 441.384 390.541C443.045 388.128 452.969 377.266 450.227 376.409C446.43 375.223 441.697 384.648 440.585 385.871C439.258 387.328 438.924 389.115 436.803 389.486" stroke="#A4E1EA" stroke-width="4" stroke-miterlimit="10" stroke-linejoin="round"/>
<path d="M376.593 398.138C376.593 398.138 378.49 394.538 380.459 395.223C382.428 395.907 380.824 400.98 380.459 402.077C380.093 403.169 376.74 409.511 376.014 410.316C375.282 411.115 373.318 411.774 373.245 409.443C373.167 407.103 375.293 399.961 376.593 398.138Z" stroke="#A4E1EA" stroke-width="4" stroke-miterlimit="10" stroke-linejoin="round"/>
<path d="M376.008 410.311C376.008 410.311 373.386 425.765 373.747 428.534C374.107 431.303 375.131 434.118 376.588 430.597C378.045 427.076 379.748 414.83 381.415 419.13C383.081 423.429 382.036 432.671 384.314 432.243C386.596 431.814 386.46 418.215 385.99 412.421" stroke="#A4E1EA" stroke-width="4" stroke-miterlimit="10" stroke-linejoin="round"/>
<path d="M383.739 404.188C383.739 404.188 387.244 407.061 383.243 409.543C378.881 412.249 376.98 413.545 379.837 414.224C382.736 414.919 388.654 411.413 389.793 408.482C390.931 405.551 385.724 396.544 385.724 396.544" stroke="#A4E1EA" stroke-width="4" stroke-miterlimit="10" stroke-linecap="round" stroke-linejoin="round"/>
<path d="M496.955 404.631C496.955 404.631 498.271 405.285 493.189 401.988C488.107 398.692 489.246 403.775 489.246 403.775C489.246 403.775 491.753 406.565 495.623 408.592C499.494 410.619 498.157 415.927 496.955 417.97C495.843 419.861 493.978 422.437 494.767 426.47C495.759 431.532 494.62 433.392 496.574 433.481C498.533 433.57 497.932 429.375 498.026 427.943C498.167 425.806 498.684 425.033 501.776 420.248C504.869 415.462 505.046 412.218 504.618 404.219" stroke="#A4E1EA" stroke-width="4" stroke-miterlimit="10" stroke-linecap="round" stroke-linejoin="round"/>
<path d="M500.46 422.426C500.46 422.426 500.366 427.123 501.782 429.448C503.437 432.165 504.905 435.069 506.744 433.481C508.347 432.097 506.665 432.206 504.795 425.242C502.931 418.283 504.054 415.911 504.054 415.911" stroke="#A4E1EA" stroke-width="4" stroke-miterlimit="10" stroke-linecap="round" stroke-linejoin="round"/>
<path d="M474.139 41.9783C474.139 41.9783 471.439 46.5131 467.407 41.0013C463.374 35.4895 460.548 33.1855 460.282 36.6232C460.016 40.0609 462.7 45.1913 465.793 48.2058C468.885 51.2203 472.249 56.7373 471.711 61.1728C471.173 65.6083 469.559 75.634 470.097 77.2797C470.635 78.9254 472.943 81.8197 474.139 77.2797C475.336 72.7397 477.085 62.6513 478.7 64.1351C480.314 65.6188 481.457 71.5328 482.027 73.8159C482.596 76.099 483.463 79.5994 485.25 78.9254C487.036 78.2515 486.874 69.5267 485.25 59.454C483.625 49.3865 484.612 49.2036 488.107 46.7847C491.601 44.3658 494.108 41.3879 493.179 38.4465C492.249 35.5052 486.435 41.9783 486.435 41.9783C486.435 41.9783 483.364 45.6772 479.755 42.3283" stroke="#A4E1EA" stroke-width="4" stroke-miterlimit="10" stroke-linecap="round" stroke-linejoin="round"/>
<path d="M512.38 45.8913C512.38 45.8913 509.622 46.722 503.975 41.9782C498.329 37.2345 496.26 37.271 496.354 39.4705C496.448 41.67 503.437 47.6154 503.437 47.6154C503.437 47.6154 508.279 50.5463 507.872 60.0965C507.47 69.6468 505.584 75.634 505.991 77.2797C506.394 78.9254 508.008 80.6076 509.219 77.2797C510.431 73.9517 513.654 63.0588 514.73 67.092C515.806 71.1253 516.574 81.3443 518.679 81.2137C520.784 81.0831 521.05 78.1208 520.784 73.4136C520.518 68.7064 518.679 60.6399 518.679 60.6399" stroke="#A4E1EA" stroke-width="4" stroke-miterlimit="10" stroke-linecap="round" stroke-linejoin="round"/>
<path d="M517.044 48.2006C517.044 48.2006 522.769 56.9985 522.92 61.3034C523.072 65.6083 522.346 69.7252 520.873 68.743" stroke="#A4E1EA" stroke-width="4" stroke-miterlimit="10" stroke-linecap="round" stroke-linejoin="round"/>
<path d="M494.082 15.177C494.082 15.177 491.324 54.6789 492.176 58.5449C493.027 62.411 495.116 61.9722 495.581 60.4936C496.046 59.0151 497.122 18.7818 496.986 18.5258C496.851 18.2698 496.689 10.0675 494.082 15.177Z" stroke="#A4E1EA" stroke-width="4" stroke-miterlimit="10" stroke-linecap="round" stroke-linejoin="round"/>
<path d="M496.997 14.5082C497.342 14.0328 502.539 7.56495 508.159 10.1354C513.779 12.7006 515.477 17.7735 525.098 14.5082L523.756 27.3969C523.756 27.3969 518.475 32.6474 511.048 30.1815C503.62 27.7156 501.734 27.6111 496.997 32.6474" stroke="#A4E1EA" stroke-width="4" stroke-miterlimit="10" stroke-linecap="round" stroke-linejoin="round"/>
<path d="M748.418 42.2551C748.418 42.2551 739.105 58.012 741.81 59.8875C744.516 61.7631 746.908 54.1459 746.908 54.1459C746.908 54.1459 742.902 77.0498 745.002 78.7373C747.102 80.4248 752.288 64.5634 752.288 64.5634C752.288 64.5634 753.291 79.6515 754.989 78.7373C756.686 77.823 756.253 72.4732 756.895 58.9942C756.895 58.9942 757.966 53.9996 763.064 49.4387C768.162 44.8778 771.782 38.0129 770.293 37.4068C768.805 36.8008 760.51 43.9792 758.504 45.3532C756.498 46.7324 754.508 44.9196 754.649 43.1485" stroke="#A4E1EA" stroke-width="4" stroke-miterlimit="10" stroke-linecap="round" stroke-linejoin="round"/>
<path d="M724.777 82.5459C724.777 82.5459 724.777 61.6378 733.395 61.8572C739.277 62.0087 739.366 72.7188 739.251 81.6421L724.777 82.5459Z" stroke="#A4E1EA" stroke-width="4" stroke-miterlimit="10" stroke-linecap="round" stroke-linejoin="round"/>
<path d="M696.68 80.3621C696.68 80.3621 696.68 59.4539 705.299 59.6733C711.18 59.8249 711.269 70.5349 711.154 79.4582L696.68 80.3621Z" stroke="#A4E1EA" stroke-width="4" stroke-miterlimit="10" stroke-linecap="round" stroke-linejoin="round"/>
<path d="M700.687 80.2106V86.9396" stroke="#A4E1EA" stroke-width="4" stroke-miterlimit="10" stroke-linecap="round"/>
<path d="M708.647 79.6672V86.3963" stroke="#A4E1EA" stroke-width="4" stroke-miterlimit="10" stroke-linecap="round"/>
<path d="M728.047 82.4258V89.1601" stroke="#A4E1EA" stroke-width="4" stroke-miterlimit="10" stroke-linecap="round"/>
<path d="M736.002 81.8824V88.6167" stroke="#A4E1EA" stroke-width="4" stroke-miterlimit="10" stroke-linecap="round"/>
<path d="M138.205 525.248C138.205 525.248 129.806 532.045 134.507 537.922C139.208 543.8 141.548 542.802 142.018 541.799C142.488 540.796 141.569 540.164 138.701 535.838C138.168 535.033 138.314 533.727 138.602 531.914" stroke="#A4E1EA" stroke-width="4" stroke-miterlimit="10" stroke-linecap="round"/>
<path d="M143.851 526.377C143.851 526.377 145.967 530.88 145.298 533.602" stroke="#A4E1EA" stroke-width="4" stroke-miterlimit="10" stroke-linecap="round"/>
<path d="M173.295 533.346C173.295 533.346 172.788 530.049 170.287 525.248C167.779 520.452 167.858 514.428 169.414 514.637C170.971 514.846 172.036 518.059 172.428 519.904C172.815 521.748 174.564 524.193 175.828 523.989" stroke="#A4E1EA" stroke-width="4" stroke-miterlimit="10" stroke-linecap="round"/>
<path d="M181.559 525.248C181.559 525.729 184.087 529.527 184.181 533.994" stroke="#A4E1EA" stroke-width="4" stroke-miterlimit="10" stroke-linecap="round"/>
<path d="M204.557 558.585C205.497 553.92 203.021 545.08 203.021 545.08C203.021 545.08 198.738 545.587 196.894 544.192C196.894 544.192 196.785 546.12 195.5 546.673C194.215 547.222 195.5 546.673 195.5 546.673L190.799 551.391C190.799 551.391 193.776 556.809 192.637 558.057C191.499 559.306 204.557 558.585 204.557 558.585Z" stroke="#A4E1EA" stroke-width="4" stroke-miterlimit="10" stroke-linecap="round"/>
<path d="M192.538 558.585C192.538 558.193 194.419 553.418 186.406 547.488C180.582 543.178 186.26 544.072 186.986 544.385C189.174 545.336 196.644 550.963 196.456 543.178" stroke="#A4E1EA" stroke-width="4" stroke-miterlimit="10" stroke-linecap="round"/>
<path d="M155.421 558.585C155.421 558.585 152.715 543.638 159.458 544.511C166.202 545.383 166.917 553.789 166.917 553.789V558.084" stroke="#A4E1EA" stroke-width="4" stroke-miterlimit="10" stroke-linecap="round"/>
<path d="M154.554 554.139C154.554 554.139 149.362 551.459 152.005 547.259C154.648 543.058 155.729 546.25 155.729 546.25" stroke="#A4E1EA" stroke-width="4" stroke-miterlimit="10" stroke-linecap="round"/>
<path d="M115.729 557.702C115.729 557.702 116.126 543.831 121.365 542.995C121.365 542.995 126.525 541.256 128.348 545.864C130.171 550.466 130.652 558.59 130.652 558.59" stroke="#A4E1EA" stroke-width="4" stroke-miterlimit="10" stroke-linecap="round"/>
<path d="M76.9034 262.036C76.9034 262.036 67.9872 273.875 69.4184 280.792C70.8496 287.709 73.0799 286.952 73.0799 286.952" stroke="#A4E1EA" stroke-width="4" stroke-miterlimit="10" stroke-linecap="round"/>
<path d="M79.6875 277.824C79.6875 277.824 78.0892 283.038 82.5343 282.767C86.9793 282.495 91.2207 280.097 90.5156 285.891C89.8104 291.69 86.3108 299.976 85.5116 300.295C84.7124 300.613 82.832 297.965 82.832 296.82" stroke="#A4E1EA" stroke-width="4" stroke-miterlimit="10" stroke-linecap="round"/>
<path d="M82.1163 288.211C82.3096 288.038 84.4251 287.782 85.0936 287.526C85.0936 287.526 84.0072 290.149 83.605 292.458" stroke="#A4E1EA" stroke-width="4" stroke-miterlimit="10" stroke-linecap="round"/>
<path d="M78.5958 269.533C78.5958 269.533 82.1163 272.929 86.4674 271.9C90.8184 270.876 92.5839 268.598 93.3831 270.432C94.177 272.266 89.5648 275.359 89.5648 275.359C89.5648 275.359 81.6305 278.749 76.099 276.001" stroke="#A4E1EA" stroke-width="4" stroke-miterlimit="10" stroke-linecap="round"/>
<path d="M80.6068 262.799C80.6068 262.799 82.1164 268.833 81.2179 270.432" stroke="#A4E1EA" stroke-width="4" stroke-miterlimit="10" stroke-linecap="round"/>
<path d="M88.9641 270.432L91.3303 266.268L95.9425 267.104L93.3831 270.432" stroke="#A4E1EA" stroke-width="4" stroke-miterlimit="10" stroke-linecap="round" stroke-linejoin="round"/>
<path d="M82.1163 268.353C82.435 268.321 86.248 269.016 90.5207 267.229" stroke="#A4E1EA" stroke-width="4" stroke-miterlimit="10" stroke-linecap="round" stroke-linejoin="round"/>
<path d="M57.3106 286.21C57.3106 285.98 55.6392 279.063 55.6392 279.063C55.6392 279.063 62.4452 280.599 64.3465 278.875L62.9048 286.21" stroke="#A4E1EA" stroke-width="4" stroke-miterlimit="10" stroke-linecap="round" stroke-linejoin="round"/>
<path d="M55.6339 278.42C55.6339 278.42 61.9176 275.63 64.3412 278.869" stroke="#A4E1EA" stroke-width="4" stroke-miterlimit="10" stroke-linecap="round" stroke-linejoin="round"/>
<path d="M102.273 31.519L106.933 30.5264" stroke="#A4E1EA" stroke-width="4" stroke-miterlimit="10" stroke-linecap="round" stroke-linejoin="round"/>
<path d="M103.548 17.5854C103.971 17.9616 108.839 19.6125 108.839 19.6125" stroke="#A4E1EA" stroke-width="4" stroke-miterlimit="10" stroke-linecap="round" stroke-linejoin="round"/>
<path d="M113.671 5.77295L115.462 10.966" stroke="#A4E1EA" stroke-width="4" stroke-miterlimit="10" stroke-linecap="round" stroke-linejoin="round"/>
<path d="M128.73 3.97058L127.063 9.11664" stroke="#A4E1EA" stroke-width="4" stroke-miterlimit="10" stroke-linecap="round" stroke-linejoin="round"/>
<path d="M137.244 18.599C138.226 18.3273 144.374 17.9773 144.374 17.9773" stroke="#A4E1EA" stroke-width="4" stroke-miterlimit="10" stroke-linecap="round" stroke-linejoin="round"/>
<path d="M138.576 33.8804L143.303 34.4603" stroke="#A4E1EA" stroke-width="4" stroke-miterlimit="10" stroke-linecap="round" stroke-linejoin="round"/>
<path d="M430.007 680.654C433.706 680.654 436.704 677.655 436.704 673.956C436.704 670.257 433.706 667.258 430.007 667.258C426.309 667.258 423.311 670.257 423.311 673.956C423.311 677.655 426.309 680.654 430.007 680.654Z" stroke="#A4E1EA" stroke-width="4" stroke-miterlimit="10"/>
<path d="M70.5884 788.977C70.5884 788.977 65.6419 793.575 64.7435 801.009C63.8451 808.443 71.0219 808.318 71.0219 808.318C71.0219 808.318 76.6214 808.961 78.2406 805.627C79.8599 802.294 72.2651 804.603 71.4503 800.758" stroke="#A4E1EA" stroke-width="4" stroke-miterlimit="10" stroke-linecap="round"/>
<path d="M98.0529 553.361C98.0529 556.234 100.403 558.585 103.276 558.585H232.194C235.067 558.585 237.417 556.234 237.417 553.361V506.074C237.417 503.201 235.067 500.85 232.194 500.85H103.276C100.403 500.85 98.0529 503.201 98.0529 506.074V553.361Z" stroke="#A4E1EA" stroke-width="5" stroke-miterlimit="10"/>
<path d="M431.261 392.156C435.181 392.156 438.36 388.977 438.36 385.056C438.36 381.135 435.181 377.956 431.261 377.956C427.341 377.956 424.162 381.135 424.162 385.056C424.162 388.977 427.341 392.156 431.261 392.156Z" stroke="#A4E1EA" stroke-width="4" stroke-miterlimit="10"/>
<path d="M500.46 405.734C503.922 405.734 506.728 402.927 506.728 399.465C506.728 396.002 503.922 393.196 500.46 393.196C496.998 393.196 494.192 396.002 494.192 399.465C494.192 402.927 496.998 405.734 500.46 405.734Z" stroke="#A4E1EA" stroke-width="4" stroke-miterlimit="10"/>
<path d="M477.289 42.8403C480.722 42.8403 483.505 40.0568 483.505 36.6232C483.505 33.1896 480.722 30.4061 477.289 30.4061C473.856 30.4061 471.073 33.1896 471.073 36.6232C471.073 40.0568 473.856 42.8403 477.289 42.8403Z" stroke="#A4E1EA" stroke-width="4" stroke-miterlimit="10"/>
<path d="M517.044 48.2058C520.289 48.2058 522.92 45.5743 522.92 42.3283C522.92 39.0822 520.289 36.4508 517.044 36.4508C513.799 36.4508 511.168 39.0822 511.168 42.3283C511.168 45.5743 513.799 48.2058 517.044 48.2058Z" stroke="#A4E1EA" stroke-width="4" stroke-miterlimit="10"/>
<path d="M752.283 43.6083C755.716 43.6083 758.499 40.8249 758.499 37.3913C758.499 33.9577 755.716 31.1742 752.283 31.1742C748.85 31.1742 746.067 33.9577 746.067 37.3913C746.067 40.8249 748.85 43.6083 752.283 43.6083Z" stroke="#A4E1EA" stroke-width="4" stroke-miterlimit="10"/>
</g>
<defs>
<clipPath id="clip0">
<rect width="1199" height="837" fill="white"/>
</clipPath>
</defs>
</svg>
