<svg width="469" height="333" viewBox="0 0 469 333" fill="none" xmlns="http://www.w3.org/2000/svg">
<path fill-rule="evenodd" clip-rule="evenodd" d="M96.5845 114.516C106.087 99.011 128.211 97.9647 139.132 112.504L225.716 227.772C238.48 244.765 226.367 269.049 205.126 269.049H151.93C145.607 269.049 140.481 263.918 140.481 257.59C140.481 251.261 145.607 246.13 151.93 246.13H205.126C207.486 246.13 208.832 243.432 207.414 241.544L120.83 126.276C119.617 124.661 117.158 124.777 116.103 126.5L23.3608 277.822C22.1909 279.731 23.5632 282.185 25.8005 282.185H59.0513C65.3743 282.185 70.5001 287.315 70.5001 293.644C70.5001 299.973 65.3743 305.103 59.0513 305.103H25.8005C5.66439 305.103 -6.68625 283.018 3.84264 265.839L96.5845 114.516Z" fill="#A4E1EA"/>
<path fill-rule="evenodd" clip-rule="evenodd" d="M251.549 155.07C250.438 153.527 248.161 153.477 246.982 154.969L160.34 264.693C156.419 269.658 149.22 270.502 144.259 266.578C139.298 262.653 138.455 255.447 142.376 250.482L229.018 140.758C239.622 127.329 260.116 127.78 270.12 141.663L391.533 310.143C395.232 315.276 394.074 322.438 388.945 326.14C383.817 329.843 376.661 328.683 372.962 323.55L251.549 155.07Z" fill="#E34D59"/>
<path fill-rule="evenodd" clip-rule="evenodd" d="M398.211 132.749C397.064 130.951 394.428 130.994 393.339 132.827L293.411 301.055C292.276 302.964 293.651 305.383 295.871 305.383H382.289C388.612 305.383 393.738 310.514 393.738 316.843C393.738 323.171 388.612 328.302 382.289 328.302H295.871C275.894 328.302 263.52 306.529 273.729 289.342L373.657 121.115C383.457 104.617 407.186 104.237 417.509 120.412L464.365 193.834C475.318 210.997 463.003 233.496 442.656 233.496H418.69C412.367 233.496 407.241 228.366 407.241 222.037C407.241 215.709 412.367 210.578 418.69 210.578H442.656C444.917 210.578 446.285 208.078 445.068 206.171L398.211 132.749Z" fill="#FFBA52"/>
<path d="M150.785 32.945C150.785 51.1401 136.049 65.8901 117.87 65.8901C99.691 65.8901 84.9543 51.1401 84.9543 32.945C84.9543 14.75 99.691 0 117.87 0C136.049 0 150.785 14.75 150.785 32.945Z" fill="#A4E1EA"/>
<path d="M283.02 59.5877C283.02 77.7828 269.308 92.5328 252.394 92.5328C235.48 92.5328 221.768 77.7828 221.768 59.5877C221.768 41.3927 235.48 26.6427 252.394 26.6427C269.308 26.6427 283.02 41.3927 283.02 59.5877Z" fill="#E34D59"/>
<path d="M429.28 32.945C429.28 51.1401 414.543 65.8901 396.364 65.8901C378.185 65.8901 363.449 51.1401 363.449 32.945C363.449 14.75 378.185 0 396.364 0C414.543 0 429.28 14.75 429.28 32.945Z" fill="#FFBA52"/>
<path fill-rule="evenodd" clip-rule="evenodd" d="M187.708 257.545C187.708 263.874 182.582 269.004 176.259 269.004L151.358 269.004C145.035 269.004 139.909 263.874 139.909 257.545C139.909 251.217 145.035 246.086 151.358 246.086L176.259 246.086C182.582 246.086 187.708 251.217 187.708 257.545Z" fill="#A4E1EA"/>
<path fill-rule="evenodd" clip-rule="evenodd" d="M389.143 326.212C384.049 329.961 376.883 328.867 373.137 323.768L358.079 303.271C354.334 298.172 355.427 291 360.521 287.251C365.615 283.502 372.781 284.596 376.527 289.694L391.585 310.191C395.33 315.29 394.237 322.463 389.143 326.212Z" fill="#E34D59"/>
</svg>
