<svg width="200" height="200" viewBox="0 0 200 200" fill="none" xmlns="http://www.w3.org/2000/svg">
<circle cx="100" cy="100" r="100" fill="#141C5A"/>
<path fill-rule="evenodd" clip-rule="evenodd" d="M64.9303 86.5319C67.3832 82.5333 73.0938 82.2635 75.9128 86.013L98.2616 115.739C101.556 120.122 98.4297 126.384 92.947 126.384H79.2162C77.5841 126.384 76.261 125.061 76.261 123.429C76.261 121.797 77.5841 120.474 79.2162 120.474H92.947C93.5562 120.474 93.9036 119.778 93.5375 119.291L71.1886 89.5647C70.8754 89.1481 70.2409 89.1781 69.9683 89.6223L46.0299 128.647C45.7279 129.139 46.0821 129.772 46.6596 129.772H55.2423C56.8744 129.772 58.1975 131.095 58.1975 132.727C58.1975 134.359 56.8744 135.682 55.2423 135.682H46.6596C41.4621 135.682 38.2741 129.987 40.9919 125.556L64.9303 86.5319Z" fill="#A4E1EA"/>
<path fill-rule="evenodd" clip-rule="evenodd" d="M104.93 96.9904C104.643 96.5926 104.055 96.5797 103.751 96.9645L81.3871 125.261C80.375 126.541 78.5166 126.759 77.2362 125.747C75.9557 124.735 75.7381 122.877 76.7501 121.596L99.1142 93.2997C101.851 89.8365 107.141 89.9528 109.723 93.5329L141.063 136.982C142.017 138.306 141.718 140.153 140.394 141.108C139.071 142.062 137.224 141.763 136.269 140.44L104.93 96.9904Z" fill="#E34D59"/>
<path fill-rule="evenodd" clip-rule="evenodd" d="M142.786 91.2339C142.49 90.7704 141.809 90.7813 141.528 91.254L115.735 134.638C115.442 135.131 115.797 135.754 116.37 135.754H138.676C140.308 135.754 141.631 137.077 141.631 138.71C141.631 140.342 140.308 141.665 138.676 141.665H116.37C111.213 141.665 108.019 136.05 110.654 131.618L136.448 88.2336C138.977 83.9791 145.102 83.881 147.767 88.0523L159.861 106.987C162.689 111.413 159.51 117.216 154.258 117.216H148.072C146.44 117.216 145.117 115.893 145.117 114.26C145.117 112.628 146.44 111.305 148.072 111.305H154.258C154.841 111.305 155.195 110.661 154.88 110.169L142.786 91.2339Z" fill="#FFBA52"/>
<path d="M78.9205 65.4961C78.9205 70.1884 75.1167 73.9923 70.4244 73.9923C65.7321 73.9923 61.9282 70.1884 61.9282 65.4961C61.9282 60.8039 65.7321 57 70.4244 57C75.1167 57 78.9205 60.8039 78.9205 65.4961Z" fill="#A4E1EA"/>
<path d="M113.053 72.3672C113.053 77.0595 109.514 80.8634 105.148 80.8634C100.782 80.8634 97.2427 77.0595 97.2427 72.3672C97.2427 67.6749 100.782 63.8711 105.148 63.8711C109.514 63.8711 113.053 67.6749 113.053 72.3672Z" fill="#E34D59"/>
<path d="M150.805 65.4961C150.805 70.1884 147.001 73.9923 142.309 73.9923C137.617 73.9923 133.813 70.1884 133.813 65.4961C133.813 60.8039 137.617 57 142.309 57C147.001 57 150.805 60.8039 150.805 65.4961Z" fill="#FFBA52"/>
<path fill-rule="evenodd" clip-rule="evenodd" d="M88.4512 123.418C88.4512 125.05 87.1281 126.373 85.496 126.373L79.0685 126.373C77.4364 126.373 76.1133 125.05 76.1133 123.418C76.1133 121.786 77.4364 120.463 79.0685 120.463L85.496 120.463C87.1281 120.463 88.4512 121.786 88.4512 123.418Z" fill="#A4E1EA"/>
<path fill-rule="evenodd" clip-rule="evenodd" d="M140.445 141.126C139.13 142.093 137.281 141.811 136.314 140.496L132.427 135.21C131.46 133.895 131.742 132.046 133.057 131.079C134.372 130.112 136.222 130.394 137.189 131.709L141.076 136.995C142.042 138.31 141.76 140.159 140.445 141.126Z" fill="#E34D59"/>
</svg>
