<svg width="216" height="47" viewBox="0 0 216 47" fill="none" xmlns="https://www.w3.org/2000/svg">
<path d="M102.89 17.047V18.4759H95.8675V9.29945H102.703V10.7284H97.6064V13.1142H102.128V14.5169H97.6064V17.047H102.89Z" fill="#F2FAFC"/>
<path d="M108.721 11.3969C109.622 11.3969 110.344 11.6547 110.888 12.1704C111.432 12.686 111.704 13.4507 111.704 14.4645V18.4759H110.032V14.6742C110.032 14.0625 109.885 13.6036 109.591 13.2978C109.297 12.9831 108.877 12.8258 108.333 12.8258C107.718 12.8258 107.232 13.0094 106.875 13.3764C106.519 13.7347 106.34 14.2547 106.34 14.9364V18.4759H104.668V11.4756H106.26V12.3801C106.537 12.0567 106.884 11.812 107.303 11.646C107.723 11.4799 108.195 11.3969 108.721 11.3969Z" fill="#F2FAFC"/>
<path d="M118.119 18.0957C117.923 18.253 117.682 18.371 117.397 18.4497C117.121 18.5283 116.826 18.5676 116.514 18.5676C115.729 18.5676 115.123 18.3666 114.695 17.9646C114.267 17.5626 114.053 16.9771 114.053 16.208V12.8389H112.876V11.528H114.053V9.92869H115.725V11.528H117.638V12.8389H115.725V16.1687C115.725 16.5095 115.81 16.7717 115.979 16.9552C116.149 17.13 116.394 17.2174 116.715 17.2174C117.089 17.2174 117.402 17.1213 117.651 16.929L118.119 18.0957Z" fill="#F2FAFC"/>
<path d="M121.087 12.4981C121.568 11.764 122.415 11.3969 123.628 11.3969V12.9569C123.486 12.9307 123.356 12.9176 123.24 12.9176C122.589 12.9176 122.081 13.1055 121.715 13.4813C121.35 13.8483 121.167 14.3814 121.167 15.0806V18.4759H119.495V11.4756H121.087V12.4981Z" fill="#F2FAFC"/>
<path d="M131.696 15.0151C131.696 15.1287 131.688 15.2903 131.67 15.5001H126.065C126.163 16.0157 126.417 16.4265 126.827 16.7324C127.246 17.0295 127.764 17.1781 128.379 17.1781C129.164 17.1781 129.81 16.9246 130.319 16.4177L131.215 17.4271C130.894 17.8029 130.488 18.087 129.998 18.2792C129.507 18.4715 128.954 18.5676 128.339 18.5676C127.554 18.5676 126.863 18.4147 126.266 18.1088C125.668 17.8029 125.204 17.3791 124.874 16.8372C124.553 16.2866 124.393 15.6661 124.393 14.9757C124.393 14.2941 124.549 13.6823 124.861 13.1404C125.182 12.5899 125.623 12.1616 126.185 11.8557C126.747 11.5499 127.38 11.3969 128.085 11.3969C128.78 11.3969 129.4 11.5499 129.944 11.8557C130.497 12.1529 130.925 12.5767 131.228 13.1273C131.54 13.6692 131.696 14.2984 131.696 15.0151ZM128.085 12.7078C127.55 12.7078 127.095 12.8651 126.72 13.1798C126.355 13.4857 126.132 13.8964 126.052 14.412H130.105C130.033 13.9051 129.815 13.4944 129.449 13.1798C129.084 12.8651 128.629 12.7078 128.085 12.7078Z" fill="#F2FAFC"/>
<path d="M137.262 11.3969C137.958 11.3969 138.577 11.5455 139.121 11.8426C139.674 12.1398 140.107 12.5593 140.419 13.1011C140.731 13.643 140.887 14.2678 140.887 14.9757C140.887 15.6836 140.731 16.3129 140.419 16.8635C140.107 17.4053 139.674 17.8248 139.121 18.1219C138.577 18.4191 137.958 18.5676 137.262 18.5676C136.299 18.5676 135.536 18.253 134.975 17.6238V21.0191H133.303V11.4756H134.894V12.3932C135.171 12.0611 135.51 11.812 135.911 11.646C136.321 11.4799 136.772 11.3969 137.262 11.3969ZM137.075 17.165C137.69 17.165 138.194 16.964 138.586 16.5619C138.988 16.1599 139.188 15.6312 139.188 14.9757C139.188 14.3203 138.988 13.7915 138.586 13.3895C138.194 12.9875 137.69 12.7865 137.075 12.7865C136.673 12.7865 136.312 12.8783 135.991 13.0618C135.67 13.2366 135.416 13.49 135.229 13.8221C135.042 14.1542 134.948 14.5388 134.948 14.9757C134.948 15.4127 135.042 15.7972 135.229 16.1293C135.416 16.4614 135.67 16.7193 135.991 16.9028C136.312 17.0776 136.673 17.165 137.075 17.165Z" fill="#F2FAFC"/>
<path d="M144.065 12.4981C144.546 11.764 145.393 11.3969 146.606 11.3969V12.9569C146.464 12.9307 146.334 12.9176 146.218 12.9176C145.567 12.9176 145.059 13.1055 144.693 13.4813C144.328 13.8483 144.145 14.3814 144.145 15.0806V18.4759H142.473V11.4756H144.065V12.4981Z" fill="#F2FAFC"/>
<path d="M154.674 15.0151C154.674 15.1287 154.666 15.2903 154.648 15.5001H149.043C149.141 16.0157 149.395 16.4265 149.805 16.7324C150.224 17.0295 150.742 17.1781 151.357 17.1781C152.142 17.1781 152.788 16.9246 153.297 16.4177L154.193 17.4271C153.872 17.8029 153.466 18.087 152.976 18.2792C152.485 18.4715 151.932 18.5676 151.317 18.5676C150.532 18.5676 149.841 18.4147 149.244 18.1088C148.646 17.8029 148.182 17.3791 147.852 16.8372C147.531 16.2866 147.371 15.6661 147.371 14.9757C147.371 14.2941 147.527 13.6823 147.839 13.1404C148.16 12.5899 148.601 12.1616 149.163 11.8557C149.725 11.5499 150.358 11.3969 151.063 11.3969C151.758 11.3969 152.378 11.5499 152.922 11.8557C153.475 12.1529 153.903 12.5767 154.206 13.1273C154.518 13.6692 154.674 14.2984 154.674 15.0151ZM151.063 12.7078C150.528 12.7078 150.073 12.8651 149.698 13.1798C149.333 13.4857 149.11 13.8964 149.03 14.412H153.083C153.011 13.9051 152.793 13.4944 152.427 13.1798C152.062 12.8651 151.607 12.7078 151.063 12.7078Z" fill="#F2FAFC"/>
<path d="M160.334 11.3969C161.234 11.3969 161.957 11.6547 162.501 12.1704C163.045 12.686 163.317 13.4507 163.317 14.4645V18.4759H161.645V14.6742C161.645 14.0625 161.497 13.6036 161.203 13.2978C160.909 12.9831 160.49 12.8258 159.946 12.8258C159.33 12.8258 158.844 13.0094 158.488 13.3764C158.131 13.7347 157.953 14.2547 157.953 14.9364V18.4759H156.281V11.4756H157.872V12.3801C158.149 12.0567 158.497 11.812 158.916 11.646C159.335 11.4799 159.808 11.3969 160.334 11.3969Z" fill="#F2FAFC"/>
<path d="M172.218 15.0151C172.218 15.1287 172.209 15.2903 172.191 15.5001H166.587C166.685 16.0157 166.939 16.4265 167.349 16.7324C167.768 17.0295 168.285 17.1781 168.901 17.1781C169.686 17.1781 170.332 16.9246 170.84 16.4177L171.737 17.4271C171.416 17.8029 171.01 18.087 170.519 18.2792C170.029 18.4715 169.476 18.5676 168.861 18.5676C168.076 18.5676 167.385 18.4147 166.787 18.1088C166.19 17.8029 165.726 17.3791 165.396 16.8372C165.075 16.2866 164.915 15.6661 164.915 14.9757C164.915 14.2941 165.071 13.6823 165.383 13.1404C165.704 12.5899 166.145 12.1616 166.707 11.8557C167.269 11.5499 167.902 11.3969 168.607 11.3969C169.302 11.3969 169.922 11.5499 170.466 11.8557C171.019 12.1529 171.447 12.5767 171.75 13.1273C172.062 13.6692 172.218 14.2984 172.218 15.0151ZM168.607 12.7078C168.071 12.7078 167.617 12.8651 167.242 13.1798C166.876 13.4857 166.654 13.8964 166.573 14.412H170.626C170.555 13.9051 170.337 13.4944 169.971 13.1798C169.605 12.8651 169.151 12.7078 168.607 12.7078Z" fill="#F2FAFC"/>
<path d="M180.74 11.4756V18.4759H179.148V17.5845C178.881 17.8991 178.546 18.1438 178.145 18.3186C177.744 18.4846 177.311 18.5676 176.847 18.5676C175.893 18.5676 175.14 18.3098 174.587 17.7942C174.043 17.2698 173.771 16.4964 173.771 15.4739V11.4756H175.443V15.251C175.443 15.8803 175.586 16.3522 175.871 16.6668C176.165 16.9727 176.58 17.1256 177.115 17.1256C177.712 17.1256 178.185 16.9465 178.533 16.5882C178.89 16.2211 179.068 15.6967 179.068 15.0151V11.4756H180.74Z" fill="#F2FAFC"/>
<path d="M184.521 12.4981C185.003 11.764 185.85 11.3969 187.063 11.3969V12.9569C186.92 12.9307 186.791 12.9176 186.675 12.9176C186.024 12.9176 185.515 13.1055 185.15 13.4813C184.784 13.8483 184.601 14.3814 184.601 15.0806V18.4759H182.929V11.4756H184.521V12.4981Z" fill="#F2FAFC"/>
<path d="M190.714 18.5676C190.135 18.5676 189.568 18.4934 189.016 18.3448C188.463 18.1962 188.021 18.0083 187.691 17.7811L188.333 16.5357C188.654 16.7455 189.038 16.9159 189.484 17.047C189.939 17.1693 190.384 17.2305 190.821 17.2305C191.82 17.2305 192.32 16.9727 192.32 16.4571C192.32 16.2124 192.19 16.0419 191.932 15.9458C191.682 15.8497 191.276 15.7579 190.714 15.6705C190.126 15.5831 189.644 15.4826 189.27 15.369C188.904 15.2554 188.583 15.0588 188.307 14.7791C188.039 14.4907 187.905 14.093 187.905 13.5862C187.905 12.922 188.186 12.3932 188.748 11.9999C189.319 11.5979 190.086 11.3969 191.049 11.3969C191.539 11.3969 192.03 11.4537 192.52 11.5673C193.011 11.6722 193.412 11.8164 193.724 11.9999L193.082 13.2453C192.476 12.8957 191.793 12.7209 191.035 12.7209C190.545 12.7209 190.17 12.7952 189.912 12.9438C189.662 13.0836 189.537 13.2715 189.537 13.5075C189.537 13.7697 189.671 13.9576 189.939 14.0712C190.215 14.1761 190.639 14.2766 191.209 14.3727C191.78 14.4601 192.248 14.5606 192.614 14.6742C192.98 14.7878 193.292 14.9801 193.55 15.251C193.818 15.5219 193.952 15.9065 193.952 16.4046C193.952 17.0601 193.662 17.5845 193.082 17.9777C192.502 18.371 191.713 18.5676 190.714 18.5676Z" fill="#F2FAFC"/>
<path d="M199.445 11.3969C200.345 11.3969 201.068 11.6547 201.612 12.1704C202.156 12.686 202.428 13.4507 202.428 14.4645V18.4759H200.756V14.6742C200.756 14.0625 200.608 13.6036 200.314 13.2978C200.02 12.9831 199.601 12.8258 199.057 12.8258C198.441 12.8258 197.955 13.0094 197.599 13.3764C197.242 13.7347 197.064 14.2547 197.064 14.9364V18.4759H195.392V8.74887H197.064V12.2883C197.34 11.9999 197.679 11.7815 198.08 11.6329C198.49 11.4756 198.945 11.3969 199.445 11.3969Z" fill="#F2FAFC"/>
<path d="M204.549 11.4756H206.221V18.4759H204.549V11.4756ZM205.392 10.322C205.088 10.322 204.834 10.2302 204.629 10.0467C204.424 9.85441 204.321 9.61844 204.321 9.33878C204.321 9.05912 204.424 8.82752 204.629 8.64399C204.834 8.45172 205.088 8.35559 205.392 8.35559C205.695 8.35559 205.949 8.44736 206.154 8.63088C206.359 8.80567 206.462 9.02853 206.462 9.29945C206.462 9.58785 206.359 9.83256 206.154 10.0336C205.958 10.2258 205.704 10.322 205.392 10.322Z" fill="#F2FAFC"/>
<path d="M212.375 11.3969C213.071 11.3969 213.69 11.5455 214.234 11.8426C214.787 12.1398 215.22 12.5593 215.532 13.1011C215.844 13.643 216 14.2678 216 14.9757C216 15.6836 215.844 16.3129 215.532 16.8635C215.22 17.4053 214.787 17.8248 214.234 18.1219C213.69 18.4191 213.071 18.5676 212.375 18.5676C211.412 18.5676 210.649 18.253 210.088 17.6238V21.0191H208.415V11.4756H210.007V12.3932C210.284 12.0611 210.623 11.812 211.024 11.646C211.434 11.4799 211.884 11.3969 212.375 11.3969ZM212.188 17.165C212.803 17.165 213.307 16.964 213.699 16.5619C214.101 16.1599 214.301 15.6312 214.301 14.9757C214.301 14.3203 214.101 13.7915 213.699 13.3895C213.307 12.9875 212.803 12.7865 212.188 12.7865C211.786 12.7865 211.425 12.8783 211.104 13.0618C210.783 13.2366 210.529 13.49 210.342 13.8221C210.154 14.1542 210.061 14.5388 210.061 14.9757C210.061 15.4127 210.154 15.7972 210.342 16.1293C210.529 16.4614 210.783 16.7193 211.104 16.9028C211.425 17.0776 211.786 17.165 212.188 17.165Z" fill="#F2FAFC"/>
<path d="M98.7167 34.5477C98.0211 34.5477 97.3523 34.4385 96.7102 34.22C96.077 34.0015 95.5866 33.7131 95.2388 33.3548L95.6267 32.6076C95.9656 32.9397 96.4159 33.2106 96.9777 33.4204C97.5395 33.6214 98.1192 33.7219 98.7167 33.7219C99.555 33.7219 100.184 33.5733 100.603 33.2761C101.022 32.9703 101.231 32.577 101.231 32.0963C101.231 31.7293 101.116 31.4365 100.884 31.218C100.661 30.9995 100.384 30.8335 100.054 30.7199C99.7244 30.5975 99.2651 30.4664 98.6766 30.3266C97.9721 30.1518 97.4102 29.9857 96.9911 29.8284C96.572 29.6624 96.2108 29.4133 95.9076 29.0812C95.6133 28.7491 95.4662 28.299 95.4662 27.731C95.4662 27.2678 95.591 26.8483 95.8407 26.4725C96.0904 26.0879 96.4739 25.7821 96.9911 25.5548C97.5083 25.3276 98.1504 25.214 98.9173 25.214C99.4524 25.214 99.9741 25.2883 100.482 25.4369C101 25.5767 101.446 25.7733 101.82 26.0268L101.486 26.8002C101.093 26.5468 100.674 26.3589 100.228 26.2365C99.7824 26.1054 99.3454 26.0399 98.9173 26.0399C98.0969 26.0399 97.4771 26.1972 97.058 26.5118C96.6478 26.8177 96.4427 27.2153 96.4427 27.7047C96.4427 28.0718 96.5541 28.3689 96.7771 28.5962C97.0089 28.8147 97.2943 28.9851 97.6332 29.1074C97.981 29.221 98.4447 29.3478 99.0244 29.4876C99.711 29.6536 100.264 29.8197 100.683 29.9857C101.111 30.1431 101.472 30.3878 101.767 30.7199C102.061 31.0432 102.208 31.4846 102.208 32.0439C102.208 32.5071 102.079 32.9309 101.82 33.3155C101.57 33.6913 101.182 33.9928 100.656 34.22C100.13 34.4385 99.4836 34.5477 98.7167 34.5477Z" fill="#F2FAFC"/>
<path d="M107.04 34.5346C106.362 34.5346 105.751 34.3861 105.207 34.0889C104.664 33.783 104.235 33.3635 103.923 32.8304C103.611 32.2973 103.455 31.6943 103.455 31.0214C103.455 30.3484 103.611 29.7454 103.923 29.2123C104.235 28.6792 104.664 28.2641 105.207 27.9669C105.751 27.6698 106.362 27.5212 107.04 27.5212C107.718 27.5212 108.329 27.6698 108.873 27.9669C109.417 28.2641 109.84 28.6792 110.143 29.2123C110.456 29.7454 110.612 30.3484 110.612 31.0214C110.612 31.6943 110.456 32.2973 110.143 32.8304C109.84 33.3635 109.417 33.783 108.873 34.0889C108.329 34.3861 107.718 34.5346 107.04 34.5346ZM107.04 33.7088C107.539 33.7088 107.985 33.5995 108.378 33.381C108.779 33.1538 109.091 32.8348 109.314 32.4241C109.537 32.0133 109.649 31.5457 109.649 31.0214C109.649 30.497 109.537 30.0294 109.314 29.6187C109.091 29.2079 108.779 28.8933 108.378 28.6748C107.985 28.4476 107.539 28.334 107.04 28.334C106.541 28.334 106.09 28.4476 105.689 28.6748C105.297 28.8933 104.985 29.2079 104.753 29.6187C104.53 30.0294 104.418 30.497 104.418 31.0214C104.418 31.5457 104.53 32.0133 104.753 32.4241C104.985 32.8348 105.297 33.1538 105.689 33.381C106.09 33.5995 106.541 33.7088 107.04 33.7088Z" fill="#F2FAFC"/>
<path d="M115.467 34.5346C114.771 34.5346 114.147 34.3861 113.594 34.0889C113.05 33.7918 112.622 33.3767 112.31 32.8435C111.998 32.3017 111.842 31.6943 111.842 31.0214C111.842 30.3484 111.998 29.7454 112.31 29.2123C112.622 28.6792 113.05 28.2641 113.594 27.9669C114.147 27.6698 114.771 27.5212 115.467 27.5212C116.073 27.5212 116.613 27.6392 117.085 27.8752C117.567 28.1024 117.946 28.4389 118.222 28.8846L117.513 29.3565C117.281 29.0157 116.987 28.7622 116.631 28.5962C116.274 28.4214 115.886 28.334 115.467 28.334C114.958 28.334 114.499 28.4476 114.089 28.6748C113.688 28.8933 113.371 29.2079 113.139 29.6187C112.916 30.0294 112.805 30.497 112.805 31.0214C112.805 31.5545 112.916 32.0264 113.139 32.4372C113.371 32.8392 113.688 33.1538 114.089 33.381C114.499 33.5995 114.958 33.7088 115.467 33.7088C115.886 33.7088 116.274 33.6257 116.631 33.4597C116.987 33.2936 117.281 33.0402 117.513 32.6993L118.222 33.1713C117.946 33.617 117.567 33.9578 117.085 34.1938C116.604 34.421 116.064 34.5346 115.467 34.5346Z" fill="#F2FAFC"/>
<path d="M120.088 27.5737H121.038V34.4691H120.088V27.5737ZM120.57 26.0661C120.373 26.0661 120.208 26.0006 120.075 25.8695C119.941 25.7384 119.874 25.5811 119.874 25.3975C119.874 25.2227 119.941 25.0698 120.075 24.9387C120.208 24.8076 120.373 24.7421 120.57 24.7421C120.766 24.7421 120.931 24.8076 121.065 24.9387C121.198 25.0611 121.265 25.2096 121.265 25.3844C121.265 25.5767 121.198 25.7384 121.065 25.8695C120.931 26.0006 120.766 26.0661 120.57 26.0661Z" fill="#F2FAFC"/>
<path d="M129.807 31.3098H123.921C123.975 32.0264 124.256 32.6076 124.764 33.0533C125.272 33.4903 125.914 33.7088 126.69 33.7088C127.127 33.7088 127.528 33.6345 127.894 33.4859C128.26 33.3286 128.576 33.1014 128.844 32.8042L129.379 33.4072C129.067 33.7743 128.674 34.054 128.202 34.2462C127.738 34.4385 127.225 34.5346 126.663 34.5346C125.941 34.5346 125.299 34.3861 124.737 34.0889C124.184 33.783 123.752 33.3635 123.44 32.8304C123.127 32.2973 122.971 31.6943 122.971 31.0214C122.971 30.3484 123.119 29.7454 123.413 29.2123C123.716 28.6792 124.126 28.2641 124.644 27.9669C125.17 27.6698 125.758 27.5212 126.409 27.5212C127.06 27.5212 127.644 27.6698 128.162 27.9669C128.679 28.2641 129.085 28.6792 129.379 29.2123C129.673 29.7367 129.82 30.3397 129.82 31.0214L129.807 31.3098ZM126.409 28.3209C125.731 28.3209 125.161 28.535 124.697 28.9632C124.242 29.3827 123.984 29.9333 123.921 30.615H128.911C128.848 29.9333 128.585 29.3827 128.121 28.9632C127.667 28.535 127.096 28.3209 126.409 28.3209Z" fill="#F2FAFC"/>
<path d="M135.459 34.0496C135.28 34.2069 135.057 34.3293 134.79 34.4166C134.531 34.4953 134.259 34.5346 133.974 34.5346C133.314 34.5346 132.806 34.3598 132.449 34.0103C132.092 33.6607 131.914 33.1669 131.914 32.5289V28.3602H130.657V27.5737H131.914V26.0661H132.864V27.5737H135.004V28.3602H132.864V32.4765C132.864 32.8872 132.966 33.2019 133.171 33.4204C133.385 33.6301 133.689 33.735 134.081 33.735C134.277 33.735 134.464 33.7044 134.643 33.6432C134.83 33.582 134.991 33.4946 135.124 33.381L135.459 34.0496Z" fill="#F2FAFC"/>
<path d="M142.969 27.5737L139.451 35.295C139.166 35.9417 138.836 36.4005 138.462 36.6714C138.087 36.9424 137.637 37.0778 137.111 37.0778C136.772 37.0778 136.455 37.0254 136.161 36.9205C135.867 36.8156 135.612 36.6583 135.398 36.4486L135.84 35.7538C136.196 36.1034 136.625 36.2782 137.124 36.2782C137.445 36.2782 137.717 36.1908 137.94 36.016C138.172 35.8412 138.386 35.544 138.582 35.1245L138.89 34.456L135.746 27.5737H136.736L139.385 33.4335L142.033 27.5737H142.969Z" fill="#F2FAFC"/>
<path fill-rule="evenodd" clip-rule="evenodd" d="M77.7601 47L77.7601 0H78.8194L78.8194 47H77.7601Z" fill="#F2FAFC"/>
<path fill-rule="evenodd" clip-rule="evenodd" d="M12.8995 15.5177C14.1687 13.4777 17.1235 13.3401 18.5821 15.2529L30.1459 30.4181C31.8507 32.6538 30.2328 35.8487 27.3959 35.8487H20.2913C19.4468 35.8487 18.7622 35.1737 18.7622 34.3411C18.7622 33.5084 19.4468 32.8335 20.2913 32.8335H27.3959C27.7112 32.8335 27.8909 32.4785 27.7015 32.2301L16.1377 17.0649C15.9756 16.8523 15.6473 16.8676 15.5063 17.0943L3.11999 37.003C2.96374 37.2541 3.14702 37.577 3.44583 37.577H7.88669C8.73118 37.577 9.41577 38.252 9.41577 39.0846C9.41577 39.9172 8.73118 40.5922 7.88669 40.5922H3.44583C0.756517 40.5922 -0.892993 37.6866 0.51321 35.4264L12.8995 15.5177Z" fill="#A4E1EA"/>
<path fill-rule="evenodd" clip-rule="evenodd" d="M33.5961 20.8537C33.4476 20.6507 33.1435 20.6441 32.9862 20.8405L21.4145 35.2762C20.8909 35.9294 19.9293 36.0405 19.2667 35.5242C18.6042 35.0079 18.4916 34.0598 19.0152 33.4065L30.5869 18.9708C32.0031 17.204 34.7403 17.2633 36.0764 19.0898L52.2919 41.2559C52.7859 41.9312 52.6312 42.8735 51.9463 43.3605C51.2613 43.8476 50.3056 43.695 49.8116 43.0197L33.5961 20.8537Z" fill="#E34D59"/>
<path fill-rule="evenodd" clip-rule="evenodd" d="M53.1837 17.9173C53.0306 17.6808 52.6784 17.6864 52.533 17.9276L39.1869 40.0604C39.0354 40.3117 39.219 40.6299 39.5155 40.6299H51.0572C51.9017 40.6299 52.5863 41.3049 52.5863 42.1376C52.5863 42.9702 51.9017 43.6452 51.0572 43.6452H39.5155C36.8474 43.6452 35.1947 40.7807 36.5582 38.5195L49.9043 16.3867C51.2131 14.2162 54.3824 14.1661 55.761 16.2942L62.019 25.954C63.4818 28.212 61.837 31.1721 59.1196 31.1721H55.9187C55.0743 31.1721 54.3897 30.4972 54.3897 29.6645C54.3897 28.8319 55.0743 28.1569 55.9187 28.1569H59.1196C59.4215 28.1569 59.6043 27.828 59.4417 27.5771L53.1837 17.9173Z" fill="#FFBA52"/>
<path d="M20.1384 4.78631C20.1384 7.18013 18.1702 9.12071 15.7423 9.12071C13.3144 9.12071 11.3463 7.18013 11.3463 4.78631C11.3463 2.39248 13.3144 0.451904 15.7423 0.451904C18.1702 0.451904 20.1384 2.39248 20.1384 4.78631Z" fill="#A4E1EA"/>
<path d="M37.7992 8.29156C37.7992 10.6854 35.9679 12.626 33.7089 12.626C31.4499 12.626 29.6187 10.6854 29.6187 8.29156C29.6187 5.89773 31.4499 3.95715 33.7089 3.95715C35.9679 3.95715 37.7992 5.89773 37.7992 8.29156Z" fill="#E34D59"/>
<path d="M57.3331 4.78631C57.3331 7.18013 55.3649 9.12071 52.937 9.12071C50.5092 9.12071 48.541 7.18013 48.541 4.78631C48.541 2.39248 50.5092 0.451904 52.937 0.451904C55.3649 0.451904 57.3331 2.39248 57.3331 4.78631Z" fill="#FFBA52"/>
<path fill-rule="evenodd" clip-rule="evenodd" d="M25.0697 34.3356C25.0697 35.1683 24.3851 35.8433 23.5406 35.8433L20.2149 35.8433C19.3704 35.8433 18.6858 35.1683 18.6858 34.3356C18.6858 33.503 19.3704 32.828 20.2149 32.828L23.5406 32.828C24.3851 32.828 25.0697 33.503 25.0697 34.3356Z" fill="#A4E1EA"/>
<path fill-rule="evenodd" clip-rule="evenodd" d="M51.9727 43.3698C51.2924 43.8631 50.3353 43.7191 49.835 43.0483L47.824 40.3517C47.3237 39.6808 47.4697 38.7372 48.1501 38.2439C48.8304 37.7507 49.7875 37.8946 50.2878 38.5655L52.2988 41.2621C52.7991 41.9329 52.6531 42.8766 51.9727 43.3698Z" fill="#E34D59"/>
</svg>
