<?xml version="1.0" encoding="utf-8"?>
<!-- Generator: Adobe Illustrator 17.0.0, SVG Export Plug-In . SVG Version: 6.00 Build 0)  -->
<!DOCTYPE svg PUBLIC "-//W3C//DTD SVG 1.1//EN" "http://www.w3.org/Graphics/SVG/1.1/DTD/svg11.dtd">
<svg version="1.1" xmlns="http://www.w3.org/2000/svg" xmlns:xlink="http://www.w3.org/1999/xlink" x="0px" y="0px" width="670px"
	 height="100px" viewBox="0 0 670 100" enable-background="new 0 0 670 100" xml:space="preserve">
<g id="Dark">
</g>
<g id="Light">
</g>
<g id="Layer_3">
	<g id="Logo_6_">
		<g>
			<g id="XMLID_76_">
				<g id="Logo_7_">
					<g id="XMLID_97_">
						<path id="XMLID_98_" fill="#FFFFFF" d="M65.88,55.272c-8.834,0-16.021-7.186-16.021-16.021s7.186-16.021,16.021-16.021
							s16.021,7.186,16.021,16.021S74.715,55.272,65.88,55.272z M65.88,25.329c-7.677,0-13.923,6.246-13.923,13.923
							s6.246,13.923,13.923,13.923s13.923-6.246,13.923-13.923S73.557,25.329,65.88,25.329z"/>
					</g>
					<g id="XMLID_93_">
						<path id="XMLID_94_" fill="#FFFFFF" d="M46.56,88.589c-8.834,0-16.021-7.186-16.021-16.021s7.186-16.021,16.021-16.021
							s16.021,7.186,16.021,16.021S55.395,88.589,46.56,88.589z M46.56,58.646c-7.677,0-13.923,6.246-13.923,13.923
							s6.246,13.923,13.923,13.923s13.923-6.246,13.923-13.923S54.237,58.646,46.56,58.646z"/>
					</g>
					<g id="XMLID_89_">
						<path id="XMLID_90_" fill="#FFFFFF" d="M27.795,56.322c-8.834,0-16.022-7.186-16.022-16.021s7.187-16.021,16.022-16.021
							s16.021,7.186,16.021,16.021S36.63,56.322,27.795,56.322z M27.795,26.379c-7.678,0-13.924,6.246-13.924,13.923
							s6.246,13.923,13.924,13.923c7.677,0,13.923-6.246,13.923-13.923S35.472,26.379,27.795,26.379z"/>
					</g>
					<g id="XMLID_85_">
						<path id="XMLID_86_" fill="#FFFFFF" d="M27.795,79.437c-8.834,0-16.022-7.186-16.022-16.021s7.187-16.021,16.022-16.021
							s16.021,7.186,16.021,16.021S36.63,79.437,27.795,79.437z M27.795,49.493c-7.678,0-13.924,6.246-13.924,13.923
							s6.246,13.923,13.924,13.923c7.677,0,13.923-6.246,13.923-13.923S35.472,49.493,27.795,49.493z"/>
					</g>
					<g id="XMLID_81_">
						<path id="XMLID_82_" fill="#FFFFFF" d="M46.485,43.452c-8.834,0-16.021-7.186-16.021-16.021s7.186-16.021,16.021-16.021
							s16.021,7.186,16.021,16.021S55.319,43.452,46.485,43.452z M46.485,13.509c-7.677,0-13.923,6.246-13.923,13.923
							s6.246,13.923,13.923,13.923s13.923-6.246,13.923-13.923S54.162,13.509,46.485,13.509z"/>
					</g>
					<g id="XMLID_77_">
						<path id="XMLID_78_" fill="#FFFFFF" d="M65.88,79.437c-8.834,0-16.021-7.186-16.021-16.021s7.186-16.021,16.021-16.021
							s16.021,7.186,16.021,16.021S74.715,79.437,65.88,79.437z M65.88,49.493c-7.677,0-13.923,6.246-13.923,13.923
							s6.246,13.923,13.923,13.923s13.923-6.246,13.923-13.923S73.557,49.493,65.88,49.493z"/>
					</g>
				</g>
			</g>
			<g>
				<path fill="#FFFFFF" d="M101.139,37.524h19.294v4.742h-13.575v5.502h12.199v4.742h-12.199v5.611h13.973v4.742h-19.693V37.524z"
					/>
				<path fill="#FFFFFF" d="M142.841,37.524h5.43v25.339h-5.213l-12.271-16.29v16.29h-5.466V37.524h5.213l12.308,16.362V37.524z"/>
				<path fill="#FFFFFF" d="M151.347,37.524h21.177v4.851h-7.747v20.489h-5.719V42.375h-7.71V37.524z"/>
				<path fill="#FFFFFF" d="M191.166,62.864l-4.018-7.24h-0.543h-5.285v7.24H175.6V37.524h11.005c3.306,0,5.864,0.766,7.674,2.299
					c1.81,1.533,2.715,3.698,2.715,6.498c0,1.955-0.404,3.626-1.213,5.014c-0.809,1.388-1.985,2.444-3.53,3.168l5.394,8.362H191.166
					z M181.32,50.846h5.285c1.593,0,2.817-0.368,3.674-1.104c0.856-0.736,1.285-1.816,1.285-3.24c0-1.399-0.429-2.455-1.285-3.168
					c-0.857-0.711-2.082-1.068-3.674-1.068h-5.285V50.846z"/>
				<path fill="#FFFFFF" d="M201.808,37.524h19.294v4.742h-13.575v5.502h12.199v4.742h-12.199v5.611h13.973v4.742h-19.693V37.524z"
					/>
				<path fill="#FFFFFF" d="M244.234,39.823c1.761,1.533,2.642,3.698,2.642,6.498c0,2.944-0.887,5.231-2.661,6.86
					c-1.773,1.629-4.266,2.443-7.475,2.443h-5.032v7.24h-5.719V37.524h10.751C239.974,37.524,242.472,38.291,244.234,39.823z
					 M240.161,49.742c0.857-0.736,1.285-1.816,1.285-3.24c0-1.399-0.429-2.455-1.285-3.168c-0.857-0.711-2.094-1.068-3.71-1.068
					h-4.742v8.579h4.742C238.067,50.846,239.304,50.478,240.161,49.742z"/>
				<path fill="#FFFFFF" d="M266.098,62.864l-4.018-7.24h-0.543h-5.285v7.24h-5.719V37.524h11.005c3.306,0,5.865,0.766,7.674,2.299
					c1.81,1.533,2.715,3.698,2.715,6.498c0,1.955-0.405,3.626-1.213,5.014c-0.809,1.388-1.986,2.444-3.529,3.168l5.393,8.362
					H266.098z M256.251,50.846h5.285c1.593,0,2.817-0.368,3.674-1.104c0.857-0.736,1.285-1.816,1.285-3.24
					c0-1.399-0.429-2.455-1.285-3.168c-0.857-0.711-2.081-1.068-3.674-1.068h-5.285V50.846z"/>
				<path fill="#FFFFFF" d="M276.74,37.524h19.294v4.742H282.46v5.502h12.199v4.742H282.46v5.611h13.972v4.742H276.74V37.524z"/>
				<path fill="#FFFFFF" d="M318.441,37.524h5.43v25.339h-5.213l-12.271-16.29v16.29h-5.466V37.524h5.213l12.307,16.362V37.524z"/>
				<path fill="#FFFFFF" d="M329.447,37.524h19.294v4.742h-13.575v5.502h12.199v4.742h-12.199v5.611h13.972v4.742h-19.692V37.524z"
					/>
				<path fill="#FFFFFF" d="M360.451,56.692c1.025,1.05,2.395,1.575,4.109,1.575c1.665,0,2.992-0.518,3.981-1.557
					c0.99-1.037,1.485-2.473,1.485-4.308V37.524h5.719v14.878c0,2.22-0.453,4.145-1.358,5.774c-0.904,1.629-2.202,2.884-3.891,3.764
					c-1.689,0.881-3.681,1.321-5.974,1.321s-4.296-0.44-6.009-1.321c-1.714-0.88-3.028-2.136-3.945-3.764
					c-0.918-1.629-1.376-3.553-1.376-5.774V37.524h5.719v14.878C358.913,54.212,359.425,55.642,360.451,56.692z"/>
				<path fill="#FFFFFF" d="M396.451,62.864l-4.018-7.24h-0.543h-5.285v7.24h-5.719V37.524h11.004c3.306,0,5.865,0.766,7.674,2.299
					c1.81,1.533,2.715,3.698,2.715,6.498c0,1.955-0.405,3.626-1.213,5.014c-0.809,1.388-1.986,2.444-3.529,3.168l5.393,8.362
					H396.451z M386.605,50.846h5.285c1.593,0,2.817-0.368,3.674-1.104c0.857-0.736,1.285-1.816,1.285-3.24
					c0-1.399-0.429-2.455-1.285-3.168c-0.857-0.711-2.081-1.068-3.674-1.068h-5.285V50.846z"/>
				<path fill="#FFFFFF" d="M419.636,42.683c-1.46-0.471-2.71-0.706-3.746-0.706c-0.99,0-1.774,0.181-2.353,0.543
					c-0.58,0.362-0.869,0.893-0.869,1.593c0,0.893,0.416,1.575,1.249,2.045c0.832,0.471,2.117,0.959,3.855,1.466
					c1.737,0.507,3.167,1.014,4.289,1.52c1.122,0.507,2.081,1.267,2.878,2.28c0.796,1.013,1.195,2.353,1.195,4.018
					c0,1.617-0.429,3.011-1.285,4.181c-0.857,1.171-2.033,2.058-3.53,2.661c-1.497,0.603-3.198,0.905-5.104,0.905
					c-2.052,0-4.067-0.362-6.045-1.086c-1.98-0.724-3.693-1.713-5.141-2.968l2.281-4.67c1.279,1.158,2.751,2.088,4.416,2.788
					c1.665,0.7,3.186,1.05,4.561,1.05c1.182,0,2.106-0.217,2.769-0.652c0.664-0.434,0.996-1.062,0.996-1.882
					c0-0.651-0.223-1.188-0.669-1.611c-0.447-0.422-1.013-0.766-1.701-1.032c-0.688-0.265-1.636-0.567-2.842-0.905
					c-1.737-0.483-3.155-0.965-4.253-1.448c-1.099-0.482-2.045-1.218-2.842-2.208c-0.796-0.989-1.195-2.304-1.195-3.946
					c0-1.52,0.41-2.853,1.231-4c0.82-1.146,1.966-2.027,3.439-2.642c1.471-0.615,3.185-0.923,5.141-0.923
					c1.737,0,3.45,0.253,5.14,0.76c1.689,0.507,3.186,1.182,4.489,2.027l-2.208,4.742C422.478,43.787,421.096,43.153,419.636,42.683
					z"/>
				<path fill="#FFFFFF" d="M430.152,37.524h5.719v10.57h11.475v-10.57h5.719v25.339h-5.719v-9.991h-11.475v9.991h-5.719V37.524z"/>
				<path fill="#FFFFFF" d="M458.64,37.524h5.719v25.339h-5.719V37.524z"/>
				<path fill="#FFFFFF" d="M488.214,39.823c1.762,1.533,2.642,3.698,2.642,6.498c0,2.944-0.887,5.231-2.66,6.86
					c-1.774,1.629-4.266,2.443-7.475,2.443h-5.032v7.24h-5.719V37.524h10.751C483.955,37.524,486.452,38.291,488.214,39.823z
					 M484.142,49.742c0.856-0.736,1.285-1.816,1.285-3.24c0-1.399-0.429-2.455-1.285-3.168c-0.857-0.711-2.094-1.068-3.71-1.068
					h-4.742v8.579h4.742C482.048,50.846,483.285,50.478,484.142,49.742z"/>
				<path fill="#FFFFFF" d="M515.526,42.683c-1.46-0.471-2.709-0.706-3.746-0.706c-0.99,0-1.774,0.181-2.353,0.543
					c-0.58,0.362-0.869,0.893-0.869,1.593c0,0.893,0.416,1.575,1.249,2.045c0.832,0.471,2.117,0.959,3.855,1.466
					c1.737,0.507,3.167,1.014,4.289,1.52c1.122,0.507,2.081,1.267,2.878,2.28c0.796,1.013,1.195,2.353,1.195,4.018
					c0,1.617-0.429,3.011-1.285,4.181c-0.857,1.171-2.033,2.058-3.53,2.661c-1.496,0.603-3.198,0.905-5.104,0.905
					c-2.052,0-4.067-0.362-6.045-1.086c-1.98-0.724-3.693-1.713-5.141-2.968l2.281-4.67c1.279,1.158,2.751,2.088,4.416,2.788
					c1.665,0.7,3.186,1.05,4.561,1.05c1.182,0,2.106-0.217,2.769-0.652c0.664-0.434,0.996-1.062,0.996-1.882
					c0-0.651-0.223-1.188-0.669-1.611c-0.447-0.422-1.013-0.766-1.701-1.032c-0.688-0.265-1.636-0.567-2.842-0.905
					c-1.737-0.483-3.155-0.965-4.253-1.448c-1.099-0.482-2.045-1.218-2.842-2.208c-0.796-0.989-1.195-2.304-1.195-3.946
					c0-1.52,0.41-2.853,1.231-4c0.82-1.146,1.966-2.027,3.439-2.642c1.471-0.615,3.185-0.923,5.141-0.923
					c1.737,0,3.45,0.253,5.14,0.76c1.689,0.507,3.186,1.182,4.489,2.027l-2.208,4.742C518.367,43.787,516.985,43.153,515.526,42.683
					z"/>
				<path fill="#FFFFFF" d="M544.756,38.827c2.075,1.135,3.71,2.697,4.905,4.688c1.195,1.991,1.792,4.205,1.792,6.642
					c0,2.438-0.597,4.658-1.792,6.661c-1.195,2.004-2.829,3.578-4.905,4.724c-2.075,1.146-4.38,1.719-6.914,1.719
					c-2.534,0-4.839-0.573-6.914-1.719c-2.075-1.146-3.71-2.715-4.905-4.706c-1.195-1.991-1.792-4.217-1.792-6.679
					c0-2.437,0.597-4.652,1.792-6.642c1.195-1.991,2.824-3.553,4.887-4.688c2.063-1.134,4.374-1.701,6.932-1.701
					C540.377,37.126,542.681,37.693,544.756,38.827z M534.005,43.19c-1.207,0.712-2.16,1.683-2.86,2.914
					c-0.7,1.231-1.049,2.583-1.049,4.054c0,1.497,0.356,2.86,1.068,4.091c0.711,1.231,1.665,2.208,2.86,2.932
					c1.195,0.724,2.491,1.086,3.891,1.086c1.399,0,2.684-0.356,3.855-1.068c1.17-0.711,2.1-1.689,2.788-2.932
					c0.688-1.243,1.032-2.612,1.032-4.109c0-1.471-0.344-2.823-1.032-4.054c-0.688-1.231-1.617-2.202-2.788-2.914
					c-1.171-0.712-2.455-1.068-3.855-1.068C536.515,42.122,535.212,42.478,534.005,43.19z"/>
				<path fill="#FFFFFF" d="M569.86,43.008c-1.17-0.591-2.347-0.887-3.529-0.887c-1.424,0-2.727,0.35-3.909,1.05
					c-1.183,0.7-2.112,1.653-2.788,2.86c-0.676,1.207-1.013,2.546-1.013,4.018c0,1.473,0.337,2.818,1.013,4.036
					c0.675,1.219,1.605,2.184,2.788,2.896c1.182,0.712,2.485,1.068,3.909,1.068c1.134,0,2.286-0.272,3.457-0.815
					c1.17-0.543,2.214-1.273,3.131-2.19l3.366,3.656c-1.352,1.4-2.938,2.51-4.761,3.33c-1.822,0.821-3.65,1.231-5.484,1.231
					c-2.486,0-4.742-0.573-6.77-1.719c-2.027-1.146-3.62-2.721-4.778-4.724c-1.158-2.003-1.737-4.235-1.737-6.697
					c0-2.437,0.591-4.645,1.774-6.625c1.182-1.979,2.805-3.535,4.868-4.67c2.064-1.134,4.35-1.701,6.86-1.701
					c1.834,0,3.643,0.38,5.43,1.14c1.785,0.76,3.306,1.792,4.561,3.095l-3.33,4.091C572.051,44.415,571.031,43.6,569.86,43.008z"/>
				<path fill="#FFFFFF" d="M579.689,37.524h5.719v25.339h-5.719V37.524z"/>
				<path fill="#FFFFFF" d="M591.019,37.524h19.294v4.742h-13.575v5.502h12.199v4.742h-12.199v5.611h13.972v4.742h-19.692V37.524z"
					/>
				<path fill="#FFFFFF" d="M612.701,37.524h21.177v4.851h-7.746v20.489h-5.719V42.375h-7.711V37.524z"/>
				<path fill="#FFFFFF" d="M658.384,37.524l-9.231,17.158v8.181h-5.719v-8.036l-9.375-17.303h5.755l6.479,11.367l6.335-11.367
					H658.384z"/>
			</g>
		</g>
	</g>
</g>
</svg>
