<svg width="160" height="124" viewBox="0 0 160 124" fill="none" xmlns="https://www.w3.org/2000/svg">
<path d="M34.4181 32.2033C42.4705 32.2033 48.9982 25.6755 48.9982 17.6231C48.9982 9.57075 42.4705 3.04297 34.4181 3.04297C26.3657 3.04297 19.8379 9.57075 19.8379 17.6231C19.8379 25.6755 26.3657 32.2033 34.4181 32.2033Z" stroke="#141C5A" stroke-width="5.64117" stroke-miterlimit="10"/>
<path d="M42.5041 30.6101C63.3328 44.7002 68.2337 36.1236 67.6211 25.7093C67.15 17.6993 67.5848 13.7663 70.8853 13.4746C71.1551 13.4507 71.4279 13.5076 71.668 13.633C75.5851 15.6776 75.5851 21.9865 75.5851 32.448C75.5851 42.2913 67.4156 51.0113 56.6704 49.192C55.2025 48.9435 53.7554 50.1015 53.9443 51.5783C56.7058 73.1606 61.425 114.168 55.3689 118.826C49.1058 123.644 46.2763 117.016 45.6002 112.91C45.577 112.769 45.5716 112.632 45.5808 112.489C46.1832 103.069 46.3956 87.2759 42.5041 79.0064C37.6032 68.592 36.9906 88.8082 36.9906 93.0965C36.9906 97.3848 36.9906 109.024 36.9906 112.7C36.9906 116.376 32.7023 123.727 28.414 118.826C24.1258 113.925 22.9005 88.8082 21.6753 74.1055C20.8377 64.0547 21.4315 59.5506 22.7688 52.3369C23.0701 50.7114 21.3742 49.4113 19.9395 50.2327C16.0068 52.4844 12.5867 55.6003 14.9367 61.2407C19.225 69.8173 23.3021 79.5233 16.7744 76.556C10.036 73.4929 -5.27945 53.8894 10.0358 43.475C22.2881 35.1435 25.9639 33.0606 29.027 31.2228" stroke="#141C5A" stroke-width="5.64117" stroke-linecap="round" stroke-linejoin="round"/>
<path d="M120.396 26.3222C119.293 24.147 118.672 21.6866 118.672 19.0812C118.672 10.2235 125.852 3.04297 134.71 3.04297C143.568 3.04297 150.748 10.2235 150.748 19.0812C150.748 27.9388 143.568 35.1193 134.71 35.1193C131.703 35.1193 127.664 34.5008 125.259 33.0609" stroke="#141C5A" stroke-width="5.64117" stroke-miterlimit="10"/>
<path d="M147.313 68.592C148.416 82.1797 147.767 118.434 142.413 119.439C137.071 120.443 137.309 95.5453 133.4 85.4617C129.492 75.3781 125.615 107.505 122.197 115.763C118.778 124.021 114.465 120.419 113.62 113.925C112.847 107.988 114 76.032 118.418 58.8942C118.854 57.2012 117.137 55.6571 115.477 56.2065C112.836 57.0807 109.628 57.699 106.269 56.9524" stroke="#141C5A" stroke-width="5.64117" stroke-miterlimit="10" stroke-linejoin="round"/>
<path d="M122.737 27.6789C119.516 26.7064 115.804 31.3246 114.014 34.3638C111.554 38.2131 105.56 47.8583 103.95 50.776C101.937 54.4231 103.95 59.8937 110.66 55.0309C116.027 51.1407 122.737 42.2673 124.75 35.5809C125.421 33.3522 125.958 28.6515 122.737 27.6789Z" stroke="#141C5A" stroke-width="5.64117"/>
<path d="M141.187 47.1509C141.187 47.1509 149.587 56.7509 143.697 61.1061C143.576 61.1958 143.433 61.27 143.293 61.3259C132.578 65.6024 130.192 71.1012 135.061 72.268C143.507 73.4932 153.831 68.1145 156.502 61.241C159.173 54.3675 143.507 32.4961 143.507 32.4961" stroke="#141C5A" stroke-width="5.64117" stroke-miterlimit="10" stroke-linecap="round" stroke-linejoin="round"/>
</svg>

