<svg width="130" height="150" viewBox="0 0 130 150" fill="none" xmlns="http://www.w3.org/2000/svg">
<path d="M35.8333 110.333C49.6865 110.333 60.9167 99.1031 60.9167 85.25C60.9167 71.3968 49.6865 60.1667 35.8333 60.1667C21.9802 60.1667 10.75 71.3968 10.75 85.25C10.75 99.1031 21.9802 110.333 35.8333 110.333Z" fill="#FF9D99"/>
<path d="M63.9167 124.917L98.9167 147.167C100.333 148.083 102.333 147.667 103.25 146.25L125.5 111.25C126.417 109.833 126 107.833 124.583 106.917L89.5833 84.6667C88.1667 83.75 86.1667 84.1667 85.25 85.5833L63 120.583C62 122.083 62.5 124 63.9167 124.917Z" fill="#FF9D99"/>
<path d="M93.0833 61.8333L116.333 65.9166C119.75 66.5 122.5 63.25 121.25 60L113.167 37.8333L105.083 15.6666C103.917 12.4166 99.6667 11.6667 97.5 14.3333L82.3333 32.4167L67.1667 50.5C65 53.1666 66.4167 57.1666 69.8333 57.75L93.0833 61.8333Z" fill="#FF9D99"/>
<path d="M30.1667 101.75C44.0198 101.75 55.25 90.5198 55.25 76.6666C55.25 62.8135 44.0198 51.5833 30.1667 51.5833C16.3135 51.5833 5.08333 62.8135 5.08333 76.6666C5.08333 90.5198 16.3135 101.75 30.1667 101.75Z" stroke="#C3243B" stroke-width="4" stroke-miterlimit="10"/>
<path d="M62.75 112.333L97.75 134.583C99.1667 135.5 101.167 135.083 102.083 133.667L124.333 98.6667C125.25 97.25 124.833 95.25 123.417 94.3333L88.4167 72.0833C87 71.1666 85 71.5833 84.0833 73L61.8333 108C60.9167 109.5 61.3333 111.417 62.75 112.333Z" stroke="#C3243B" stroke-width="4" stroke-miterlimit="10"/>
<path d="M84.5 52.4167L107.75 56.5C111.167 57.0833 113.917 53.8333 112.667 50.5833L104.583 28.4167L96.5 6.24999C95.3333 2.99999 91.0833 2.24999 88.9167 4.91666L73.75 23L58.5833 41.1667C56.4167 43.8333 57.8333 47.8333 61.25 48.4167L84.5 52.4167Z" stroke="#C3243B" stroke-width="4" stroke-miterlimit="10"/>
</svg>
