<svg width="106" height="126" viewBox="0 0 106 126" fill="none" xmlns="https://www.w3.org/2000/svg">
<path d="M25.7956 33.9084C34.098 33.9084 40.8284 27.1624 40.8284 18.8408C40.8284 10.5193 34.098 3.77344 25.7956 3.77344C17.4931 3.77344 10.7627 10.5193 10.7627 18.8408C10.7627 27.1624 17.4931 33.9084 25.7956 33.9084Z" stroke="#141C5A" stroke-width="5.64117" stroke-miterlimit="10"/>
<path d="M78.1706 38.2913C86.473 38.2913 93.2034 31.5453 93.2034 23.2238C93.2034 14.9022 86.473 8.15625 78.1706 8.15625C69.8682 8.15625 63.1377 14.9022 63.1377 23.2238C63.1377 31.5453 69.8682 38.2913 78.1706 38.2913Z" stroke="#141C5A" stroke-width="5.64117" stroke-miterlimit="10"/>
<path d="M10.7619 79.5682C10.7619 79.5682 4.12979 104.183 4.74879 116.667C5.36779 129.152 11.8231 118.452 15.9034 109.893C19.9838 101.334 22.3714 84.1138 24.7084 96.535C27.0581 108.956 27.6771 122.58 31.0879 123.074C34.4987 123.568 36.0525 116.73 37.2905 112.691C38.5285 108.652 46.6134 76.4914 30.6331 33.0742" stroke="#141C5A" stroke-width="5.64117" stroke-miterlimit="10" stroke-linecap="round"/>
<path d="M70.0848 35.9102C70.0848 35.9102 66.1432 59.0045 52.8284 63.1576C39.5136 67.3107 40.4708 69.5271 40.4708 69.5271C40.4708 69.5271 36.2515 77.3901 45.7513 78.2637C55.251 79.1501 64.5769 74.6168 68.6194 63.4365" stroke="#141C5A" stroke-width="5.64117" stroke-miterlimit="10" stroke-linecap="round"/>
<path d="M63.1377 73.5781C62.7587 73.8567 60.3333 114.108 63.1377 119.224C65.9422 124.339 72.1701 118.527 73.6481 112.716C75.1135 106.904 78.4864 77.8831 81.632 89.7092C84.7775 101.535 89.5905 117.983 93.2035 119.224C96.8164 120.465 100.846 119.224 100.227 110.209C99.6082 101.193 100.29 85.9739 100.29 85.9739" stroke="#141C5A" stroke-width="5.64117" stroke-miterlimit="10" stroke-linecap="round"/>
<path d="M88.7686 33.8965C88.7686 33.8965 102.134 62.069 102.702 73.5786C103.271 85.0755 98.5716 96.0533 93.2027 83.4041C87.8338 70.755 85.042 52.7372 85.042 52.7372" stroke="#141C5A" stroke-width="5.64117" stroke-miterlimit="10" stroke-linecap="round"/>
<path d="M17.9628 32.5781C17.9628 32.5781 5.9997 43.7204 3.82688 61.7381C1.65407 79.7558 19.0114 79.4519 19.0114 79.4519C19.0114 79.4519 36.5425 81.0094 40.4586 72.9312C44.3748 64.853 22.0179 70.4494 20.0472 61.1303" stroke="#141C5A" stroke-width="5.64117" stroke-miterlimit="10" stroke-linecap="round"/>
</svg>
