<svg width="151" height="137" viewBox="0 0 151 137" fill="none" xmlns="http://www.w3.org/2000/svg">
<path d="M94.0701 92.5006H62.5811C56.2948 92.5006 51.1514 87.3572 51.1514 81.0708V69.9958M90.9616 92.5006H136.398C142.685 92.5006 147.828 87.3572 147.828 81.0708V25.0079C147.828 18.7215 142.685 13.5781 136.398 13.5781H62.5811C56.2948 13.5781 51.1514 18.7215 51.1514 25.0079V63.3266" stroke="#141C5A" stroke-width="4.93603" stroke-miterlimit="10"/>
<path d="M99.0576 13.323C99.0576 13.323 99.1003 0.384308 100.692 3.26375C102.285 6.14319 102.868 13.323 102.868 13.323" stroke="#141C5A" stroke-width="4.93603" stroke-miterlimit="10" stroke-linecap="round" stroke-linejoin="round"/>
<path d="M21.4309 68.5663C21.4309 68.5663 -1.12367 96.5787 3.81017 99.9981C5.97348 101.497 8.93218 99.5995 11.5729 96.9953C13.1303 95.4593 16.5467 96.9026 16.2194 99.0654C14.3198 111.617 11.7147 131.891 14.3387 134C16.674 135.876 20.5704 124.408 23.255 115.176C23.8793 113.029 27.3638 113.256 27.709 115.465C28.7736 122.277 30.3125 130.235 32.0419 133.263C32.3278 133.764 32.9021 134.045 33.4367 133.829C38.5236 131.771 38.0252 111.581 36.6707 97.1366C35.2419 81.901 35.9468 84.021 45.243 75.7058C54.5392 67.3907 60.816 61.0981 58.1014 59.9932C55.3869 58.8884 41.2807 69.3909 37.6231 71.8959C33.9656 74.4104 31.6738 72.3455 31.9309 69.1166" stroke="#141C5A" stroke-width="4.93603" stroke-miterlimit="10" stroke-linecap="round" stroke-linejoin="round"/>
<path d="M86.508 92.6328L76.8213 116.845" stroke="#141C5A" stroke-width="4.93603" stroke-miterlimit="10" stroke-linecap="round"/>
<path d="M113.345 93.332L123.032 117.544" stroke="#141C5A" stroke-width="4.93603" stroke-miterlimit="10" stroke-linecap="round"/>
<path d="M68.1152 60.6972C68.5915 60.7067 74.1444 48.9531 76.8209 54.668C79.4974 60.3733 78.5449 63.4879 82.9073 58.8208C87.2791 54.1536 87.9172 49.877 92.7082 55.449C97.4992 61.021 98.3565 57.0015 103.976 48.1816C109.596 39.3616 112.444 31.837 113.482 38.8378C114.52 45.8385 115.768 50.7533 121.33 45.8385C126.893 40.9237 135.713 27.9414 135.713 27.9414" stroke="#141C5A" stroke-width="4.93603" stroke-miterlimit="10" stroke-linecap="round"/>
<path d="M70.4775 75.2498C71.9729 74.7355 129.061 75.2509 129.061 75.2509" stroke="#141C5A" stroke-width="4.93603" stroke-miterlimit="10" stroke-linecap="round"/>
<path d="M27.6158 69.9659C33.8757 69.9659 38.9503 64.8913 38.9503 58.6314C38.9503 52.3715 33.8757 47.2969 27.6158 47.2969C21.3559 47.2969 16.2812 52.3715 16.2812 58.6314C16.2812 64.8913 21.3559 69.9659 27.6158 69.9659Z" stroke="#141C5A" stroke-width="4.93603" stroke-miterlimit="10"/>
</svg>
