<svg width="124" height="150" viewBox="0 0 124 150" fill="none" xmlns="http://www.w3.org/2000/svg">
<path d="M59.7287 136.417V136.5C59.7287 142.583 64.6505 147.5 70.7401 147.5H75.4116C81.5013 147.5 86.4231 142.583 86.4231 136.5V136.417V117.167H59.7287V136.417Z" fill="#FF9D99"/>
<path d="M73.5764 29C53.2219 28.75 36.4545 45.25 36.3711 65.5C36.3711 76.5834 41.2095 86.5 48.9675 93.25C55.7245 99.1667 59.7287 107.583 59.7287 116.583V117.083H86.4231V116.833C86.4231 107.833 90.2604 99.25 97.0174 93.4167C104.859 86.6667 109.781 76.75 109.781 65.6667C109.697 45.5834 93.5972 29.25 73.5764 29Z" fill="#FF9D99"/>
<path d="M48.1332 135.917V136C48.1332 142.333 53.3053 147.5 59.6452 147.5H64.4835C70.8235 147.5 75.9955 142.333 75.9955 136V135.917V115.833H48.1332V135.917Z" stroke="#C3243B" stroke-width="4" stroke-miterlimit="10"/>
<path d="M62.4815 24.1667C41.2928 23.9167 23.8581 41.0833 23.7747 62.1667C23.7747 73.6667 28.7799 84 36.8716 91C43.8789 97.1667 48.0499 105.917 48.0499 115.25V115.833H75.9121V115.583C75.9121 106.25 79.8329 97.25 86.9236 91.1667C95.0153 84.1667 100.187 73.8333 100.187 62.25C100.187 41.4167 83.3365 24.4167 62.4815 24.1667Z" stroke="#C3243B" stroke-width="4" stroke-miterlimit="10"/>
<path d="M48.1333 126.167H75.9121" stroke="#C3243B" stroke-width="4.0625" stroke-miterlimit="10"/>
<path d="M48.467 136.583H75.4951" stroke="#C3243B" stroke-width="4.0625" stroke-miterlimit="10"/>
<path d="M61.981 15.25C63.566 15.25 64.9007 13.9167 64.9007 12.3334V4.58335C64.9007 3.00002 63.566 1.66669 61.981 1.66669C60.3961 1.66669 59.0613 3.00002 59.0613 4.58335V12.4167C59.1448 14 60.3961 15.25 61.981 15.25Z" fill="#C3243B"/>
<path d="M119.207 58.75H111.366C109.781 58.75 108.446 60.0834 108.446 61.6667C108.446 63.25 109.781 64.5834 111.366 64.5834H119.207C120.792 64.5834 122.127 63.25 122.127 61.6667C122.127 60.0834 120.792 58.75 119.207 58.75Z" fill="#C3243B"/>
<path d="M12.6798 58.75H4.83834C3.25336 58.75 1.91864 60.0834 1.91864 61.6667C1.91864 63.25 3.25336 64.5834 4.83834 64.5834H12.6798C14.2648 64.5834 15.5995 63.25 15.5995 61.6667C15.5995 60.0834 14.2648 58.75 12.6798 58.75Z" fill="#C3243B"/>
<path d="M98.9361 94.5C97.7682 93.3333 95.9329 93.3333 94.8485 94.5C93.6806 95.6667 93.6806 97.5 94.8485 98.5833L100.354 104.083C100.938 104.667 101.689 104.917 102.44 104.917C103.19 104.917 103.941 104.667 104.525 104.083C105.693 102.917 105.693 101.083 104.525 100L98.9361 94.5Z" fill="#C3243B"/>
<path d="M25.1094 28.8334C25.6933 29.4167 26.4441 29.6667 27.1949 29.6667C27.9456 29.6667 28.6964 29.4167 29.2804 28.8334C30.4482 27.6667 30.4482 25.8334 29.2804 24.75L23.7746 19.25C22.6068 18.0834 20.7715 18.0834 19.6871 19.25C18.5192 20.4167 18.5192 22.25 19.6871 23.3334L25.1094 28.8334Z" fill="#C3243B"/>
<path d="M100.354 19.25L94.8485 24.75C93.6806 25.9167 93.6806 27.75 94.8485 28.8334C95.4324 29.4167 96.1832 29.6667 96.934 29.6667C97.6848 29.6667 98.4355 29.4167 99.0195 28.8334L104.525 23.3334C105.693 22.1667 105.693 20.3334 104.525 19.25C103.357 18.0834 101.522 18.0834 100.354 19.25Z" fill="#C3243B"/>
<path d="M25.1094 94.5L19.6036 100C18.4358 101.167 18.4358 103 19.6036 104.083C20.1876 104.667 20.9384 104.917 21.6891 104.917C22.4399 104.917 23.1907 104.667 23.7746 104.083L29.2803 98.5833C30.4482 97.4167 30.4482 95.5833 29.2803 94.5C28.029 93.3333 26.1938 93.3333 25.1094 94.5Z" fill="#C3243B"/>
</svg>
