<svg width="91" height="152" viewBox="0 0 91 152" fill="none" xmlns="https://www.w3.org/2000/svg">
<path d="M16.8806 67.1401C24.229 67.1401 30.186 61.1831 30.186 53.8347C30.186 46.4863 24.229 40.5293 16.8806 40.5293C9.53224 40.5293 3.5752 46.4863 3.5752 53.8347C3.5752 61.1831 9.53224 67.1401 16.8806 67.1401Z" stroke="#141C5A" stroke-width="4.93603" stroke-miterlimit="10"/>
<path d="M24.6756 67.0485C27.4709 69.5997 32.2317 76.8674 37.8222 75.1906C44.067 73.3177 39.356 64.8127 41.0331 57.5447C43.4127 52.2692 51.8464 58.4761 50.1213 73.514C49.0032 83.2605 42.9987 85.2535 36.7041 85.2535C39.1267 103.889 42.2298 143.079 36.4157 147.552C30.6016 152.024 28.0299 145.688 27.4709 141.961C28.0299 133.389 28.2536 118.817 24.6756 111.213C20.2032 101.71 19.6442 120.158 19.6442 124.072C19.6442 127.985 19.6442 138.607 19.6442 141.961C19.6442 145.315 15.7308 152.024 11.8175 147.552C7.90415 143.079 6.37252 118.48 5.25442 105.063C3.01824 90.528 2.45906 84.3784 4.13643 79.347C5.81379 74.3155 9.58158 69.2847 12.3768 67.6076" stroke="#141C5A" stroke-width="4.93603" stroke-linecap="round" stroke-linejoin="round"/>
<path d="M38.3098 39.3307L37.5315 36.9886C36.5349 37.3198 35.857 38.2455 35.8421 39.2956L38.3098 39.3307ZM41.2806 49.17L39.5238 50.9034C40.1605 51.5487 41.0997 51.793 41.9701 51.5398L41.2806 49.17ZM61.0837 24.7041L63.2437 23.5102L61.8855 21.0528L59.6226 22.715L61.0837 24.7041ZM67.9207 46.717L68.0118 49.1833C68.7041 49.1577 69.3538 48.8424 69.8021 48.3142C70.2505 47.7861 70.4562 47.0939 70.3691 46.4066L67.9207 46.717ZM47.0621 53.9455L44.8676 55.0749L45.4077 56.1242L46.5635 56.3626L47.0621 53.9455ZM50.041 56.7407L51.7861 58.4858L52.8523 57.4196L52.3903 55.9844L50.041 56.7407ZM35.8421 39.2956C35.8235 40.5977 35.9698 42.6393 36.461 44.725C36.9382 46.7518 37.8229 49.1795 39.5238 50.9034L43.0375 47.4366C42.2851 46.674 41.6683 45.304 41.2656 43.5936C40.8767 41.9422 40.7642 40.3075 40.7776 39.3658L35.8421 39.2956ZM49.3868 46.6591L45.8596 36.7655L41.2102 38.4231L44.7374 48.3167L49.3868 46.6591ZM42.7565 35.2522L37.5315 36.9886L39.0882 41.6728L44.3132 39.9363L42.7565 35.2522ZM44.9959 39.5834L62.5447 26.6932L59.6226 22.715L42.0738 35.6052L44.9959 39.5834ZM58.6203 24.8552C58.774 27.361 59.3129 31.4456 60.4313 35.7337C61.5401 39.9849 63.2785 44.6742 65.953 48.2068L69.8883 45.2272C67.7867 42.4514 66.251 38.4888 65.2076 34.488C64.1737 30.524 63.6822 26.7563 63.5471 24.553L58.6203 24.8552ZM58.9236 25.8979C60.5515 28.8434 64.2494 37.3816 65.4722 47.0274L70.3691 46.4066C69.0539 36.0323 65.1163 26.8984 63.2437 23.5102L58.9236 25.8979ZM41.9701 51.5398L44.8608 50.6987L43.4819 45.9592L40.5912 46.8002L41.9701 51.5398ZM44.8608 50.6987L47.7515 49.8577L46.3726 45.1182L43.4819 45.9592L44.8608 50.6987ZM41.9769 49.4584L44.8676 55.0749L49.2565 52.816L46.3658 47.1995L41.9769 49.4584ZM46.5635 56.3626C45.8967 56.2251 45.5642 55.83 45.5469 55.8105C45.4924 55.7489 45.5031 55.7457 45.5825 55.8833C45.6545 56.008 45.7361 56.1649 45.8494 56.387C45.9524 56.5889 46.0858 56.8531 46.225 57.1061C46.4369 57.4911 46.9273 58.3787 47.7491 58.9373C48.2486 59.2768 48.9918 59.5796 49.8908 59.4598C50.751 59.3452 51.38 58.892 51.7861 58.4858L48.2958 54.9956C48.3665 54.9249 48.6791 54.6416 49.2389 54.5671C49.8374 54.4873 50.2961 54.7001 50.524 54.8551C50.7157 54.9854 50.7802 55.0939 50.7357 55.0334C50.7028 54.9886 50.6425 54.8953 50.5494 54.7261C50.4566 54.5575 50.3648 54.3762 50.2464 54.1441C50.1383 53.9322 50.0023 53.6666 49.8575 53.4157C49.7201 53.1777 49.5148 52.8458 49.242 52.5377C49.0064 52.2717 48.4533 51.7124 47.5606 51.5283L46.5635 56.3626ZM67.8295 44.2507L46.9709 45.0216L47.1532 49.9543L68.0118 49.1833L67.8295 44.2507ZM52.3903 55.9844L49.4113 46.7316L44.7128 48.2443L47.6917 57.497L52.3903 55.9844Z" fill="#141C5A"/>
<path d="M13.2239 82.2883C13.783 85.2526 14.9011 91.4022 21.6097 90.6741C27.2776 90.059 29.4364 93.0793 28.8773 95.8745C27.8665 100.929 17.6963 103.142 8.75148 96.4336C3.09429 92.1907 4.27897 81.8983 4.27897 79.6621" stroke="#141C5A" stroke-width="4.93603" stroke-linecap="round" stroke-linejoin="round"/>
<path d="M70.8057 13.1352L79.1914 3.07227" stroke="#141C5A" stroke-width="4.93603" stroke-linecap="round"/>
<path d="M74.7197 33.8191L88.1369 30.4648M75.8378 51.1497L88.1369 54.504" stroke="#141C5A" stroke-width="4.93603" stroke-linecap="round"/>
</svg>
