<svg width="500" height="500" viewBox="0 0 500 500" fill="none" xmlns="http://www.w3.org/2000/svg">
<path d="M123.938 315.784C121.402 314.939 122.529 229.505 123.409 186.894L131.333 191.648L157.217 206.967L187.855 225.455L222.19 246.585L243.32 259.791C246.278 261.059 249.13 260.319 250.187 259.791L370.625 186.894V219.645V286.203C370.625 290.957 372.738 313.143 366.928 323.18C362.279 331.209 351.609 335.681 346.855 336.914H155.104C144.116 336.069 137.848 333.392 136.087 332.16C129.748 328.779 125.346 319.834 123.938 315.784Z" fill="white"/>
<path d="M246.937 249.754L123.5 178L123.5 177L151.573 175.801L325 172.5L369 176.5L369.5 177L246.937 249.754Z" fill="white"/>
<path d="M146.702 154.724C131.032 156.119 124.645 170.413 123.409 177.385L369.569 176.804C367.875 161.464 351.923 155.305 344.159 154.143L146.702 154.724Z" fill="white"/>
</svg>
