<svg width="500" height="500" viewBox="0 0 500 500" fill="none" xmlns="http://www.w3.org/2000/svg">
<path fill-rule="evenodd" clip-rule="evenodd" d="M313 134.468H187C152.206 134.468 124 161.338 124 194.484V314.516C124 347.662 152.206 374.532 187 374.532H313C347.794 374.532 376 347.662 376 314.516V194.484C376 161.338 347.794 134.468 313 134.468ZM256.674 210.992C247.207 209.588 237.539 211.205 229.044 215.613C220.549 220.021 213.661 226.995 209.358 235.544C205.055 244.092 203.557 253.78 205.078 263.229C206.598 272.677 211.059 281.406 217.827 288.173C224.594 294.941 233.323 299.402 242.771 300.922C252.22 302.443 261.908 300.945 270.456 296.642C279.005 292.339 285.979 285.451 290.387 276.956C294.795 268.461 296.412 258.793 295.008 249.326C293.576 239.669 289.076 230.73 282.173 223.827C275.27 216.924 266.331 212.424 256.674 210.992ZM222.136 202.299C233.431 196.438 246.287 194.288 258.874 196.154C271.714 198.058 283.601 204.042 292.78 213.22C301.958 222.399 307.942 234.286 309.846 247.126C311.712 259.713 309.562 272.569 303.701 283.864C297.84 295.16 288.567 304.319 277.2 310.041C265.833 315.762 252.952 317.753 240.388 315.732C227.825 313.71 216.218 307.778 207.22 298.78C198.222 289.782 192.29 278.175 190.268 265.612C188.247 253.048 190.238 240.167 195.959 228.8C201.681 217.433 210.84 208.16 222.136 202.299ZM330.905 203.437C337.498 203.437 342.842 198.092 342.842 191.5C342.842 184.907 337.498 179.563 330.905 179.563C324.313 179.563 318.968 184.907 318.968 191.5C318.968 198.092 324.313 203.437 330.905 203.437Z" fill="#141C5A"/>
</svg>
