<svg width="23" height="23" viewBox="0 0 23 23" fill="none" xmlns="http://www.w3.org/2000/svg">
    <path opacity="0.5" d="M14.7564 11.4013C14.7564 12.3173 14.3949 13.1958 13.7515 13.8436C13.108 14.4913 12.2353 14.8552 11.3253 14.8552C10.4153 14.8552 9.54259 14.4913 8.89913 13.8436C8.25567 13.1958 7.89417 12.3173 7.89417 11.4013C7.89417 11.2044 7.91476 11.0121 7.95021 10.8256H6.75047V15.4274C6.75047 15.7475 7.0078 16.0065 7.32575 16.0065H15.326C15.4784 16.0062 15.6244 15.9451 15.732 15.8365C15.8397 15.7279 15.9001 15.5808 15.9001 15.4274V10.8256H14.7004C14.7358 11.0121 14.7564 11.2044 14.7564 11.4013ZM11.3253 13.7039C11.6258 13.7038 11.9233 13.6442 12.2008 13.5283C12.4784 13.4125 12.7306 13.2428 12.943 13.0289C13.1554 12.815 13.3239 12.561 13.4388 12.2815C13.5537 12.0021 13.6128 11.7026 13.6127 11.4001C13.6126 11.0976 13.5534 10.7982 13.4383 10.5187C13.3233 10.2393 13.1547 9.98548 12.9422 9.77166C12.7297 9.55784 12.4774 9.38825 12.1998 9.27257C11.9222 9.1569 11.6246 9.0974 11.3242 9.09747C10.7173 9.09762 10.1354 9.34043 9.70647 9.77247C9.2775 10.2045 9.03659 10.7904 9.03674 11.4013C9.03689 12.0121 9.27809 12.5979 9.70728 13.0297C10.1365 13.4615 10.7185 13.704 11.3253 13.7039ZM14.0702 8.98349H15.4415C15.5326 8.98349 15.62 8.94714 15.6845 8.8824C15.7491 8.81766 15.7855 8.72981 15.7858 8.6381V7.25767C15.7858 7.16576 15.7495 7.07762 15.6849 7.01263C15.6204 6.94764 15.5328 6.91113 15.4415 6.91113H14.0702C13.9789 6.91113 13.8913 6.94764 13.8268 7.01263C13.7622 7.07762 13.7259 7.16576 13.7259 7.25767V8.6381C13.7271 8.82806 13.8815 8.98349 14.0702 8.98349ZM11.3253 0.348633C8.41333 0.348633 5.62062 1.5131 3.56155 3.58587C1.50248 5.65864 0.345703 8.46992 0.345703 11.4013C0.345703 14.3326 1.50248 17.1439 3.56155 19.2166C5.62062 21.2894 8.41333 22.4539 11.3253 22.4539C12.7672 22.4539 14.1949 22.168 15.527 21.6125C16.8591 21.0571 18.0695 20.243 19.089 19.2166C20.1086 18.1903 20.9173 16.9719 21.4691 15.6309C22.0209 14.2899 22.3049 12.8527 22.3049 11.4013C22.3049 9.9498 22.0209 8.51256 21.4691 7.1716C20.9173 5.83063 20.1086 4.6122 19.089 3.58587C18.0695 2.55954 16.8591 1.74541 15.527 1.18996C14.1949 0.634517 12.7672 0.348633 11.3253 0.348633ZM17.0438 15.8787C17.0438 16.5822 16.472 17.1578 15.7732 17.1578H6.87742C6.17861 17.1578 5.60676 16.5822 5.60676 15.8787V6.92379C5.60676 6.22034 6.17861 5.64468 6.87742 5.64468H15.7732C16.472 5.64468 17.0438 6.22034 17.0438 6.92379V15.8787Z" fill="#141C5A"/>
</svg>
