<svg width="23" height="23" viewBox="0 0 23 23" fill="none" xmlns="https://www.w3.org/2000/svg">
    <path opacity="0.5" d="M11.3253 0.770508C5.26201 0.770508 0.345703 5.71952 0.345703 11.8231C0.345703 17.9267 5.26201 22.8757 11.3253 22.8757C17.3886 22.8757 22.3049 17.9267 22.3049 11.8231C22.3049 5.71952 17.3886 0.770508 11.3253 0.770508ZM16.6019 9.10191C16.6092 9.21787 16.6092 9.33876 16.6092 9.45718C16.6092 13.0789 13.8692 17.2508 8.86224 17.2508C7.31823 17.2508 5.88697 16.7993 4.68117 16.0221C4.90174 16.0468 5.11251 16.0567 5.33799 16.0567C6.6124 16.0567 7.78389 15.6225 8.71764 14.8873C7.52165 14.8626 6.51682 14.0731 6.17371 12.9876C6.5928 13.0493 6.97022 13.0493 7.40156 12.9383C6.78574 12.8123 6.23222 12.4756 5.83505 11.9854C5.43788 11.4952 5.22154 10.8817 5.2228 10.2491V10.2146C5.58307 10.4193 6.00706 10.5452 6.45065 10.5624C6.07774 10.3123 5.77192 9.97332 5.5603 9.57567C5.34868 9.17802 5.23781 8.73395 5.2375 8.28284C5.2375 7.77215 5.36985 7.30586 5.60758 6.90126C6.29111 7.7483 7.14406 8.44108 8.11098 8.93456C9.07791 9.42804 10.1372 9.71117 11.2199 9.76556C10.8351 7.9029 12.2174 6.3955 13.879 6.3955C14.6633 6.3955 15.3691 6.72609 15.8666 7.25899C16.4818 7.14303 17.07 6.91113 17.5944 6.60027C17.391 7.23432 16.9646 7.76968 16.3985 8.10767C16.9474 8.04846 17.4768 7.8955 17.967 7.68086C17.5969 8.22856 17.1337 8.71458 16.6019 9.10191Z" fill="#141C5A"/>
</svg>
