<?xml version="1.0" encoding="UTF-8"?>
<!DOCTYPE svg PUBLIC "-//W3C//DTD SVG 1.1//EN"
  "https://www.w3.org/Graphics/SVG/1.1/DTD/svg11.dtd">
<!-- Created with Inkpad (https://www.taptrix.com/) --><svg xmlns:inkpad="https://taptrix.com/inkpad/svg_extensions" height="24pt" xmlns:xlink="https://www.w3.org/1999/xlink" xmlns="https://www.w3.org/2000/svg" width="24pt" version="1.1" viewBox="0,0,24,24">
<defs/>
<g id="Untitled" inkpad:layerName="Untitled">
<path d="M12.2334+18.0919L9.30409+18.0919L9.30409+9.30409L12.2334+9.30409L12.2334+10.7687C12.8578+9.97435+13.8047+9.50077+14.8148+9.47765C16.6314+9.48773+18.0972+10.966+18.092+12.7826L18.092+18.0919L15.1627+18.0919L15.1627+13.1488C15.0455+12.3305+14.3438+11.7234+13.5171+11.7251C13.1556+11.7366+12.8143+11.8949+12.572+12.1635C12.3298+12.4322+12.2075+12.788+12.2334+13.1488L12.2334+18.0919ZM7.83944+18.0919L4.91016+18.0919L4.91016+9.30409L7.83944+9.30409L7.83944+18.0919ZM6.3748+7.83944C5.5659+7.83944+4.91016+7.1837+4.91016+6.3748C4.91016+5.5659+5.5659+4.91016+6.3748+4.91016C7.1837+4.91016+7.83944+5.5659+7.83944+6.3748C7.83944+6.76325+7.68513+7.13579+7.41046+7.41046C7.13579+7.68513+6.76325+7.83944+6.3748+7.83944Z" opacity="1" fill="#141c5a"/>
</g>
</svg>
