<svg width="500" height="500" viewBox="0 0 500 500" fill="none" xmlns="https://www.w3.org/2000/svg">
<path d="M379 145.118C367.378 153.023 354.51 159.069 340.892 163.024C333.583 154.919 323.869 149.175 313.064 146.568C302.259 143.961 290.884 144.617 280.478 148.447C270.072 152.277 261.137 159.096 254.881 167.983C248.625 176.869 245.351 187.394 245.5 198.134V209.837C224.172 210.37 203.038 205.809 183.981 196.559C164.924 187.309 148.534 173.658 136.273 156.821C136.273 156.821 87.7273 262.151 196.955 308.964C171.96 325.324 142.185 333.528 112 332.37C221.227 390.887 354.727 332.37 354.727 197.782C354.716 194.523 354.391 191.271 353.756 188.069C366.143 176.289 374.884 161.417 379 145.118V145.118Z" fill="white"/>
</svg>
