<svg width="136" height="149" viewBox="0 0 136 149" fill="none" xmlns="https://www.w3.org/2000/svg">
<path d="M30.6012 67.742C30.6012 67.742 25.1452 76.9022 16.998 65.7685C8.8509 54.6348 3.14155 49.9808 2.60333 56.9248C2.06511 63.8689 7.48949 74.2322 13.737 80.3215C19.9846 86.4107 26.7809 97.555 25.6939 106.515C24.6069 115.474 21.346 135.726 22.4329 139.051C23.5199 142.375 28.1845 148.221 30.6012 139.051C33.0179 129.88 36.5533 109.501 39.8142 112.498C43.0752 115.496 45.3864 127.442 46.5367 132.054C47.687 136.665 49.4388 143.736 53.0481 142.375C56.6573 141.013 56.3301 123.389 53.0481 103.043C49.766 82.7065 51.7605 82.3372 58.8207 77.451C65.8808 72.5648 70.9464 66.5494 69.0679 60.6079C67.1895 54.6664 55.4437 67.742 55.4437 67.742C55.4437 67.742 49.2383 75.2137 41.946 68.449" stroke="#141C5A" stroke-width="4" stroke-miterlimit="10" stroke-linecap="round" stroke-linejoin="round"/>
<path d="M107.861 75.6466C107.861 75.6466 102.289 77.3246 90.8809 67.7422C79.4728 58.1598 75.2937 58.2337 75.4837 62.6767C75.6737 67.1196 89.794 79.1292 89.794 79.1292C89.794 79.1292 99.5769 85.0496 98.7537 104.341C97.9411 123.632 94.1314 135.727 94.9545 139.051C95.7671 142.375 99.0281 145.773 101.476 139.051C103.925 132.328 110.436 110.325 112.61 118.472C114.784 126.619 116.335 147.261 120.588 146.997C124.841 146.734 125.38 140.75 124.841 131.241C124.303 121.733 120.588 105.439 120.588 105.439" stroke="#141C5A" stroke-width="4" stroke-miterlimit="10" stroke-linecap="round" stroke-linejoin="round"/>
<path d="M117.286 80.3107C117.286 80.3107 128.853 98.0825 129.159 106.778C129.465 115.474 127.998 123.79 125.022 121.806" stroke="#141C5A" stroke-width="4" stroke-miterlimit="10" stroke-linecap="round" stroke-linejoin="round"/>
<path d="M70.8935 13.6034C70.8935 13.6034 65.3214 93.3968 67.0416 101.206C68.7617 109.016 72.9831 108.129 73.9223 105.143C74.8616 102.156 77.0355 20.8851 76.7611 20.368C76.4867 19.8509 76.1596 3.28224 70.8935 13.6034Z" stroke="#141C5A" stroke-width="4" stroke-miterlimit="10" stroke-linecap="round" stroke-linejoin="round"/>
<path d="M76.7832 12.2526C77.4797 11.2922 87.9802 -1.77273 99.3356 3.41948C110.691 8.60115 114.121 18.8484 133.56 12.2526L130.848 38.2876C130.848 38.2876 120.178 48.8936 105.172 43.9125C90.1648 38.9313 86.355 38.7202 76.7832 48.8936" stroke="#141C5A" stroke-width="4" stroke-miterlimit="10" stroke-linecap="round" stroke-linejoin="round"/>
<path d="M36.9647 69.4822C43.9005 69.4822 49.5231 63.8597 49.5231 56.9238C49.5231 49.988 43.9005 44.3654 36.9647 44.3654C30.0289 44.3654 24.4062 49.988 24.4062 56.9238C24.4062 63.8597 30.0289 69.4822 36.9647 69.4822Z" stroke="#141C5A" stroke-width="4" stroke-miterlimit="10"/>
<path d="M117.287 80.3209C123.843 80.3209 129.159 75.0054 129.159 68.4484C129.159 61.8915 123.843 56.576 117.287 56.576C110.73 56.576 105.414 61.8915 105.414 68.4484C105.414 75.0054 110.73 80.3209 117.287 80.3209Z" stroke="#141C5A" stroke-width="4" stroke-miterlimit="10"/>
</svg>
