<svg width="193" height="150" viewBox="0 0 193 150" fill="none" xmlns="http://www.w3.org/2000/svg">
<path d="M53.0834 44.5833C62.9785 44.5833 71 36.5618 71 26.6667C71 16.7716 62.9785 8.75 53.0834 8.75C43.1883 8.75 35.1667 16.7716 35.1667 26.6667C35.1667 36.5618 43.1883 44.5833 53.0834 44.5833Z" fill="#FF9D99"/>
<path d="M92.5834 96.5C95.6667 96.5 98.0833 94 97.6667 91.25C94.9167 72.5 77.0833 58 55.5 58C33.9167 58 16.1667 72.5 13.3334 91.3333C12.9167 94.0833 15.3334 96.5833 18.4167 96.5833H92.5834V96.5Z" fill="#FF9D99"/>
<path d="M45.4167 40C55.3118 40 63.3333 31.9784 63.3333 22.0833C63.3333 12.1882 55.3118 4.16667 45.4167 4.16667C35.5216 4.16667 27.5 12.1882 27.5 22.0833C27.5 31.9784 35.5216 40 45.4167 40Z" stroke="#C3243B" stroke-width="4.5112" stroke-miterlimit="10"/>
<path d="M80.3333 88.1667C83.25 88.1667 85.5 85.8333 85.1667 83.25C82.5 65.5833 65.75 51.9167 45.4167 51.9167C25.0833 51.9167 8.33335 65.5833 5.66668 83.25C5.25002 85.8333 7.58335 88.1667 10.5 88.1667H80.3333V88.1667Z" stroke="#C3243B" stroke-width="4.5112" stroke-miterlimit="10"/>
<path d="M141.667 95C151.562 95 159.583 86.9784 159.583 77.0833C159.583 67.1882 151.562 59.1667 141.667 59.1667C131.772 59.1667 123.75 67.1882 123.75 77.0833C123.75 86.9784 131.772 95 141.667 95Z" fill="#FF9D99"/>
<path d="M181.5 146.417C184.583 146.333 187 143.833 186.5 141.083C183.417 122.333 165.333 108.083 143.833 108.417C122.25 108.75 104.667 123.5 102.167 142.333C101.75 145.083 104.25 147.5 107.333 147.5L181.5 146.417Z" fill="#FF9D99"/>
<path d="M134 90.4167C143.895 90.4167 151.917 82.3951 151.917 72.5C151.917 62.6049 143.895 54.5833 134 54.5833C124.105 54.5833 116.083 62.6049 116.083 72.5C116.083 82.3951 124.105 90.4167 134 90.4167Z" stroke="#C3243B" stroke-width="4.5112" stroke-miterlimit="10"/>
<path d="M168.917 138.583C171.833 138.583 174.083 136.25 173.75 133.667C171.083 116 154.333 102.333 134 102.333C113.667 102.333 96.9167 116 94.25 133.667C93.8333 136.25 96.1667 138.583 99.0833 138.583H168.917Z" stroke="#C3243B" stroke-width="4.5112" stroke-miterlimit="10"/>
</svg>
