<svg width="158" height="150" viewBox="0 0 158 150" fill="none" xmlns="http://www.w3.org/2000/svg">
<path d="M91.9167 51.1667C93.3333 48.75 97.5833 48.75 99 51.1667L124.917 95.4167L151.833 141.333C153.083 143.417 151.167 145.75 148.25 145.75H95.4167H42.5833C39.75 145.75 37.8333 143.417 39 141.333L65.9167 95.4167L91.9167 51.1667Z" fill="#FF9D99"/>
<path d="M81.9167 46.5833C83.25 44.3333 87.25 44.3333 88.5 46.5833L112.667 87.8333L137.75 130.583C138.917 132.5 137.083 134.667 134.417 134.667H85.1667H36C33.3333 134.667 31.5833 132.5 32.6667 130.583L57.75 87.8333L81.9167 46.5833Z" stroke="#C3243B" stroke-width="4" stroke-miterlimit="10"/>
<path d="M58.5 84.4167L69.1667 94.75C70.8333 96.3333 73.9167 96.3333 75.5833 94.75L82.9167 87.6667C84.5833 86.0833 87.6667 86.0833 89.3333 87.6667L96.0833 94.1667C97.75 95.75 100.833 95.75 102.5 94.1667L111.333 85.5833" stroke="#C3243B" stroke-width="4" stroke-miterlimit="10"/>
<path d="M84.9167 43.75V7.58334C84.9167 5.5 84.9167 28.1667 84.9167 28.1667" stroke="#C3243B" stroke-width="4" stroke-miterlimit="10"/>
<path d="M120.417 16C121.75 16.4167 121.75 18.25 120.417 18.5833L104.917 23.25L86.6667 28.6667C85.75 28.9167 84.9167 28.25 84.9167 27.3333V17.25V7.16667C84.9167 6.25 85.8333 5.58333 86.6667 5.83333L104.833 11.25L120.417 16Z" stroke="#C3243B" stroke-width="4" stroke-miterlimit="10"/>
<path d="M55.4167 38.5833C54.75 38.5833 54.0833 38.6667 53.4167 38.75C52.9167 36.25 51.3333 34.1667 49.0833 33.0833C46.8333 31.9167 44.25 31.9167 41.9167 32.9167C39.8333 27.25 33.5833 24.3333 27.9167 26.3333C22.25 28.3333 19.3333 34.6667 21.3333 40.3333C16.3333 40.5 12.4167 44.5833 12.5 49.5833C12.5833 54.5833 16.5833 58.5833 21.5833 58.5833H55.3333C60.8333 58.5833 65.3333 54.0833 65.3333 48.5833C65.3333 43.0833 60.9167 38.5833 55.4167 38.5833Z" fill="#FF9D99"/>
<path d="M45.75 33.6667C45.0833 33.6667 44.5 33.75 43.9167 33.8333C43.4167 31.5 41.9167 29.5 39.8333 28.5C37.75 27.4167 35.25 27.4167 33.0833 28.4167C31.1667 23.0833 25.25 20.3333 19.9167 22.25C14.5833 24.1667 11.8333 30.0833 13.75 35.4167C9.08333 35.5833 5.33334 39.4167 5.41667 44.1667C5.5 48.8333 9.33333 52.5833 14 52.6667H45.8333C51.0833 52.6667 55.25 48.4167 55.25 43.25C55.25 38.0833 51 33.6667 45.75 33.6667Z" stroke="#C3243B" stroke-width="4" stroke-miterlimit="10"/>
</svg>
